<?xml version="1.0" encoding="utf-8"?>
<!-- Generator: Adobe Illustrator 22.1.0, SVG Export Plug-In . SVG Version: 6.00 Build 0)  -->
<svg version="1.1" id="圖層_1" xmlns="http://www.w3.org/2000/svg" xmlns:xlink="http://www.w3.org/1999/xlink" x="0px" y="0px"
	 viewBox="0 0 360 360" style="enable-background:new 0 0 360 360;" xml:space="preserve">
<style type="text/css">
	.st0{fill:#FFFFFF;}
</style>
<g>
	<path class="st0" d="M2178.6,457.4L2038.9,425h-2l-139.8,32.4c-2,0-4.1,2-4.1,4.1c0,2,2,4.1,4.1,4.1l54.7,12.2v24.3
		c0,22.3,44.6,32.4,87.1,32.4s87.1-12.2,87.1-32.4l0,0v-24.3l52.7-12.2c2,0,4.1-2,4.1-4.1C2182.7,459.4,2180.7,457.4,2178.6,457.4z
		 M2115.8,501.9L2115.8,501.9c0,10.1-30.4,24.3-77,24.3c-48.6,0-79-14.2-79-24.3v-22.3l77,18.2c0,0,0,0,2,0c0,0,0,0,2,0l79-18.2h-2
		v22.3C2115.8,501.9,2115.8,501.9,2115.8,501.9z M2038.9,487.8l-119.5-26.3l119.5-26.3l117.5,26.3L2038.9,487.8z"/>
	<path class="st0" d="M2123.9,504c0,4.1-2,8.1-4.1,10.1c6.1,10.1,8.1,22.3,8.1,34.4h-30.4c0-8.1-2-14.2-4.1-22.3c-2,0-6.1,2-8.1,2
		c2,6.1,2,12.2,2,18.2h-44.6v-10.1c-2,0-4.1,0-4.1,0c-2,0-4.1,0-4.1,0v14.2h-46.6c0-6.1,2-12.2,2-18.2c-4.1,0-6.1-2-8.1-2
		c-2,4.1-4.1,12.2-4.1,18.2h-30.4c0-12.2,4.1-24.3,8.1-34.4c-2-4.1-4.1-6.1-4.1-10.1c-8.1,14.2-14.2,32.4-14.2,50.6l0,0l0,0
		c0,54.7,44.6,99.3,99.3,99.3l0,0l0,0l0,0c54.7,0,99.3-44.6,99.3-99.3l0,0l0,0C2138.1,536.4,2134.1,518.1,2123.9,504z M1947.7,558.7
		h30.4c0,14.2,4.1,26.3,8.1,38.5h-28.4C1951.8,587,1947.7,572.8,1947.7,558.7z M1963.9,607.3h26.3c8.1,14.2,18.2,26.3,30.4,36.5
		C1998.4,639.7,1978.1,625.5,1963.9,607.3z M2032.8,639.7c-12.2-8.1-24.3-20.3-30.4-34.4h30.4V639.7z M2032.8,597.1h-36.5
		c-4.1-12.2-8.1-24.3-8.1-38.5h46.6v38.5H2032.8z M2042.9,558.7h46.6c0,14.2-4.1,26.3-10.1,38.5h-36.5V558.7z M2042.9,641.7v-34.4
		h32.4C2067.2,621.5,2055.1,631.6,2042.9,641.7z M2057.1,641.7c12.2-8.1,20.3-20.3,28.4-34.4h26.3
		C2097.6,625.5,2079.4,637.7,2057.1,641.7z M2117.9,597.1h-28.4c4.1-12.2,8.1-26.3,8.1-38.5h30.4
		C2128,572.8,2123.9,587,2117.9,597.1z"/>
	<path class="st0" d="M2067.2,564.7l-2-77c0-2,0-2-2-2l-22.3-26.3c-2-2-4.1-4.1-6.1-2s-2,6.1,0,8.1l22.3,24.3l2,74.9
		c-6.1,2-10.1,6.1-10.1,12.2l0,0c0,8.1,6.1,14.2,14.2,14.2l0,0c6.1,0,12.2-6.1,12.2-12.2l0,0
		C2075.3,570.8,2073.3,566.8,2067.2,564.7z M2067.2,578.9c0,2-2,4.1-4.1,4.1l0,0c-2,0-4.1-2-4.1-4.1l0,0c0-2,2-4.1,4.1-4.1l0,0
		C2065.2,572.8,2067.2,574.9,2067.2,578.9L2067.2,578.9z"/>
</g>
<g>
	<path class="st0" d="M1865.2-280c-12.2,0-22.3-12.2-22.3-26.3c0-14.2,10.1-24.3,22.3-24.3c12.2,0,22.3,10.1,22.3,24.3
		S1877.4-280,1865.2-280z M1865.2-322.5c-8.1,0-14.2,6.1-14.2,16.2c0,8.1,6.1,18.2,14.2,18.2c8.1,0,14.2-8.1,14.2-18.2
		C1877.4-314.4,1871.3-322.5,1865.2-322.5z"/>
	<path class="st0" d="M1834.9-136.1c-2,0-4.1-2-4.1-4.1v-58.7c0-2,2-4.1,4.1-4.1s4.1,2,4.1,4.1v58.7
		C1838.9-138.2,1836.9-136.1,1834.9-136.1z"/>
	<path class="st0" d="M2055.7-136.1c-2,0-4.1-2-4.1-4.1v-58.7c0-2,2-4.1,4.1-4.1s4.1,2,4.1,4.1v58.7
		C2059.7-138.2,2057.7-136.1,2055.7-136.1z"/>
	<path class="st0" d="M1853.1-227.3l6.1-8.1c-18.2,0-20.3-8.1-20.3-14.2c0-14.2,12.2-30.4,26.3-30.4c8.1,0,16.2,6.1,20.3,14.2
		l6.1-8.1c-6.1-10.1-16.2-16.2-26.3-16.2c-20.3,0-34.4,20.3-34.4,40.5C1828.8-233.4,1840.9-229.3,1853.1-227.3z"/>
	<path class="st0" d="M1988.8-294.1h-87.1c-4.1,0-6.1-2-6.1-4.1v-74.9c0-2,2-4.1,6.1-4.1h87.1c2,0,4.1,2,4.1,4.1v72.9
		C1992.9-296.2,1990.8-294.1,1988.8-294.1z M1905.8-304.3h79v-62.8h-79V-304.3z"/>
	<path class="st0" d="M1974.6-176.7C1976.7-176.7,1976.7-176.7,1974.6-176.7L1974.6-176.7L1974.6-176.7z"/>
	<path class="st0" d="M1913.9-176.7L1913.9-176.7L1913.9-176.7L1913.9-176.7z"/>
	<path class="st0" d="M2080-176.7L1992.9-280c-2-2-2-2-4.1-2h-87.1c-2,0-2,0-4.1,2l-87.1,103.3c-2,2-2,4.1-2,6.1c0,2,2,2,4.1,2h36.5
		c0-4.1,2-6.1,4.1-10.1h-30.4l79-95.2h83.1l79,95.2h-30.4c2,2,2,6.1,4.1,10.1h36.5c2,0,4.1-2,4.1-2
		C2082-172.6,2080-174.6,2080-176.7z"/>
	<path class="st0" d="M2007-136.1c-8.1,0-34.4,0-34.4-24.3c0-18.2,14.2-40.5,34.4-40.5s34.4,20.3,34.4,40.5
		C2041.5-136.1,2015.1-136.1,2007-136.1z M2007-190.8c-14.2,0-26.3,16.2-26.3,30.4c0,8.1,4.1,16.2,26.3,16.2s26.3-8.1,26.3-16.2
		C2031.3-172.6,2021.2-190.8,2007-190.8z"/>
	<path class="st0" d="M2007-188.8c-12.2,0-24.3-12.2-24.3-26.3c0-14.2,10.1-24.3,22.3-24.3c12.2,0,22.3,10.1,22.3,24.3
		C2029.3-201,2019.2-188.8,2007-188.8z M2007-231.3c-8.1,0-14.2,6.1-14.2,16.2c0,8.1,6.1,18.2,14.2,18.2c6.1,0,14.2-8.1,14.2-18.2
		C2021.2-225.3,2013.1-231.3,2007-231.3z"/>
	<path class="st0" d="M1944.2-136.1c-8.1,0-34.4,0-34.4-24.3c0-18.2,14.2-40.5,34.4-40.5s34.4,20.3,34.4,40.5
		C1978.7-136.1,1952.3-136.1,1944.2-136.1z M1944.2-190.8c-14.2,0-26.3,16.2-26.3,30.4c0,8.1,4.1,16.2,26.3,16.2s26.3-8.1,26.3-16.2
		C1970.6-172.6,1958.4-190.8,1944.2-190.8z"/>
	<path class="st0" d="M1944.2-188.8c-12.2,0-22.3-12.2-22.3-26.3c0-14.2,10.1-24.3,22.3-24.3c12.2,0,22.3,10.1,22.3,24.3
		C1968.5-201,1956.4-188.8,1944.2-188.8z M1944.2-231.3c-8.1,0-14.2,6.1-14.2,16.2c0,8.1,6.1,18.2,14.2,18.2
		c6.1,0,14.2-8.1,14.2-18.2C1958.4-225.3,1952.3-231.3,1944.2-231.3z"/>
	<path class="st0" d="M1883.5-136.1c-8.1,0-34.4,0-34.4-24.3c0-18.2,14.2-40.5,34.4-40.5c20.3,0,34.4,20.3,34.4,40.5
		C1917.9-136.1,1891.6-136.1,1883.5-136.1z M1883.5-190.8c-14.2,0-26.3,16.2-26.3,30.4c0,8.1,4.1,16.2,26.3,16.2s26.3-8.1,26.3-16.2
		C1907.8-172.6,1897.7-190.8,1883.5-190.8z"/>
	<path class="st0" d="M1883.5-188.8c-12.2,0-24.3-12.2-24.3-26.3c0-14.2,10.1-24.3,22.3-24.3c12.2,0,22.3,10.1,22.3,24.3
		C1905.8-201,1895.6-188.8,1883.5-188.8z M1883.5-231.3c-8.1,0-14.2,6.1-14.2,16.2c0,8.1,6.1,18.2,14.2,18.2
		c6.1-2,12.2-10.1,12.2-18.2C1895.6-225.3,1889.6-231.3,1883.5-231.3z"/>
</g>
<g>
	<path class="st0" d="M2131.5-206.7h-271.4c-2,0-4.1-2-4.1-4.1v-145.8c0-8.1,6.1-16.2,16.2-16.2h249.2c8.1,0,16.2,6.1,16.2,16.2
		v145.8C2137.6-208.8,2135.6-206.7,2131.5-206.7z M1866.2-214.8h261.3v-141.8c0-4.1-2-6.1-6.1-6.1h-249.2c-4.1,0-6.1,2-6.1,6.1
		V-214.8z"/>
	<path class="st0" d="M2018.1-206.7C2018.1-206.7,2016.1-206.7,2018.1-206.7c-4.1,0-4.1-4.1-4.1-6.1l28.4-60.8c2-2,4.1-4.1,6.1-2
		c2,2,2,4.1,2,6.1l-28.4,60.8C2022.1-206.7,2020.1-206.7,2018.1-206.7z"/>
	<path class="st0" d="M2093-206.7c-2,0-4.1-2-4.1-2l-28.4-60.8c-2-2,0-6.1,2-6.1c2-2,6.1,0,6.1,2l28.4,60.8
		C2097.1-210.8,2097.1-206.7,2093-206.7L2093-206.7z"/>
	<path class="st0" d="M2105.2-243.2h-101.3c-2,0-4.1-2-4.1-4.1v-93.2c0-2,2-4.1,4.1-4.1h101.3c2,0,4.1,2,4.1,4.1v93.2
		C2111.3-245.2,2109.2-243.2,2105.2-243.2z M2010-253.3h91.2v-83.1H2010V-253.3z"/>
	<path class="st0" d="M2131.5-214.8h-271.4c-2,0-4.1,2-4.1,4.1v10.1c0,8.1,6.1,16.2,16.2,16.2h60.8v24.3h-24.3c-4.1,0-6.1,2-6.1,6.1
		s2,6.1,6.1,6.1h176.2c4.1,0,6.1-2,6.1-6.1s-2-6.1-6.1-6.1h-22.3v-24.3h60.8c8.1,0,16.2-6.1,16.2-16.2v-10.1
		C2137.6-212.8,2135.6-214.8,2131.5-214.8z M1941.1-184.5h12.2v24.3h-12.2V-184.5z M2030.2-184.5v24.3h-66.8v-24.3H2030.2z
		 M2052.5-160.2h-14.2v-24.3h12.2v24.3H2052.5z M2127.5-200.7c0,4.1-2,6.1-6.1,6.1h-64.8h-22.3h-74.9h-22.3h-64.8
		c-4.1,0-6.1-2-6.1-6.1v-6.1h261.3V-200.7z"/>
	<path class="st0" d="M1886.4-222.9h2c4.1-2,4.1-4.1,4.1-8.1c-6.1-10.1-6.1-20.3-6.1-26.3c-2-14.2,10.1-20.3,24.3-24.3
		c-8.1,10.1-14.2,26.3-14.2,54.7c0,4.1,0,6.1,0,10.1h10.1c0-4.1,0-8.1,0-10.1c0-34.4,10.1-52.7,26.3-56.7
		c12.2,30.4,8.1,54.7,4.1,68.9h10.1c4.1-16.2,6.1-40.5-4.1-68.9c18.2,2,28.4,22.3,28.4,56.7c0,4.1,0,6.1,0,10.1h10.1
		c0-4.1,0-8.1,0-10.1c0-28.4-6.1-44.6-14.2-54.7c10.1,2,16.2,6.1,22.3,10.1c10.1,8.1,20.3,14.2,50.6,8.1c2,0,4.1-2,4.1-6.1
		c-4.1,0-8.1-2-10.1-2c-26.3,6.1-32.4,0-42.5-6.1c-8.1-6.1-20.3-14.2-48.6-14.2v-6.1c12.2-2,20.3-12.2,20.3-26.3
		s-12.2-26.3-26.3-26.3c-14.2,0-24.3,14.2-24.3,28.4c0,12.2,10.1,22.3,20.3,26.3v4.1c-36.5,0-56.7,14.2-56.7,36.5
		c0,8.1,0,18.2,8.1,30.4L1886.4-222.9z M1920.9-322.2c0-10.1,8.1-16.2,16.2-16.2c8.1,0,18.2,6.1,18.2,16.2s-8.1,16.2-16.2,16.2
		C1931-306,1920.9-314.1,1920.9-322.2z"/>
	<path class="st0" d="M2054.6-206.7c-2,0-4.1-2-4.1-4.1v-38.5c0-2,2-4.1,4.1-4.1c2,0,4.1,2,4.1,4.1v38.5
		C2060.6-208.8,2058.6-206.7,2054.6-206.7z"/>
	<path class="st0" d="M2070.8-320.2h-30.4c-2,0-4.1-2-4.1-4.1c0-2,2-4.1,4.1-4.1h30.4c2,0,4.1,2,4.1,4.1
		C2074.8-322.2,2072.8-320.2,2070.8-320.2z"/>
	<path class="st0" d="M2087-297.9h-60.8c-2,0-4.1-2-4.1-4.1s2-4.1,4.1-4.1h60.8c2,0,4.1,2,4.1,4.1S2089-297.9,2087-297.9z"/>
	<path class="st0" d="M2087-277.6h-60.8c-2,0-4.1-2-4.1-4.1c0-2,2-4.1,4.1-4.1h60.8c2,0,4.1,2,4.1,4.1
		C2091-279.7,2089-277.6,2087-277.6z"/>
</g>
<g>
	<path class="st0" d="M1969.1-172.9c-14.2,0-28.4-4.1-40.5-12.2c-2,0-2-2-2-4.1c0-6.1,0-10.1,0-14.2c0-60.8,30.4-66.8,42.5-66.8
		c12.2,0,42.5,6.1,42.5,66.8c0,4.1,0,8.1,0,14.2c0,2,0,2-2,4.1C1999.5-177,1983.3-172.9,1969.1-172.9z M1936.7-191.2
		c18.2,12.2,46.6,12.2,64.8,0c0-4.1,0-8.1,0-12.2c0-36.5-12.2-56.7-32.4-56.7s-32.4,20.3-32.4,56.7
		C1936.7-199.3,1936.7-195.2,1936.7-191.2z M2007.6-189.1L2007.6-189.1L2007.6-189.1z"/>
	<path class="st0" d="M1965.1-235.7c0,2-2,4.1-4.1,4.1s-4.1-2-4.1-4.1s2-4.1,4.1-4.1C1963.1-241.8,1965.1-239.8,1965.1-235.7z"/>
	<path class="st0" d="M1967.1-217.5c0,2-2,4.1-4.1,4.1s-4.1-2-4.1-4.1c0-2,2-4.1,4.1-4.1C1965.1-221.5,1967.1-219.5,1967.1-217.5z"
		/>
	<path class="st0" d="M1965.1-199.3c0,2-2,4.1-4.1,4.1s-4.1-2-4.1-4.1c0-2,2-4.1,4.1-4.1S1965.1-201.3,1965.1-199.3z"/>
	<polygon class="st0" points="1865.8,-237.7 1876,-237.7 1880,-256 1871.9,-256 	"/>
	<path class="st0" d="M1890.1-308.6l-6.1,16.2h10.1l0,0l6.1-16.2H1890.1L1890.1-308.6z"/>
	<path class="st0" d="M1944.8-377.5l20.3,10.1c0-4.1,2-6.1,4.1-8.1l-20.3-10.1C1948.9-383.6,1948.9-381.6,1944.8-377.5z"/>
	<path class="st0" d="M1853.7-308.6c-2,2-6.1,4.1-8.1,4.1l14.2,14.2c2-2,6.1-4.1,10.1-4.1L1853.7-308.6z"/>
	<path class="st0" d="M1871.9-330.9l-16.2,2c0,2,0,2,0,4.1v6.1l16.2-2c0-2,0-2,0-4.1V-330.9z"/>
	<path class="st0" d="M2031.9-326.9l-14.2-16.2c-2,2-6.1,4.1-10.1,4.1l0,0l14.2,16.2C2025.9-324.9,2027.9-326.9,2031.9-326.9z"/>
	<path class="st0" d="M2058.3-345.1l-6.1,18.2h8.1h2l6.1-18.2H2058.3C2060.3-345.1,2058.3-345.1,2058.3-345.1z"/>
	<path class="st0" d="M2046.1-369.4l-22.3,2c0,0,0,0,0,2v8.1l22.3-2l0,0V-369.4z"/>
	<path class="st0" d="M1924.6-373.5h-8.1l0,0l-6.1,18.2h10.1L1924.6-373.5z"/>
	<path class="st0" d="M1967.1-347.1c-2-2-2-4.1-2-8.1v-2l-30.4,10.1c2,2,2,6.1,2,8.1l0,0L1967.1-347.1z"/>
	<path class="st0" d="M2060.3-278.3H2036c-12.2,0-20.3-10.1-20.3-20.3v-8.1c0-12.2,10.1-20.3,20.3-20.3h24.3
		c12.2,0,20.3,10.1,20.3,20.3v6.1C2080.6-288.4,2072.5-278.3,2060.3-278.3z M2034-318.8c-6.1,0-12.2,6.1-12.2,12.2v6.1
		c0,6.1,6.1,12.2,12.2,12.2h24.3c6.1,0,12.2-6.1,12.2-12.2v-6.1c0-6.1-6.1-12.2-12.2-12.2H2034z"/>
	<path class="st0" d="M2007.6-339h-26.3c-8.1,0-16.2-6.1-16.2-16.2v-12.2c0-8.1,6.1-16.2,16.2-16.2h26.3c8.1,0,16.2,6.1,16.2,16.2
		v12.2C2023.8-347.1,2015.7-339,2007.6-339z M1981.3-373.5c-4.1,0-6.1,2-6.1,6.1v12.2c0,4.1,2,6.1,6.1,6.1h26.3c4.1,0,6.1-2,6.1-6.1
		v-12.2c0-4.1-2-6.1-6.1-6.1C2007.6-373.5,1981.3-373.5,1981.3-373.5z"/>
	<path class="st0" d="M1918.5-308.6h-28.4c-10.1,0-18.2-8.1-18.2-18.2V-337c0-10.1,8.1-18.2,18.2-18.2h28.4
		c10.1,0,18.2,8.1,18.2,18.2v12.2C1936.7-316.7,1928.6-308.6,1918.5-308.6z M1890.1-345.1c-4.1,0-8.1,4.1-8.1,8.1v12.2
		c0,4.1,4.1,8.1,8.1,8.1h28.4c4.1,0,8.1-4.1,8.1-8.1V-337c0-4.1-4.1-8.1-8.1-8.1H1890.1z"/>
	<path class="st0" d="M1894.2-256h-24.3c-8.1,0-14.2-6.1-14.2-14.2v-10.1c0-8.1,6.1-14.2,14.2-14.2h24.3c8.1,0,14.2,6.1,14.2,14.2
		v12.2C1906.4-262.1,1902.3-256,1894.2-256z M1869.9-284.3c-2,0-4.1,2-4.1,4.1v12.2c0,2,2,4.1,4.1,4.1h24.3c2,0,4.1-2,4.1-4.1v-12.2
		c0-2-2-4.1-4.1-4.1H1869.9z"/>
	<path class="st0" d="M1843.6-304.6h-20.3c-8.1,0-14.2-6.1-14.2-14.2v-6.1c0-8.1,6.1-14.2,14.2-14.2h20.3c8.1,0,14.2,6.1,14.2,14.2
		v8.1C1857.7-310.7,1851.7-304.6,1843.6-304.6z M1825.3-328.9c-2,0-4.1,2-4.1,4.1v8.1c0,2,2,4.1,4.1,4.1h20.3c2,0,4.1-2,4.1-4.1
		v-8.1c0-2-2-4.1-4.1-4.1C1845.6-328.9,1825.3-328.9,1825.3-328.9z"/>
	<path class="st0" d="M1880-195.2h-32.4c-8.1,0-14.2-6.1-14.2-14.2v-16.2c0-8.1,6.1-14.2,14.2-14.2h32.4c8.1,0,14.2,6.1,14.2,14.2
		v16.2C1894.2-201.3,1888.1-195.2,1880-195.2z M1847.6-229.6c-2,0-4.1,2-4.1,4.1v16.2c0,2,2,4.1,4.1,4.1h32.4c2,0,4.1-2,4.1-4.1
		v-16.2c0-2-2-4.1-4.1-4.1H1847.6z"/>
	<path class="st0" d="M2082.6-345.1h-22.3c-8.1,0-14.2-6.1-14.2-14.2v-14.2c0-8.1,6.1-14.2,14.2-14.2h22.3c8.1,0,14.2,6.1,14.2,14.2
		v12.2C2096.8-353.2,2090.7-345.1,2082.6-345.1z M2060.3-379.5c-4.1,0-6.1,2-6.1,6.1v12.2c0,4.1,2,6.1,6.1,6.1h22.3
		c4.1,0,6.1-2,6.1-6.1v-12.2c0-4.1-2-6.1-6.1-6.1C2082.6-379.5,2060.3-379.5,2060.3-379.5z"/>
	<path class="st0" d="M1934.7-373.5h-20.3c-8.1,0-14.2-6.1-14.2-14.2v-10.1c0-8.1,6.1-14.2,14.2-14.2h20.3c8.1,0,14.2,6.1,14.2,14.2
		v8.1C1950.9-381.6,1942.8-373.5,1934.7-373.5z M1914.5-401.8c-4.1,0-6.1,2-6.1,6.1v8.1c0,4.1,2,6.1,6.1,6.1h20.3
		c4.1,0,6.1-2,6.1-6.1v-10.1c0-4.1-2-6.1-6.1-6.1h-20.3V-401.8z"/>
	<path class="st0" d="M2072.5-260c-2-2-4.1-4.1-6.1-2c-28.4,14.2-34.4,10.1-44.6,4.1c-8.1-4.1-20.3-12.2-46.6-12.2v-4.1
		c12.2-2,20.3-12.2,20.3-26.3s-12.2-26.3-26.3-26.3c-14.2,0-26.3,12.2-26.3,26.3c0,12.2,10.1,22.3,20.3,26.3v4.1
		c-36.5,0-58.7,14.2-58.7,36.5c0,8.1,2,22.3,12.2,38.5c0,2,2,2,4.1,2h2l2-2c0,2,0,4.1,0,6.1l0,0l0,0c0,16.2,2,36.5,6.1,48.6h-6.1
		c-2,0-4.1,2-4.1,4.1s2,4.1,4.1,4.1h12.2c2,0,2,0,4.1-2c0-2,2-2,0-4.1c-2-8.1-6.1-26.3-6.1-44.6c8.1,4.1,20.3,8.1,30.4,8.1l0,0l0,0
		l0,0c12.2,0,22.3-2,32.4-8.1c-2,16.2-4.1,34.4-6.1,44.6c0,2,0,2,0,4.1c0,2,2,2,4.1,2h12.2c2,0,4.1-2,4.1-4.1c0-2-2-4.1-4.1-4.1
		h-6.1c2-12.2,4.1-34.4,6.1-48.6l0,0l0,0c0-6.1,0-10.1,0-14.2c0-28.4-6.1-44.6-14.2-54.7c8.1,2,14.2,6.1,20.3,8.1
		c14.2,8.1,22.3,10.1,54.7-4.1C2072.5-254,2074.5-258,2072.5-260z M1965.1-181c-10.1,0-20.3-4.1-28.4-10.1c0-4.1,0-8.1,0-12.2
		c0-34.4,10.1-52.7,26.3-56.7C1979.3-221.5,1969.1-191.2,1965.1-181z M1952.9-298.5c0-10.1,8.1-16.2,16.2-16.2
		c10.1,0,16.2,8.1,16.2,16.2c0,10.1-8.1,16.2-16.2,16.2C1961-282.3,1952.9-290.4,1952.9-298.5z M1926.6-199.3
		c-10.1-14.2-10.1-24.3-10.1-32.4c0-14.2,12.2-22.3,26.3-24.3c-8.1,10.1-14.2,26.3-14.2,54.7
		C1926.6-201.3,1926.6-199.3,1926.6-199.3L1926.6-199.3z M2001.6-191.2c-8.1,6.1-16.2,8.1-26.3,8.1c4.1-12.2,12.2-42.5-2-77
		c18.2,2,28.4,22.3,28.4,56.7C2003.6-199.3,2003.6-195.2,2001.6-191.2z"/>
</g>
<g>
	<path class="st0" d="M2130.7,633.6C2130.7,633.6,2130.7,633.6,2130.7,633.6l0-87.4l0,0l0,0c0-0.3,0-0.7-0.1-1c0-0.1,0-0.1-0.1-0.2
		c-0.1-0.2-0.1-0.5-0.2-0.7c0,0,0-0.1,0-0.1l-12.4-26.7c-0.8-1.6-2.4-2.7-4.2-2.7c-1.8,0-3.4,1-4.2,2.7l-12.3,26.7c0,0,0,0.1,0,0.1
		c-0.1,0.2-0.2,0.5-0.2,0.7c0,0.1,0,0.1-0.1,0.2c-0.1,0.3-0.1,0.6-0.1,1v0l0,0v87.3c0,0,0,0,0,0.1s0,0,0,0v16.7c0,1.2,0.4,3,2,4.6
		c3.9,3.9,12.5,4.2,15,4.2c8.2,0,17-2.3,17-8.9V633.6C2130.7,633.6,2130.7,633.6,2130.7,633.6z M2106,554.3c3.2,0.7,6.4,0.8,7.7,0.8
		c0,0,0,0,0,0c1.4,0,4.5-0.1,7.7-0.8V632c-1.2,0.5-3.9,1.2-7.7,1.2c0,0,0,0,0,0c-3.9,0-6.5-0.7-7.7-1.2V554.3z M2113.7,530.6
		l6.7,14.4c-1.5,0.4-3.7,0.8-6.7,0.8h0c-3,0-5.2-0.4-6.7-0.8L2113.7,530.6z M2113.7,650c-3.8,0-6.4-0.7-7.7-1.2l0-7.1
		c2.4,0.5,5.1,0.8,7.7,0.8c0,0,0,0,0,0c2.8,0,5.4-0.3,7.7-0.8v7.1C2120.1,649.3,2117.5,650,2113.7,650z"/>
	<path class="st0" d="M1927.5,594.3c-2.6,0-4.6-2.1-4.6-4.6V442.9c0-12.8,10.4-23.3,23.3-23.3c2.6,0,4.6,2.1,4.6,4.6V571
		c0,2.6-2.1,4.6-4.6,4.6c-7.7,0-14,6.3-14,14C1932.2,592.2,1930.1,594.3,1927.5,594.3z M1941.5,429.7c-5.5,1.9-9.4,7.1-9.4,13.2
		v128.2c2.7-2.1,5.9-3.5,9.4-4.2V429.7z"/>
	<path class="st0" d="M2071.1,659.2h-96.8c-2.6,0-4.6-2.1-4.6-4.6V519.5c0-2.6,2.1-4.6,4.6-4.6h96.8c2.5,0,4.6,2.1,4.6,4.6v135.1
		C2075.7,657.2,2073.6,659.2,2071.1,659.2z M1978.9,650h87.5V524.2h-87.5V650z"/>
	<path class="st0" d="M2054.9,563.8h-64.5c-2.6,0-4.6-2.1-4.6-4.6V535c0-2.6,2.1-4.7,4.6-4.7h64.5c2.6,0,4.6,2.1,4.6,4.7v24.2
		C2059.6,561.8,2057.5,563.8,2054.9,563.8z M1995.1,554.5h55.2v-14.9h-55.2V554.5z"/>
	<path class="st0" d="M2003,603.6c-9.5,0-17.3-7.7-17.3-17.2c0-9.5,7.8-17.3,17.3-17.3c9.5,0,17.3,7.7,17.3,17.3
		C2020.3,595.9,2012.5,603.6,2003,603.6z M2003,578.4c-4.4,0-8,3.6-8,8c0,4.4,3.6,8,8,8c4.4,0,8-3.6,8-8
		C2011,581.9,2007.4,578.4,2003,578.4z"/>
	<path class="st0" d="M2042.3,603.6c-9.5,0-17.2-7.7-17.2-17.2c0-9.5,7.8-17.3,17.2-17.3c9.5,0,17.3,7.7,17.3,17.3
		C2059.6,595.9,2051.8,603.6,2042.3,603.6z M2042.3,578.4c-4.4,0-8,3.6-8,8c0,4.4,3.6,8,8,8c4.4,0,8-3.6,8-8
		C2050.3,581.9,2046.7,578.4,2042.3,578.4z"/>
	<path class="st0" d="M2003,643.4c-9.5,0-17.3-7.7-17.3-17.2c0-9.5,7.8-17.3,17.3-17.3c9.5,0,17.3,7.7,17.3,17.3
		C2020.3,635.7,2012.5,643.4,2003,643.4z M2003,618.2c-4.4,0-8,3.6-8,8c0,4.4,3.6,8,8,8c4.4,0,8-3.6,8-8
		C2011,621.8,2007.4,618.2,2003,618.2z"/>
	<path class="st0" d="M2042.3,643.4c-9.5,0-17.2-7.7-17.2-17.2c0-9.5,7.8-17.3,17.2-17.3c9.5,0,17.3,7.7,17.3,17.3
		C2059.6,635.7,2051.8,643.4,2042.3,643.4z M2042.3,618.2c-4.4,0-8,3.6-8,8c0,4.4,3.6,8,8,8c4.4,0,8-3.6,8-8
		C2050.3,621.8,2046.7,618.2,2042.3,618.2z"/>
	<path class="st0" d="M2121.7,460.9h-17.4l0,0l0,0h-21.6l0,0h0H2061l0,0c0,0,0,0,0,0h-21.6l0,0l0,0h-21.6l0,0c0,0,0,0,0,0h-21.6h0
		l0,0h-17.4l0,0c-2.4,0-4.7,0.9-6.4,2.6c-1.7,1.7-2.7,4-2.7,6.4v21.4c0,5,4.1,9,9,9h143c2.4,0,4.7-0.9,6.4-2.7
		c1.7-1.7,2.7-3.9,2.6-6.4v-21.4C2130.7,464.9,2126.7,460.9,2121.7,460.9z M2121.4,491h-142.5v-20.9h12.5v10.4
		c0,2.6,2.1,4.6,4.6,4.6c2.6,0,4.6-2.1,4.6-4.6v-10.4h12.4v5.8c0,2.6,2.1,4.6,4.6,4.6c2.6,0,4.6-2.1,4.6-4.6v-5.8h12.4v10.4
		c0,2.6,2.1,4.6,4.6,4.6c2.6,0,4.6-2.1,4.6-4.6v-10.4h12.4v5.8c0,2.6,2.1,4.6,4.6,4.6c2.5,0,4.6-2.1,4.6-4.6v-5.8h12.4v10.4
		c0,2.6,2.1,4.6,4.6,4.6c2.6,0,4.6-2.1,4.6-4.6v-10.4h12.4v5.8c0,2.6,2.1,4.6,4.6,4.6c2.6,0,4.6-2.1,4.6-4.6v-5.8h12.5V491z"/>
	<path class="st0" d="M2148.2,438.2h-220.6c-2.6,0-4.6,2.1-4.6,4.6v146.8c0,12.8,10.4,23.3,23.3,23.3h23.5v-9.3h-23.5
		c-7.7,0-14-6.3-14-14V447.5h211.3v156.2h-12.8v9.3h17.5c2.6,0,4.6-2.1,4.6-4.6V442.9C2152.8,440.3,2150.7,438.2,2148.2,438.2z"/>
	<rect x="2075.7" y="603.7" class="st0" width="21" height="9.3"/>
</g>
<g>
	<path class="st0" d="M1951.7-153.6h-29.4c-2.6,0-4.6-2.1-4.6-4.6c0-2.6,2.1-4.6,4.6-4.6h29.4c2.6,0,4.6,2.1,4.6,4.6
		C1956.3-155.7,1954.2-153.6,1951.7-153.6z"/>
	<path class="st0" d="M1955.6-133.4H1912c-2.6,0-4.6-2.1-4.6-4.7c0-2.6,2.1-4.6,4.6-4.6h43.6c2.5,0,4.6,2.1,4.6,4.6
		C1960.2-135.4,1958.1-133.4,1955.6-133.4z"/>
	<path class="st0" d="M2140.5-108.2c0-0.1,0-0.1,0-0.2c-0.1-0.4-0.2-0.7-0.3-1c0,0,0-0.1,0-0.1l-32.4-68.1v-163.3
		c0-2.6-2.1-4.6-4.6-4.6h-197.2c-2.6,0-4.6,2.1-4.6,4.6v163.3l-32.4,68.1c0,0,0,0,0,0.1c-0.1,0.3-0.3,0.7-0.3,1c0,0.1,0,0.1,0,0.2
		c-0.1,0.2-0.1,0.5-0.1,0.7V-90c0,2.6,2.1,4.6,4.6,4.6h263c2.6,0,4.6-2.1,4.6-4.6v-17.6C2140.5-107.8,2140.5-108,2140.5-108.2z
		 M1910.4-336.2h188v155.1h-188V-336.2z M1908.7-171.9h191.4l28.4,59.7h-248.3L1908.7-171.9z M2131.2-94.6h-253.7v-8.3h253.7V-94.6z
		"/>
	<path class="st0" d="M2078.5-119h-109.9c-1.8,0-3.5-1.1-4.3-2.8c-0.7-1.7-0.4-3.6,0.8-5c7.6-8.3,7.6-21.8,0-30.2
		c-1.2-1.4-1.5-3.3-0.8-5c0.7-1.7,2.4-2.8,4.3-2.8h109.9c2.6,0,4.6,2.1,4.6,4.7v36.4C2083.1-121.1,2081-119,2078.5-119z
		 M1977.1-128.3h96.7v-27.1h-96.7C1981-146.9,1981-136.8,1977.1-128.3z"/>
	<path class="st0" d="M2058.8-137.2H1993c-2.6,0-4.6-2.1-4.6-4.6c0-2.6,2.1-4.6,4.6-4.6h65.7c2.6,0,4.6,2.1,4.6,4.6
		C2063.4-139.3,2061.3-137.2,2058.8-137.2z"/>
	<path class="st0" d="M2050.6-171.9h-109.9c-1.7,0-3.3-1-4.1-2.4c-0.8-1.5-0.7-3.3,0.2-4.8c8.1-12.1,8.1-32.5,0-44.6
		c-0.5-0.8-0.8-1.7-0.8-2.6c0-4.6,3.3-4.6,9.4-4.6h105.2c2.6,0,4.6,2.1,4.6,4.6v49.8C2055.2-174,2053.2-171.9,2050.6-171.9z
		 M1948.4-181.1h97.6v-40.5c-17,0-76.3,0-97.6,0C1953.6-209.2,1953.6-193.6,1948.4-181.1z"/>
	<path class="st0" d="M2086.6-329.1h-164.3c-2.6,0-4.6,2.1-4.6,4.6V-193c0,2.6,2.1,4.6,4.6,4.6h18.8c0.9-2.9,1.4-6.1,1.7-9.3h-15.9
		v-122.2H2082v122.2h-26.7v9.3h31.3c2.6,0,4.6-2.1,4.6-4.6v-131.5C2091.2-327,2089.2-329.1,2086.6-329.1z"/>
	<path class="st0" d="M2082.7-161.8l-17-42.2c-0.7-1.8-2.4-2.9-4.3-2.9h-6.2v9.3h3.1l13.3,32.9h-96.2l2.9-7.2h-10l-4.1,10.1
		c-0.6,1.4-0.4,3,0.5,4.3c0.9,1.3,2.3,2.1,3.9,2.1h109.9c1.5,0,3-0.8,3.8-2.1C2083.1-158.7,2083.3-160.4,2082.7-161.8z"/>
	<path class="st0" d="M2033.3-188.3h-70.1c-2.6,0-4.6-2.1-4.6-4.6c0-2.6,2.1-4.6,4.6-4.6h70.1c2.5,0,4.6,2.1,4.6,4.6
		C2037.9-190.3,2035.8-188.3,2033.3-188.3z"/>
	<path class="st0" d="M2033.3-205.3h-70.1c-2.6,0-4.6-2.1-4.6-4.6c0-2.6,2.1-4.6,4.6-4.6h70.1c2.5,0,4.6,2.1,4.6,4.6
		C2037.9-207.4,2035.8-205.3,2033.3-205.3z"/>
	<path class="st0" d="M2050.6-221.7h-109.9c-1.5,0-3-0.8-3.9-2c-0.9-1.3-1-2.9-0.5-4.3l17-42.2c0.7-1.8,2.4-2.9,4.3-2.9h75.9
		c1.9,0,3.6,1.1,4.3,2.9l17,42.2c0.6,1.4,0.4,3-0.5,4.3C2053.6-222.4,2052.2-221.7,2050.6-221.7z M1947.6-231h96.2l-13.2-32.9h-69.7
		L1947.6-231z"/>
</g>
<g>
	<path class="st0" d="M2007.1,646.3c-0.4,0-0.9-0.1-1.3-0.2c-44.8-13.5-76.2-55.6-76.2-102.5c0-46.8,31.3-88.9,76-102.4
		c2.5-0.7,5,0.7,5.8,3.1c0.7,2.4-0.7,5-3.1,5.8c-40.9,12.3-69.4,50.8-69.4,93.5c0,42.8,28.6,81.3,69.6,93.6c2.5,0.7,3.8,3.3,3.1,5.8
		C2010.9,645,2009.1,646.3,2007.1,646.3z"/>
	<path class="st0" d="M1997.8,452.3c-4.8,0-9.9-1.5-15.1-4.5c-1.4-0.8-2.3-2.2-2.3-3.8c-0.4-9.9,2.5-17.5,8.6-22.5
		c12.5-10.3,33.8-5.3,34.7-5c1.2,0.3,2.2,1,2.9,2.1c0.7,1,0.8,2.3,0.5,3.5c-0.2,0.9-5.5,22.1-20.4,28.5
		C2003.9,451.7,2000.9,452.3,1997.8,452.3z M1989.6,441c5,2.4,9.4,2.7,13.4,1c6.7-2.9,11.2-11.3,13.5-17.4c-6.4-0.7-16-0.6-21.6,4
		C1991.6,431.4,1989.8,435.4,1989.6,441z"/>
	<path class="st0" d="M1931.3,520.4c-0.6,0-1.2-0.1-1.7-0.3c-9.2-3.7-14.9-9.5-16.9-17.2c-4.2-15.6,9.2-32.9,9.8-33.6
		c0.8-1,1.9-1.6,3.1-1.7c1.2-0.1,2.5,0.2,3.4,1c0.7,0.6,17.8,14.2,17.5,30.4c-0.2,8-4.4,14.9-12.4,20.7
		C1933.2,520.1,1932.3,520.4,1931.3,520.4z M1926.9,479.2c-3.3,5.6-7.2,14.4-5.3,21.4c1.1,4.1,4.1,7.4,9.1,9.9
		c4.3-3.6,6.4-7.5,6.5-11.8C1937.3,491.4,1931.5,483.8,1926.9,479.2z"/>
	<path class="st0" d="M1932.8,600.2c-3.7,0-7.3-0.9-10.6-2.6c-14.3-7.6-17.9-29.1-18.1-30c-0.2-1.2,0.1-2.5,0.8-3.5
		c0.7-1,1.8-1.6,3-1.9c0.9-0.1,22.5-3.4,34.2,7.8c5.7,5.5,8,13.3,6.8,23.1c-0.2,1.6-1.2,3-2.6,3.6
		C1941.5,599.1,1937,600.2,1932.8,600.2z M1944.3,592.6L1944.3,592.6L1944.3,592.6z M1914.4,571c1.8,6.2,5.7,15,12.1,18.4
		c3.8,2,8.2,2,13.4,0.1c0.3-5.6-1.1-9.8-4.2-12.7C1930.5,571.7,1920.9,570.8,1914.4,571z"/>
	<path class="st0" d="M1984.2,663.8c-14.2,0-27.6-11.8-28.2-12.3c-0.9-0.8-1.5-2-1.5-3.2c-0.1-1.2,0.4-2.4,1.2-3.3
		c0.6-0.7,15.3-16.8,31.4-15.5c7.9,0.7,14.6,5.3,19.9,13.7c0.8,1.3,0.9,3,0.2,4.5c-4.3,8.9-10.4,14.3-18.2,15.8
		C1987.4,663.7,1985.8,663.8,1984.2,663.8z M1966.1,647.6c5.3,3.7,13.9,8.1,21,6.6c4.2-0.8,7.6-3.6,10.4-8.4
		c-3.3-4.5-7-6.8-11.3-7.2C1978.9,638,1971,643.4,1966.1,647.6z"/>
	<path class="st0" d="M2065.9,646.3c-2,0-3.8-1.3-4.4-3.3c-0.8-2.5,0.6-5,3.1-5.8c41-12.3,69.6-50.8,69.6-93.6
		c0-42.7-28.5-81.2-69.4-93.5c-2.5-0.8-3.9-3.3-3.1-5.8c0.8-2.5,3.3-3.8,5.8-3.1c44.7,13.5,76,55.6,76,102.4
		c0,46.9-31.3,89-76.2,102.5C2066.8,646.2,2066.4,646.3,2065.9,646.3z"/>
	<path class="st0" d="M2075.1,452.3c-3.1,0-6-0.6-8.8-1.8c-14.9-6.4-20.2-27.6-20.4-28.5c-0.3-1.2-0.1-2.5,0.6-3.5
		c0.6-1,1.7-1.8,2.9-2.1c0.9-0.2,22.1-5.2,34.7,5c6.1,5,9,12.6,8.6,22.5c-0.1,1.6-1,3-2.3,3.8C2085,450.8,2080,452.3,2075.1,452.3z
		 M2088,443.8L2088,443.8L2088,443.8z M2056.5,424.6c2.3,6.1,6.8,14.5,13.5,17.4c4,1.7,8.3,1.3,13.4-1c-0.2-5.6-1.9-9.6-5.3-12.3
		C2072.4,424,2062.9,423.9,2056.5,424.6z"/>
	<path class="st0" d="M2141.7,520.4c-1,0-1.9-0.3-2.7-0.9c-8-5.8-12.2-12.8-12.4-20.7c-0.3-16.2,16.8-29.8,17.5-30.4
		c1-0.8,2.2-1.1,3.4-1c1.2,0.2,2.3,0.8,3.1,1.7c0.6,0.7,13.9,18,9.8,33.6c-2,7.7-7.7,13.5-16.9,17.2
		C2142.8,520.3,2142.3,520.4,2141.7,520.4z M2146.1,479.2c-4.5,4.6-10.4,12.2-10.2,19.5c0.1,4.3,2.2,8.1,6.4,11.7
		c5-2.5,8-5.7,9.1-9.9C2153.2,493.5,2149.4,484.7,2146.1,479.2z"/>
	<path class="st0" d="M2143,600.2c-4.3,0-8.8-1.1-13.6-3.4c-1.4-0.7-2.5-2.1-2.6-3.6c-1.2-9.8,1.1-17.6,6.8-23.1
		c11.7-11.2,33.3-7.9,34.2-7.8c1.2,0.2,2.3,0.9,3,1.9c0.7,1,1,2.3,0.8,3.5c-0.1,0.9-3.8,22.5-18.1,30
		C2150.2,599.3,2146.7,600.2,2143,600.2z M2135.8,589.4c5.2,2,9.6,1.9,13.4-0.1c6.4-3.4,10.3-12.2,12.1-18.4
		c-6.5-0.2-16,0.7-21.3,5.7C2136.9,579.7,2135.5,583.9,2135.8,589.4z"/>
	<path class="st0" d="M2088.8,663.8c-1.6,0-3.1-0.1-4.7-0.5c-7.8-1.5-13.9-6.9-18.2-15.8c-0.7-1.4-0.6-3.1,0.3-4.5
		c5.3-8.4,11.9-13,19.9-13.7c16.1-1.3,30.8,14.8,31.4,15.5c0.8,0.9,1.2,2.1,1.2,3.3c-0.1,1.2-0.6,2.4-1.5,3.2
		C2116.4,652,2103,663.8,2088.8,663.8z M2075.4,645.9c2.8,4.8,6.2,7.6,10.4,8.4c7.1,1.4,15.6-3,21-6.6c-4.9-4.2-12.9-9.6-20.1-8.9
		C2082.4,639.1,2078.7,641.4,2075.4,645.9z"/>
	<path class="st0" d="M2088.8,663.8c-6.9,0-16.5-2.8-23-16.3c-0.7-1.4-0.6-3.1,0.3-4.5c7.1-11.4,15.8-13.7,21.8-13.7
		c15.3,0,28.9,15,29.4,15.6c0.8,0.9,1.2,2.1,1.2,3.3c-0.1,1.2-0.6,2.4-1.5,3.2C2116.4,652,2103,663.8,2088.8,663.8z M2075.4,645.9
		c3.4,5.9,7.8,8.7,13.4,8.7c6.8,0,13.8-4,18-6.9c-4.2-3.7-11.6-9-18.9-9C2083.1,638.6,2079,641,2075.4,645.9z"/>
	<path class="st0" d="M2151.7,531.6l-114-31.8c-0.8-0.2-1.7-0.2-2.5,0l-114,31.8c-2,0.6-3.4,2.4-3.4,4.5c0,2.1,1.4,3.9,3.4,4.5
		l114,31.9c0.4,0.1,0.8,0.2,1.2,0.2c0.4,0,0.8,0,1.2-0.2l37.8-10.6l0.6,47.6c-0.9,1-1.4,2.4-1.4,3.9c0,3.3,2.7,6.1,6.1,6.1
		s6.1-2.7,6.1-6.1c0-1.5-0.6-2.9-1.5-4l-0.6-50.1l66.9-18.7c2-0.6,3.4-2.4,3.4-4.5C2155.1,534,2153.7,532.2,2151.7,531.6z
		 M2080.5,550.8l-42.1-19c-2.3-1-5.1,0-6.1,2.3c-1,2.3,0,5.1,2.3,6.1l32,14.4l-30.1,8.4l-96.7-27l96.7-27.1l96.7,27.1L2080.5,550.8z
		"/>
	<path class="st0" d="M2107.8,552.8l-9.3,2.6v14.9c0,0.1,0,0.1,0,0.1l0,0.2c0,4.9-4.8,10.1-13.4,14.4l0.1,10.2
		c14-6,22.5-14.7,22.5-24.6c0-0.1,0-0.3,0-0.5V552.8z"/>
	<path class="st0" d="M2075.9,588.8c-10.4,3.5-23.9,5.8-39.4,5.8c-36.5,0-62-12.6-62-23.9v-15.3l-9.3-2.6v17.8
		c0,18.9,30.7,33.2,71.3,33.2c14.9,0,28.4-1.9,39.6-5.3L2075.9,588.8z"/>
</g>
<g>
	<path class="st0" d="M1994.8,529c-0.7,0-1.5-0.2-2.1-0.5l-32.3-16.9c-4.9,0.8-10,1.3-15.1,1.3c-36.7,0-66.6-22-66.6-49.1
		c0-27.1,29.9-49.1,66.6-49.1c36.7,0,66.6,22,66.6,49.1c0,12.4-6.1,24.1-17.3,33.1l4.8,26.7c0.3,1.7-0.4,3.5-1.8,4.5
		C1996.7,528.7,1995.7,529,1994.8,529z M1961.1,502.1c0.8,0,1.5,0.2,2.1,0.5l25.3,13.2l-3.7-20.2c-0.3-1.7,0.4-3.5,1.8-4.6
		c10.2-7.5,15.9-17.2,15.9-27.4c0-22-25.7-39.8-57.3-39.8c-31.6,0-57.3,17.9-57.3,39.8c0,22,25.7,39.9,57.3,39.9
		c5.1,0,10.1-0.5,15-1.4C1960.5,502.1,1960.8,502.1,1961.1,502.1z"/>
	<path class="st0" d="M1922.3,491.1c-1.2,0-2.4-0.5-3.3-1.4c-1.8-1.8-1.8-4.7,0-6.6l45.8-45.8c1.8-1.8,4.7-1.8,6.6,0
		c1.8,1.8,1.8,4.7,0,6.6l-45.8,45.8C1924.7,490.7,1923.5,491.1,1922.3,491.1z"/>
	<path class="st0" d="M1929.8,461L1929.8,461c-3.3,0-6.5-1.3-8.8-3.7c-4.8-4.8-4.8-12.8,0-17.6c4.9-4.9,12.8-4.9,17.7,0
		c2.4,2.3,3.6,5.5,3.6,8.8c0,3.3-1.3,6.5-3.6,8.8l0,0C1936.3,459.7,1933.2,461,1929.8,461z M1929.8,445.4c-0.8,0-1.6,0.3-2.3,0.9
		c-1.2,1.2-1.2,3.3,0,4.5c0.6,0.6,1.4,0.9,2.3,0.9l0,0c0.9,0,1.7-0.3,2.3-0.9l0,0c0.6-0.6,0.9-1.4,0.9-2.3c0-0.9-0.4-1.6-0.9-2.3
		C1931.5,445.7,1930.7,445.4,1929.8,445.4z"/>
	<path class="st0" d="M1960.3,491.1c-6.9,0-12.5-5.6-12.5-12.5c0-6.9,5.6-12.5,12.5-12.5c3.3,0,6.4,1.3,8.8,3.7
		c2.4,2.4,3.7,5.5,3.7,8.8l0,0l0,0c0,3.3-1.3,6.5-3.7,8.8S1963.6,491.1,1960.3,491.1z M1960.3,475.4c-1.8,0-3.2,1.4-3.2,3.2
		c0,1.8,1.4,3.2,3.2,3.2c0.9,0,1.6-0.3,2.3-1c0.6-0.6,0.9-1.4,0.9-2.3l0,0c0-0.9-0.3-1.7-0.9-2.3
		C1961.9,475.8,1961.1,475.4,1960.3,475.4z"/>
	<path class="st0" d="M2080.9,592c-1,0-1.9-0.3-2.7-0.9c-1.4-1-2.1-2.8-1.8-4.6l4.8-26.7c-11.2-9-17.3-20.7-17.3-33.1
		c0-27.1,29.9-49.1,66.6-49.1c36.7,0,66.6,22,66.6,49.1c0,27.1-29.9,49.1-66.6,49.1c-5.1,0-10.2-0.4-15.1-1.3l-32.3,16.9
		C2082.4,591.8,2081.7,592,2080.9,592z M2130.5,486.9c-31.6,0-57.3,17.9-57.3,39.8c0,10.2,5.6,19.9,15.8,27.4c1.4,1,2.1,2.8,1.8,4.6
		l-3.6,20.1l25.3-13.2c0.9-0.5,2-0.6,3-0.5c4.9,0.9,9.9,1.4,15,1.4c31.6,0,57.3-17.9,57.3-39.9
		C2187.8,504.7,2162.1,486.9,2130.5,486.9z"/>
	<path class="st0" d="M2107.9,554.1c-1.2,0-2.4-0.5-3.3-1.4c-1.8-1.8-1.8-4.7,0-6.6l45.8-45.8c1.8-1.8,4.7-1.8,6.5,0
		c1.8,1.8,1.8,4.7,0,6.6l-45.8,45.8C2110.3,553.6,2109.1,554.1,2107.9,554.1z"/>
	<path class="st0" d="M2115.5,524L2115.5,524c-3.4,0-6.5-1.3-8.8-3.7c-4.9-4.9-4.9-12.8,0-17.6c4.8-4.9,12.8-4.9,17.6,0
		c2.4,2.4,3.7,5.5,3.7,8.8c0,3.3-1.3,6.5-3.7,8.8l0,0C2121.9,522.7,2118.8,524,2115.5,524z M2115.5,508.3c-0.8,0-1.6,0.3-2.3,0.9
		c-1.2,1.3-1.2,3.3,0,4.5c0.6,0.6,1.4,0.9,2.3,0.9l0,0c0.9,0,1.6-0.3,2.3-0.9l0,0c0.6-0.6,0.9-1.4,0.9-2.3c0-0.9-0.3-1.6-0.9-2.3
		C2117.1,508.6,2116.3,508.3,2115.5,508.3z"/>
	<path class="st0" d="M2145.9,554.1c-6.9,0-12.5-5.6-12.5-12.5c0-6.9,5.6-12.5,12.5-12.5c3.3,0,6.5,1.3,8.8,3.6
		c2.4,2.4,3.7,5.5,3.7,8.8l0,0l0,0c0,3.3-1.3,6.5-3.7,8.8C2152.3,552.8,2149.2,554.1,2145.9,554.1z M2145.9,538.4
		c-1.7,0-3.2,1.4-3.2,3.2c0,1.8,1.4,3.2,3.2,3.2c0.9,0,1.7-0.3,2.3-0.9c0.6-0.6,0.9-1.4,0.9-2.3l0,0c0-0.9-0.3-1.7-0.9-2.3
		C2147.5,538.8,2146.7,538.4,2145.9,538.4z"/>
	<path class="st0" d="M2115.4,574.5l-5.4,2.9c-0.8,12.6-4.5,24.8-10.8,35.8c-5.5,9.5-12.5,17.6-21.1,24.2c-0.1-0.1-0.1-0.2-0.2-0.3
		c-0.1-0.1-0.1-0.2-0.1-0.3c-0.3-0.5-0.6-1.1-0.9-1.6c-0.1-0.1-0.1-0.2-0.2-0.3c-0.4-0.5-0.8-1.1-1.3-1.6c-0.1-0.1-0.2-0.1-0.2-0.2
		c-0.5-0.6-1.1-1.1-1.8-1.6c0,0-0.1-0.1-0.1-0.1c-0.7-0.6-1.5-1.1-2.4-1.6c-2-1.1-2.8-2-3.1-2.3c-0.1-0.1-0.1-0.2-0.1-0.2
		c0.1-0.9,2.2-3.3,3.5-4.6c2.6-2.8,5.5-6.1,6.6-10.2c2.5-8.8-2.9-19.8-11-22.3c-3.9-1.2-8.8-0.3-12.1,5.1c-0.8,1.2-1.5,2.7-2.1,4.5
		c-2.7,8.3-6.2,10.1-7.6,9.9c-2.6-1.3-11.5-5.1-18-2.7c-5.1,1.9-8,3.8-10.6,5.5c-1.3,0.9-2.6,1.7-4.1,2.5c-2,1-4.2,1.4-5.3,0.8
		c-0.9-0.5-1.6-2.3-1.7-4.8c-0.2-2.8,1-5.6,3.4-8.2c3.6-4,8.7-6.1,10.5-6.2c0.2,0,0.4,0,0.6-0.1c3.5-0.6,6.5-3.6,8.1-8.1
		c1.6-4.6,1.8-11.3-2.5-16.2c-1.8-2-2.2-4-1.4-5.9c1.1-2.5,4.2-4.1,8.1-4.1c6.7,0,8.1,2.5,12.1,9.6c0.7,1.2,1.5,2.6,2.3,4
		c2.7,4.5,7.7,7.1,13,6.5c4.9-0.5,8.8-3.4,10.2-7.5c0.9-2.7,1.5-8.3-5.2-14.8c-1.3-1.3-1.6-2-1.6-2c0.5-1.1,4.2-3.3,6.2-4.5
		c1.2-0.7,2.5-1.5,3.8-2.3c-2-2.5-3.6-5.1-4.9-7.9c-1.1,0.7-2.3,1.4-3.5,2.2c-4.7,2.8-10,5.9-10.7,11.3c-0.4,3.3,1.1,6.6,4.4,9.8
		c2.7,2.7,3.1,4.5,2.9,5.1c-0.2,0.5-1.1,1.2-2.4,1.3c-0.8,0.1-2.9,0-4.1-2c-0.8-1.4-1.5-2.6-2.2-3.8c-4.3-7.6-8-14.2-20.2-14.3
		c-0.1,0-0.1,0-0.2,0c-2.7,0-5.3,0.5-7.7,1.5h0c-0.5,0.2-1,0.5-1.5,0.7c-0.3,0.1-0.6,0.2-0.8,0.4c-0.2,0.1-0.3,0.2-0.5,0.3
		c-2.7,1.7-4.8,3.9-6,6.7c-2.4,5.3-1.3,11.2,2.9,15.9c1.4,1.6,1.3,4,1.2,4.9c-0.2,2.1-1.1,3.6-1.6,4.1c-4.5,0.5-11.3,3.8-16.2,9.2
		c-4.1,4.5-6,9.7-5.7,15c0.4,7.5,3.7,10.9,6.4,12.4c3.9,2.2,9.2,1.9,14.1-0.7c1.9-1,3.4-2,4.9-2.9c2.4-1.6,4.6-3,8.8-4.6
		c2.3-0.8,7.8,0.9,11,2.5c0.2,0.1,0.4,0.2,0.6,0.2c0.7,0.2,4.3,1.3,8.7-0.9c4.7-2.3,8.3-7.3,10.8-14.9c0.1-0.4,1.3-4.1,2.7-3.6
		c2.6,0.8,6,6.5,4.7,10.9c-0.6,2.1-2.6,4.4-4.6,6.6c-3.1,3.4-6.5,7.3-5.7,12.3c0.1,0.9,0.4,1.7,0.8,2.5c0.7,1.3,1.7,2.6,3,3.8
		c1.1,1,2.4,1.9,4,2.8c0.4,0.2,0.7,0.5,1.1,0.7c0.1,0.1,0.2,0.1,0.3,0.2c0.2,0.2,0.4,0.3,0.6,0.5c0.1,0.1,0.2,0.2,0.2,0.2
		c0.2,0.2,0.3,0.4,0.5,0.5c0,0,0.1,0.1,0.2,0.2c0.2,0.2,0.3,0.5,0.4,0.7c0,0.1,0,0.1,0.1,0.2c0.1,0.2,0.2,0.4,0.2,0.6
		c0,0.1,0.1,0.2,0.1,0.3c0,0.2,0.1,0.4,0.1,0.5c0,0.1,0.1,0.2,0.1,0.3c0,0,0,0.1,0,0.1c-25.9,15.6-57.9,16.1-84.3,0.9
		c-17-9.8-29.8-25-36.5-43.3c0.1,0,0.2,0,0.3,0c0.6,0,1.2,0,1.8,0c0.2,0,0.3,0,0.5,0.1c0.7,0.1,1.3,0.2,1.9,0.4
		c0.1,0,0.2,0.1,0.3,0.1c0.5,0.2,0.9,0.4,1.3,0.7c0.1,0.1,0.3,0.2,0.4,0.3c0.5,0.4,0.9,0.8,1.2,1.2c0.6,0.8,1.3,1.5,2,2.1
		c0.2,0.2,0.4,0.3,0.6,0.5c0.6,0.4,1.1,0.8,1.8,1.1c0.2,0.1,0.4,0.3,0.6,0.4c0.8,0.4,1.7,0.7,2.6,0.9c0.2,0,0.3,0,0.5,0.1
		c0.7,0.1,1.5,0.2,2.3,0.3c0.2,0,0.3,0,0.4,0c0.2,0,0.3,0,0.5-0.1c0.6,0,1.3-0.1,1.9-0.2c0.3-0.1,0.6-0.1,0.9-0.2
		c0.9-0.2,1.9-0.4,2.8-0.8c9.1-3.3,18.9-14.2,18.5-23.7c-0.2-5.3-3.5-9.2-9-10.7c-3.8-1.1-4.4-2.1-4.4-2.1c-0.3-0.7,0.6-3.1,1.2-4.5
		c1.7-4.5,5.3-13.8-7-18.8c-4.8-2-5.8-4-5.6-4.4c0.5-1.2,4.5-3.2,11.2-0.8c4.9,1.8,19.8,7.3,30-6.1c5-6.5,7.7-13.6,9.2-19.1
		c6.8,5.9,17.8,13.9,27.2,13.4c4.3-0.2,7.9-2.2,10.4-5.6c5.2-6.9,4.4-12.2,2.7-15.4c-2.3-4.5-7.3-6.9-11-8c0-0.2,0-0.5,0-0.8
		c0-0.2,0-0.3,0-0.5c0-0.2,0-0.3,0-0.4c0-0.2,0-0.4,0-0.7c0-0.2,0-0.3,0-0.5c0-0.9,0-2,0-3.2c0-0.2,0-0.4,0-0.7c0-0.4,0-0.7,0-1.1
		c0-0.3,0-0.7,0-1.1c0-0.3,0-0.7,0-1c0-0.1,0-0.1,0-0.2c7.4,1.9,14.5,4.7,21.1,8.6c1.4,0.8,2.7,1.6,4.1,2.5c1.9-2.4,4-4.7,6.4-6.9
		c-1.9-1.3-3.9-2.6-5.9-3.7c-9.1-5.2-19-8.9-29.3-10.8c-12.4-2.3-24.9-1.9-36.8,0.8c-2.5,4.6-5.9,8.8-10.1,12.7
		c12.9-5,27-6.9,41.2-5c0,0.5,0,1-0.1,1.5c0,0.4,0,0.8-0.1,1.2c0,0.7,0,1.4-0.1,2c0,0.2,0,0.5,0,0.7c0,0.8,0,1.6,0,2.4
		c0,0.1,0,0.2,0,0.3c0,0.6,0,1.2,0,1.8c0,0.2,0,0.3,0,0.5c0,0.4,0,0.8,0,1.2c0,0.2,0,0.4,0,0.5c0,0.3,0,0.7,0.1,1c0,0.2,0,0.3,0,0.5
		c0,0.3,0.1,0.6,0.1,0.8c0,0.2,0,0.3,0.1,0.4c0,0.2,0,0.5,0.1,0.6c0,0.1,0,0.2,0.1,0.4c0,0.2,0.1,0.4,0.1,0.5c0,0.1,0.1,0.2,0.1,0.3
		c0.1,0.2,0.1,0.3,0.1,0.4c0,0.1,0.1,0.2,0.1,0.2c0,0.1,0.1,0.2,0.1,0.3c0,0.1,0.1,0.1,0.1,0.2c0,0.1,0.1,0.2,0.1,0.3
		c0,0.1,0.1,0.1,0.1,0.2c0.1,0.1,0.1,0.2,0.2,0.3c0,0,0.1,0.1,0.1,0.1c0.1,0.1,0.1,0.2,0.2,0.2c0,0,0,0,0,0.1
		c0.1,0.1,0.2,0.2,0.3,0.3c1,1,2.5,1.6,3.7,1.5c1.2,0.1,5.3,1.4,6.3,3.6c0.7,1.6-0.9,4.1-1.9,5.4c-0.9,1.2-2,1.8-3.6,1.9
		c-7.3,0.5-19.9-9.9-26.2-16.5c-1.3-1.3-3.2-1.8-4.9-1.2c-1.7,0.6-2.9,2.1-3.1,4c0,0.1-1.3,12.8-9.1,23c-5.3,7-12.5,5.6-19.6,3
		c-11.3-4.2-20.5-0.1-22.9,6.2c-1.9,4.8-0.1,11.9,10.8,16.4c3.9,1.6,3.7,2,1.8,6.9c-1.3,3.4-3,7.7-0.8,12c1.6,3.2,4.9,5.4,10.2,6.9
		c2.2,0.6,2.3,1.5,2.3,2.2c0.2,4.3-6,12.3-12.4,14.7c-2.1,0.8-3.6,0.7-4.5,0.3c-1-0.4-1.5-1.1-1.8-1.5c-0.6-0.7-1.2-1.3-1.8-2
		c-0.2-0.2-0.4-0.3-0.6-0.5c-0.5-0.4-0.9-0.8-1.4-1.1c-0.3-0.2-0.6-0.3-0.8-0.5c-0.5-0.3-1-0.5-1.5-0.8c-0.3-0.1-0.6-0.3-0.9-0.4
		c-0.6-0.2-1.2-0.4-1.8-0.5c-0.3-0.1-0.6-0.2-0.8-0.2c-1.8-0.4-3.7-0.5-5.7-0.4c-0.3,0-0.6,0.1-0.9,0.1c-0.5,0.1-1,0.1-1.6,0.2
		c-5.1-20.8-2.1-42.3,8.7-61c3.3-5.7,7.2-10.9,11.6-15.5l-6.5-3.4c-1.1,0.2-2.2,0.3-3.3,0.5c-3.6,4.2-6.9,8.8-9.8,13.8
		c-12.8,22.2-15.7,47.9-8.4,72.4c0,0,0,0,0,0c6.8,22.7,21.8,41.7,42.4,53.5c14.3,8.3,30.2,12.3,46,12.3c17.5,0,35-5,50.4-15.1
		c0,0,0,0,0,0c12.3-8,22.2-18.5,29.6-31.3c7.5-13.1,11.7-27.8,12.2-42.7C2118.1,575,2116.7,574.8,2115.4,574.5z M2043.8,501
		c0,0,0.1,0,0.2,0c0,0,0,0,0.1,0C2043.9,501,2043.8,501,2043.8,501z"/>
</g>
<g>
	<path class="st0" d="M2054.2-137.8c-11.7,0-21.3-9.6-21.3-21.3c0-11.7,9.6-21.3,21.3-21.3c11.7,0,21.3,9.5,21.3,21.3
		C2075.5-147.3,2065.9-137.8,2054.2-137.8z M2054.2-171.1c-6.6,0-12,5.4-12,12c0,6.6,5.4,12,12,12c6.6,0,12-5.4,12-12
		C2066.2-165.7,2060.8-171.1,2054.2-171.1z"/>
	<path class="st0" d="M1935.4-131.9c-17.3,0-34.7-4-42.6-11.9c-1.1-1.1-1.6-2.8-1.2-4.4c0.1-0.5,5.5-24.1-4.1-45.3
		c-1.8-4-4.5-7.3-7.7-11.2c-9.3-11.3-20.8-25.4-20.8-66c0-0.1,0-0.3,0-0.4c0.3-68.5,69-70.5,76.8-70.5c0.3,0,0.8,0,1.3,0
		c1,0,2.2-0.1,3.6-0.1c32.3,0,69,18.1,75,69c0.1,0.4,1.3,7.6,17.2,32.5c0.2,0.3,2.9,4.2,1.8,9.1c-0.5,2.2-1.9,5.3-6.2,7.8
		c-4.6,2.7-9.8,5-13,6.4c0.6,6.6,1.5,20.9-0.1,29.5c-2.1,10.9-18.1,13.1-31.2,13.1c-1.7,0-2.7-0.1-2.7-0.1h-0.5
		c-0.8,0-1.3,0.1-1.7,0.2v27.1c0,1.2-0.5,2.4-1.4,3.3C1970-135.9,1952.7-131.9,1935.4-131.9z M1901.1-148.9
		c13.9,10.2,55.6,10.1,68.9-0.3v-26c0-3.9,2.9-8.5,11-8.5c0.6,0,1,0,1.1,0c0,0,0.8,0,2.1,0c13.6,0,21.5-2.9,22-5.6
		c1.9-9.8-0.3-30-0.3-30.2c-0.2-2.1,1-4.1,2.9-4.8c0.1,0,8.3-3.2,15-7.1c0.6-0.4,1.6-1,1.7-1.8c0.2-0.8-0.5-1.9-0.5-1.9
		c-17.1-26.6-18.7-34.9-18.8-36.9c-6.6-56.1-52-60.5-65.8-60.5c-1.3,0-2.5,0-3.4,0.1c-0.7,0-1.2,0-1.5,0c-11.2,0-67.3,3-67.5,61.2
		c0,0.1,0,0.3,0,0.4c0,37.2,9.9,49.4,18.7,60.1c3.4,4.2,6.7,8.2,9,13.2C1904.9-177.4,1902.4-156.4,1901.1-148.9z"/>
	<path class="st0" d="M2054.2-147.1c-2.6,0-4.6,2.1-4.6,4.6v5c0,16.6-13.5,30.1-30.1,30.1h-49.7c-16.6,0-30.1-13.5-30.1-30.1v-81.7
		c23.4-2.3,41.7-22.1,41.7-46.1c0-20.3-13.2-37.6-31.4-43.8v-39c0-2.6-2.1-4.6-4.6-4.6c-2.6,0-4.6,2.1-4.6,4.6v36.9
		c-1.9-0.2-3.7-0.4-5.7-0.4c-1.9,0-3.8,0.2-5.7,0.4v-36.9c0-2.6-2.1-4.6-4.6-4.6c-2.6,0-4.6,2.1-4.6,4.6v39
		c-18.3,6.3-31.4,23.5-31.4,43.8c0,24,18.3,43.8,41.7,46.1v81.7c0,21.7,17.7,39.4,39.4,39.4h49.7c21.7,0,39.4-17.7,39.4-39.4v-5
		C2058.8-145,2056.8-147.1,2054.2-147.1z M1935-302.3c1.9,0,3.8,0.2,5.7,0.5v9.6c-1.8-0.4-3.7-0.6-5.7-0.6c-2,0-3.8,0.2-5.7,0.6
		v-9.6C1931.2-302.1,1933-302.3,1935-302.3z M1935-283.5c10.1,0,18.3,8.2,18.3,18.3c0,10.1-8.2,18.3-18.3,18.3
		c-10.1,0-18.3-8.2-18.3-18.3C1916.7-275.3,1924.9-283.5,1935-283.5z M1897.9-265.2c0-15.1,9.1-28.2,22.1-33.9v10.8
		c-7.6,4.9-12.6,13.5-12.6,23.1c0,15.2,12.4,27.6,27.6,27.6c15.2,0,27.6-12.4,27.6-27.6c0-9.7-5-18.2-12.7-23.1v-10.8
		c13,5.8,22.1,18.8,22.1,33.9c0,20.4-16.6,37.1-37.1,37.1C1914.5-228.1,1897.9-244.8,1897.9-265.2z"/>
	<path class="st0" d="M2093-259.1h-54.1c-2.6,0-4.6-2.1-4.6-4.6c0-2.6,2.1-4.6,4.6-4.6h54.1c2.6,0,4.6,2.1,4.6,4.6
		C2097.6-261.2,2095.5-259.1,2093-259.1z"/>
	<path class="st0" d="M2067.1-283.8h-36.7c-2.6,0-4.6-2.1-4.6-4.6c0-2.6,2.1-4.6,4.6-4.6h36.7c2.6,0,4.6,2.1,4.6,4.6
		C2071.7-285.9,2069.7-283.8,2067.1-283.8z"/>
	<path class="st0" d="M2093-234.4h-42.8c-2.6,0-4.6-2.1-4.6-4.6c0-2.6,2.1-4.6,4.6-4.6h42.8c2.6,0,4.6,2.1,4.6,4.6
		C2097.6-236.4,2095.5-234.4,2093-234.4z"/>
	<path class="st0" d="M2093-209.6h-50.5c-2.6,0-4.6-2.1-4.6-4.6c0-2.6,2.1-4.6,4.6-4.6h50.5c2.6,0,4.6,2.1,4.6,4.6
		C2097.6-211.7,2095.5-209.6,2093-209.6z"/>
	<path class="st0" d="M2093-184.9h-61.4c-2.6,0-4.6-2.1-4.6-4.6c0-2.6,2.1-4.6,4.6-4.6h61.4c2.6,0,4.6,2.1,4.6,4.6
		C2097.6-187,2095.5-184.9,2093-184.9z"/>
	<path class="st0" d="M2032.9-159.1c0-1.6,0.2-3.1,0.5-4.6h-30.4v-12.9c-2.9,0.9-6.1,1.4-9.3,1.8v15.7c0,2.6,2.1,4.6,4.6,4.6h35
		C2033.1-155.9,2032.9-157.5,2032.9-159.1z"/>
	<path class="st0" d="M2117.9-287L2117.9-287c-0.1-0.4-0.2-0.8-0.4-1.1c0-0.1-0.1-0.2-0.1-0.3c-0.2-0.3-0.4-0.7-0.7-1l-26.2-26.2
		c-0.3-0.3-0.6-0.5-1-0.7c-0.1,0-0.2-0.1-0.3-0.1c-0.6-0.3-1.3-0.5-2-0.5h-88.7c-0.2,0-0.4,0-0.6,0c2.4,2.8,4.6,5.9,6.6,9.2h78.1
		v21.5c0,2.6,2.1,4.6,4.6,4.6h21.5v117.8H2075c0.3,1.5,0.5,3,0.5,4.6c0,1.6-0.2,3.1-0.5,4.6h38.4c2.6,0,4.6-2.1,4.6-4.6v-127.1
		C2118-286.4,2118-286.7,2117.9-287z M2091.8-290.8v-10.3l10.3,10.3H2091.8z"/>
</g>
<g>
	<path class="st0" d="M1837-267.1c-2.1,0-4.1,0.8-5.5,2.3c-1.5,1.5-2.3,3.4-2.3,5.5s0.8,4.1,2.3,5.5c3,2.9,8.1,2.9,11.1,0
		c3-3,3-8,0-11.1C1841-266.2,1839.1-267.1,1837-267.1z"/>
	<path class="st0" d="M2032.9-326.3c-2.1,0-4.1,0.8-5.5,2.3c-1.5,1.5-2.3,3.4-2.3,5.5s0.8,4.1,2.3,5.5c2.9,3,8.1,2.9,11.1,0
		c3.1-3,3.1-8,0-11.1C2037-325.5,2035-326.3,2032.9-326.3z"/>
	<path class="st0" d="M2042.2-354.9c-2.7-2.7-6.4-4.3-10.2-4.3c-3.9,0-7.5,1.5-10.2,4.3l-25.2,25.2c-5.6,5.6-5.6,14.8,0,20.4
		l0.4,0.4h-43.6c-1.2,0-2.4,0.5-3.3,1.3l-10.6,10.6l-9.6-9.6l2.2-2.2c2.7-2.7,4.2-6.4,4.2-10.2s-1.5-7.5-4.2-10.2l-25.2-25.2
		c-2.7-2.7-6.4-4.2-10.2-4.2c-3.9,0-7.5,1.5-10.2,4.2l-86.4,86.5c-5.6,5.6-5.6,14.8,0,20.4l25.2,25.2c2.7,2.7,6.4,4.2,10.2,4.2
		c3.9,0,7.5-1.5,10.2-4.2l2.2-2.2L1880-192c-2.2,3-3.5,6.7-3.5,10.5c0,4.8,1.9,9.3,5.3,12.7c2.3,2.3,5.1,3.8,8.1,4.6
		c-2.3,3.1-3.6,6.8-3.6,10.7c0,4.8,1.9,9.3,5.3,12.7c3.5,3.5,8.1,5.3,12.7,5.3c0.3,0,0.7-0.1,1-0.1c0,0.3-0.1,0.7-0.1,1
		c0,4.8,1.9,9.3,5.3,12.7c3.4,3.4,7.9,5.3,12.7,5.3l0,0c2.8,0,5.6-0.7,8.1-2c0.7,3.3,2.3,6.4,4.8,8.9c3.5,3.5,8.1,5.2,12.7,5.2
		c4.6,0,9.2-1.7,12.7-5.2l0.7-0.7c3,2,6.5,3,9.9,3c4.6,0,9.2-1.8,12.7-5.3c2.3-2.3,3.8-5,4.6-8.1c3.2,2.3,6.9,3.6,10.7,3.6
		c4.6,0,9.2-1.8,12.7-5.3c3.7-3.7,5.4-8.7,5.2-13.7c0.3,0,0.7,0.1,1,0.1c4.8,0,9.3-1.9,12.7-5.3c5.6-5.6,6.6-14,3.3-20.8
		c3.3-0.7,6.4-2.4,8.9-4.8c3.4-3.4,5.3-7.9,5.3-12.7c0-4.8-1.9-9.2-5.2-12.6l34.8-34.8l4.2,4.2c2.7,2.7,6.4,4.2,10.2,4.2
		c3.9,0,7.5-1.5,10.2-4.2l25.2-25.3c5.6-5.6,5.6-14.8,0-20.4L2042.2-354.9z M1844.5-234.2L1844.5-234.2
		C1844.5-234.1,1844.5-234.1,1844.5-234.2l-5.5,5.5c-2,2-5.4,2-7.3,0l-25.2-25.2c-2-2-2-5.3,0-7.3l86.4-86.4c1-1,2.3-1.5,3.7-1.5
		c1.4,0,2.7,0.6,3.7,1.5l25.3,25.2c1,1,1.5,2.3,1.5,3.7c0,1.4-0.6,2.7-1.5,3.7l-5.5,5.4v0c0,0,0,0,0,0L1844.5-234.2z M1888.4-175.3
		c-1.6-1.6-2.5-3.8-2.5-6.2c0-1.3,0.3-2.6,0.9-3.8l11.6,11.6C1895.1-172.1,1891.1-172.6,1888.4-175.3z M1910.4-147.3
		c-3.4,3.4-8.9,3.4-12.3,0c-1.6-1.6-2.6-3.9-2.6-6.2c0-2.3,0.9-4.5,2.6-6.2l0,0l7.1-7.1l12.3,12.3L1910.4-147.3L1910.4-147.3z
		 M1929.3-128.4L1929.3-128.4c-1.7,1.7-3.8,2.6-6.2,2.6l0,0c-2.3,0-4.5-0.9-6.2-2.5c-1.7-1.7-2.6-3.9-2.6-6.2c0-2.3,0.9-4.5,2.6-6.2
		l0,0l0,0l7.1-7.2l12.3,12.3L1929.3-128.4z M1954.9-116.2c-3.4,3.4-8.9,3.4-12.3,0c-3.4-3.4-3.4-8.9,0-12.3c0,0,0,0,0,0l0.4-0.4
		l12.3,12.3L1954.9-116.2z M2037.4-173.4c-1.6,1.6-3.8,2.5-6.2,2.5l0,0c-2.3,0-4.5-0.9-6.2-2.6c0,0,0,0,0,0l-43-43
		c-1.8-1.8-4.7-1.8-6.5,0c-1.8,1.8-1.8,4.7,0,6.6l49.7,49.7c3.4,3.4,3.4,9,0,12.3c-3.3,3.3-9,3.3-12.3,0l0,0v0l-49.7-49.7
		c-1.8-1.8-4.7-1.8-6.6,0c-1.8,1.8-1.8,4.7,0,6.6l49.7,49.7c3.4,3.4,3.4,8.9,0,12.3c-3.4,3.4-8.9,3.4-12.3,0l-49.7-49.7
		c-1.8-1.8-4.8-1.8-6.6,0c-1.8,1.8-1.8,4.7,0,6.5l40.6,40.6c0,0,0,0,0,0c1.6,1.6,2.6,3.8,2.6,6.2s-0.9,4.5-2.6,6.2
		c-3.4,3.4-8.9,3.4-12.3,0l-0.7-0.8h0l0,0l-18.9-18.9l0,0l0,0l-18.9-18.9c0,0,0,0,0,0h0l-18.9-18.9l0,0l0,0l-54.3-54.3l69-69
		l9.6,9.6l-9.9,9.9c-4.1,4-6.3,9.4-6.3,15.1c0,5.7,2.2,11.1,6.3,15.1c4,4,9.4,6.3,15.1,6.3l0,0c5.7,0,11.1-2.2,15.1-6.3l9.9-9.9
		l71.1,71.1l0,0l0,0l3.2,3.2C2040.8-182.3,2040.8-176.8,2037.4-173.4z M2037.4-198.7l-67.8-67.8l7-7h11.4l0,0c2.6,0,4.6-2.1,4.6-4.6
		c0-2.6-2.1-4.6-4.6-4.6h-13.3l0,0c-1.2,0-2.4,0.5-3.3,1.4l-24.9,24.8c-2.3,2.3-5.3,3.5-8.5,3.6l0,0c-3.2,0-6.3-1.3-8.5-3.5
		c-2.3-2.3-3.6-5.3-3.6-8.6c0-3.2,1.3-6.3,3.6-8.5l13.2-13.2l0,0l0,0l12.6-12.5h51l66,66L2037.4-198.7z M2122.1-254.6l-25.2,25.2
		c-2,2-5.4,2-7.3,0l-86.4-86.4c-2-2-2-5.3,0-7.3l25.3-25.2c1-1,2.3-1.5,3.6-1.5c1.4,0,2.7,0.5,3.7,1.5l86.4,86.4
		C2124.1-259.9,2124.1-256.6,2122.1-254.6z"/>
	<path class="st0" d="M1837-276.3c-4.6,0-8.9,1.8-12.1,5c-3.2,3.2-5,7.5-5,12.1c0,4.6,1.8,8.9,5,12.1c3.2,3.2,7.5,5,12.1,5
		c4.6,0,8.9-1.8,12.1-5c6.7-6.6,6.7-17.5,0-24.2C1845.8-274.6,1841.5-276.3,1837-276.3z M1842.5-253.7c-3,2.9-8.1,2.9-11.1,0
		c-1.5-1.5-2.3-3.4-2.3-5.5s0.8-4.1,2.3-5.5c1.5-1.5,3.4-2.3,5.5-2.3c2.1,0,4,0.8,5.5,2.3C1845.5-261.7,1845.6-256.7,1842.5-253.7z"
		/>
	<path class="st0" d="M2032.9-335.6c-4.6,0-8.9,1.8-12.1,5c-3.2,3.2-5,7.5-5,12.1c0,4.5,1.8,8.8,5,12.1c3.2,3.2,7.5,5,12.1,5
		c4.5,0,8.8-1.8,12.1-5c6.7-6.7,6.7-17.5,0-24.2C2041.8-333.8,2037.5-335.6,2032.9-335.6z M2038.4-313c-2.9,2.9-8.1,3-11.1,0
		c-1.5-1.5-2.3-3.4-2.3-5.5s0.8-4.1,2.3-5.5c1.5-1.5,3.4-2.3,5.5-2.3c2.1,0,4.1,0.8,5.5,2.3C2041.5-321,2041.5-316,2038.4-313z"/>
</g>
<g>
	<path class="st0" d="M2062.2,530.3l9.4,9.4c-3.3,4-5.1,8.9-5.1,14.2c0,5.9,2.3,11.5,6.5,15.7l0.4,0.4c4.2,4.2,9.8,6.5,15.7,6.5
		c5.9,0,11.5-2.3,15.7-6.5l31-31c4.2-4.2,6.5-9.8,6.5-15.7c0-5.9-2.3-11.5-6.5-15.7l-0.4-0.3c-4.2-4.2-9.8-6.5-15.7-6.5
		c-5.2,0-10.2,1.8-14.2,5.1l-37.7-37.7c7.2-8.7,6.8-21.7-1.3-29.8l-0.4-0.4c-4.2-4.2-9.8-6.5-15.7-6.5c-5.9,0-11.5,2.3-15.7,6.5
		l-31,31c-4.2,4.2-6.5,9.8-6.5,15.7c0,5.9,2.3,11.5,6.5,15.7l0.3,0.4c4.2,4.2,9.8,6.5,15.7,6.5c5.2,0,10.2-1.8,14.2-5.1l9.4,9.4
		l-36.2,36.2c-0.5,0-1-0.1-1.6-0.1c-5.5,0-10.7,2.2-14.6,6l-45,45l0,0c0,0,0,0,0,0l-13.7,13.7l0,0c-3.9,3.9-6,9.1-6,14.6
		s2.2,10.7,6,14.6c4,4,9.3,6,14.6,6c5.3,0,10.6-2,14.6-6l58.7-58.7c4.4-4.4,6.4-10.4,5.9-16.1L2062.2,530.3z M2110.4,513.7
		c2.4-2.4,5.7-3.7,9.1-3.7c3.4,0,6.7,1.3,9.1,3.8l0.3,0.3c2.5,2.4,3.8,5.7,3.8,9.1c0,3.4-1.3,6.7-3.8,9.1l-31,31
		c-2.4,2.4-5.7,3.8-9.1,3.8c-3.4,0-6.7-1.3-9.1-3.8l-0.3-0.4c-2.5-2.4-3.8-5.7-3.8-9.1c0-3.5,1.3-6.7,3.8-9.1l15.5-15.5
		L2110.4,513.7z M2098.7,512.3l-7.1,7.1l-37.5-37.5l1.2-1.1l5.9-5.9L2098.7,512.3z M2028.8,494.1c-2.4,2.4-5.7,3.8-9.1,3.8
		c-3.4,0-6.7-1.3-9.1-3.8l-0.4-0.4c-2.4-2.4-3.8-5.7-3.8-9.1s1.3-6.7,3.8-9.1l31-31c2.4-2.4,5.7-3.8,9.1-3.8c3.5,0,6.7,1.3,9.1,3.8
		l0.4,0.4c5,5,5,13.2,0,18.2l-18.8,18.8L2028.8,494.1z M2040.5,495.5l7.1-7.1l37.5,37.5l-7.1,7.1l-9.3-9.3l0,0l-17.1-17.1
		L2040.5,495.5z M1954.8,634.8c-4.4,4.4-11.6,4.4-16,0c-2.1-2.2-3.3-5-3.3-8c0-3,1.2-5.9,3.3-8l0,0l5.6-5.6c1.3,3.3,3.6,6.6,6.5,9.6
		c2.9,2.9,6.2,5.1,9.6,6.5L1954.8,634.8z M2013.5,576.1l-45,45c-0.3,0.3-1.4,0.5-3.3,0c-2.6-0.7-5.4-2.5-7.8-4.9
		c-2.4-2.4-4.2-5.3-4.9-7.8c-0.5-1.9-0.3-3,0-3.3l0,0l45-45c4.3-4.3,11.8-4.3,16,0C2017.9,564.5,2017.9,571.7,2013.5,576.1z
		 M2020,553.5c-1-1-2.1-1.9-3.2-2.6l33-33l2.9,2.9l2.9,2.9l-33,33C2021.9,555.6,2021,554.5,2020,553.5z"/>
	<path class="st0" d="M2149.4,623.9c-0.1-0.2-0.2-0.5-0.3-0.7c0-0.1-0.1-0.2-0.2-0.3c-0.1-0.2-0.2-0.4-0.4-0.6
		c-0.1-0.1-0.1-0.2-0.2-0.3c-0.2-0.2-0.4-0.4-0.7-0.6c0,0,0,0,0-0.1c-0.1,0-6.7-4.9-6.7-13.7c0-2.6-2.1-4.6-4.6-4.6h-61.4
		c-2.6,0-4.6,2.1-4.6,4.6c0,8.8-6.5,13.5-6.7,13.7c0,0-0.1,0.1-0.1,0.1c-0.2,0.2-0.5,0.4-0.7,0.6c-0.1,0.1-0.1,0.2-0.2,0.3
		c-0.1,0.2-0.3,0.4-0.4,0.6c-0.1,0.1-0.1,0.2-0.2,0.3c-0.1,0.2-0.2,0.5-0.3,0.7c0,0.1-0.1,0.2-0.1,0.3c-0.1,0.3-0.1,0.7-0.1,1h0
		v17.5c0,2.6,2.1,4.6,4.6,4.6h78.9c2.6,0,4.6-2.1,4.6-4.6v-17.5c0-0.4-0.1-0.7-0.1-1C2149.4,624.1,2149.4,624,2149.4,623.9z
		 M2079,612.3h53c0.6,3.2,1.7,6,2.9,8.2h-58.9C2077.4,618.3,2078.4,615.5,2079,612.3z M2140.3,638.1h-69.6v-8.2h69.6V638.1z"/>
</g>
<g>
	<path class="st0" d="M2037.9,682.4c-21.7,0-50.4-3.6-50.4-34.9c0-26.8,22-57.9,50.4-57.9s50.4,31.1,50.4,57.9
		C2088.3,678.8,2059.5,682.4,2037.9,682.4z M2037.9,598.9c-22.7,0-41.1,26.6-41.1,48.5c0,18.1,11.9,25.5,41.1,25.5
		c29.2,0,41.1-7.4,41.1-25.5C2078.9,625.5,2060.6,598.9,2037.9,598.9z"/>
	<path class="st0" d="M2037.9,599.4c-17.5,0-32.8-18-32.8-38.5c0-19.5,14.7-35.4,32.8-35.4c18.1,0,32.8,15.9,32.8,35.4
		C2070.7,581.4,2055.3,599.4,2037.9,599.4z M2037.9,534.8c-12.9,0-23.5,11.6-23.5,26c0,15.2,11.2,29.2,23.5,29.2
		s23.4-13.9,23.4-29.2C2061.3,546.5,2050.8,534.8,2037.9,534.8z"/>
	<path class="st0" d="M2129.4,660.6c-21.7,0-50.4-3.6-50.4-34.9c0-26.8,22-57.9,50.4-57.9c28.4,0,50.4,31.1,50.4,57.9
		C2179.8,657,2151,660.6,2129.4,660.6z M2129.4,577.2c-22.7,0-41.1,26.5-41.1,48.5c0,18.1,11.9,25.6,41.1,25.6
		c29.2,0,41.1-7.4,41.1-25.6C2170.4,603.7,2152.1,577.2,2129.4,577.2z"/>
	<path class="st0" d="M2129.4,577.6c-17.5,0-32.8-18-32.8-38.5c0-19.5,14.7-35.4,32.8-35.4c18.1,0,32.8,15.9,32.8,35.4
		C2162.2,559.6,2146.8,577.6,2129.4,577.6z M2129.4,513c-12.9,0-23.5,11.7-23.5,26c0,15.3,11.2,29.2,23.5,29.2
		c12.3,0,23.5-13.9,23.5-29.2C2152.8,524.7,2142.3,513,2129.4,513z"/>
	<path class="st0" d="M1946.4,660.6c-21.7,0-50.4-3.6-50.4-34.9c0-26.8,22-57.9,50.4-57.9c28.4,0,50.4,31.1,50.4,57.9
		C1996.8,657,1968,660.6,1946.4,660.6z M1946.4,577.2c-22.7,0-41.1,26.5-41.1,48.5c0,18.1,11.9,25.6,41.1,25.6s41.1-7.4,41.1-25.6
		C1987.4,603.7,1969.1,577.2,1946.4,577.2z"/>
	<path class="st0" d="M1946.4,577.6c-17.5,0-32.8-18-32.8-38.5c0-19.5,14.7-35.4,32.8-35.4s32.8,15.9,32.8,35.4
		C1979.2,559.6,1963.8,577.6,1946.4,577.6z M1946.4,513c-12.9,0-23.5,11.7-23.5,26c0,15.3,11.2,29.2,23.5,29.2
		c12.3,0,23.5-13.9,23.5-29.2C1969.8,524.7,1959.3,513,1946.4,513z"/>
	<path class="st0" d="M2037.9,520c-4.1,0-5.9-3.3-13-17.3c-1.9-3.7-4.6-9-6-11.2c-2.2-0.2-4.5-0.4-6.6-0.6l-0.8-0.1
		c-2.5-0.2-4.9-0.6-7.3-0.9l-1.5-0.2c-2.4-0.3-4.8-0.7-7.1-1.1l-0.8-0.1c-2.2-0.4-4.3-0.8-6.4-1.3l-1.1-0.2c-2.2-0.5-4.3-1-6.5-1.5
		l-1.2-0.3c-2-0.5-4-1.1-5.8-1.6c-1.8,0.6-6.7,5.1-9.6,7.8c-6.5,5.9-10.6,9.5-14.8,9.5c-1,0-1.9-0.2-2.7-0.6
		c-5.5-2.5-4.9-10.6-4.1-20.8c0.3-3.3,0.6-8.3,0.3-10.3c-0.7-0.5-1.3-1-1.9-1.5l-0.3-0.2l-0.7-0.6c-1-0.8-1.9-1.6-2.8-2.5
		c0-0.1-0.3-0.3-0.3-0.3c-0.8-0.8-1.5-1.6-2.2-2.3l-0.6-0.7c-0.7-0.8-1.2-1.5-1.7-2.2c-0.3-0.4-0.4-0.6-0.6-0.9
		c-0.6-0.9-1.2-1.9-1.7-2.9c0-0.1-0.1-0.2-0.2-0.3c-0.4-0.9-0.8-1.9-1.1-2.8c-0.1-0.2-0.2-0.5-0.3-0.8c-0.3-1-0.5-1.7-0.6-2.5
		c-0.1-0.4-0.1-0.7-0.2-1c-0.2-1.2-0.3-2.3-0.3-3.4c0-26.8,48.5-47.9,110.5-47.9c62,0,110.5,21,110.5,47.9c0,1.1-0.1,2.1-0.3,3.4
		c0,0.3-0.1,0.6-0.2,0.9c-0.2,0.9-0.4,1.7-0.6,2.5l-0.3,0.9c-0.3,1-0.7,1.9-1.2,2.8c0,0.1-0.1,0.2-0.1,0.2c-0.5,1.1-1.1,2.1-1.8,3.1
		c-0.2,0.2-0.3,0.5-0.5,0.7c-0.6,0.8-1.1,1.5-1.7,2.2l-0.7,0.9c-0.7,0.8-1.4,1.6-2.2,2.3c-0.1,0.1-0.2,0.3-0.4,0.4
		c-0.8,0.8-1.8,1.6-2.7,2.4l-0.7,0.6l-0.2,0.2c-0.6,0.5-1.3,1-1.9,1.5c-0.3,2,0.1,6.9,0.4,10.3c0.8,10.2,1.4,18.3-4.1,20.8
		c-0.8,0.4-1.8,0.6-2.7,0.6l0,0c-4.1,0-8.3-3.6-14.8-9.5c-2.9-2.7-7.7-7-9.7-7.8c-1.9,0.6-3.8,1.1-5.7,1.6l-1.2,0.3
		c-2.1,0.6-4.3,1.1-6.5,1.5l-1.1,0.2c-2.1,0.4-4.3,0.9-6.4,1.3l-0.8,0.1c-2.3,0.4-4.7,0.8-7.1,1.1l-1.5,0.2
		c-2.4,0.3-4.8,0.6-7.3,0.9l-0.8,0.1c-2.2,0.2-4.4,0.4-6.7,0.6c-1.4,2.2-4.1,7.6-6,11.2C2043.8,516.7,2042,520,2037.9,520z
		 M1975.8,474.4c0,0,0.1,0,0.1,0c1.9,0.6,3.9,1.1,5.9,1.7l1.2,0.3c2,0.5,4,1,6.1,1.4l1.1,0.2c2,0.4,4,0.8,6.1,1.2l0.8,0.1
		c2.2,0.4,4.5,0.7,6.8,1.1l1.4,0.2c2.3,0.3,4.7,0.6,7.1,0.8l0.8,0.1c2.2,0.2,4.5,0.4,6.8,0.6l1.3,0.1c3.7,0.2,5.3,3,12,16.2
		c1.4,2.7,3.2,6.3,4.7,9c1.5-2.7,3.3-6.3,4.7-9c6.7-13.2,8.3-16,12-16.2l1.3-0.1c2.3-0.2,4.6-0.4,6.8-0.6l0.8-0.1
		c2.4-0.2,4.7-0.5,7.1-0.8l1.4-0.2c2.3-0.3,4.6-0.7,6.8-1.1l0.7-0.1c2.1-0.4,4.1-0.8,6.1-1.2l1-0.2c2.1-0.4,4.1-0.9,6.1-1.4l1.2-0.3
		c2-0.6,4-1.1,5.9-1.7c0,0,0.1,0,0.1,0c0.6-0.2,1.3-0.3,2-0.3c4.5,0,9.1,3.9,16.1,10.3c1.8,1.6,4.4,4,6.4,5.6c0.1-2.9-0.3-7-0.5-9.8
		c-0.7-9.2-1.2-15.3,2.7-18l0.5-0.4c0.6-0.4,1.3-0.9,1.9-1.4l0.8-0.6c0.8-0.7,1.6-1.3,2.3-2l0.2-0.2c0.6-0.6,1.2-1.2,1.7-1.8
		l0.4-0.5c0.5-0.7,0.9-1.1,1.2-1.6l0.5-0.6c0.4-0.6,0.8-1.3,1.1-1.9c0-0.1,0.1-0.2,0.1-0.3c0.3-0.6,0.6-1.2,0.8-1.9l0.1-0.4
		c0.2-0.7,0.3-1.2,0.4-1.7l0.1-0.6c0.1-0.6,0.2-1.3,0.2-2c0-18.6-40.6-38.5-101.1-38.5c-60.5,0-101.1,19.9-101.1,38.5
		c0,0.7,0.1,1.3,0.2,2l0.1,0.4c0.1,0.7,0.2,1.1,0.4,1.6l0.2,0.6c0.2,0.6,0.5,1.3,0.8,1.9c0,0.1,0.1,0.1,0.1,0.2
		c0.3,0.6,0.7,1.3,1.1,1.9l0.3,0.4c0.5,0.7,0.9,1.2,1.3,1.7l0.5,0.7c0.5,0.6,1.1,1.2,1.7,1.8c0,0,0.2,0.2,0.2,0.2
		c0.7,0.7,1.5,1.4,2.3,2l0.8,0.7c0.6,0.5,1.2,1,1.9,1.4l0.4,0.3c4,2.8,3.5,8.9,2.8,18.1c-0.2,2.8-0.5,6.9-0.5,9.8
		c2-1.6,4.6-3.9,6.4-5.6c7-6.4,11.6-10.3,16.1-10.3C1974.5,474.1,1975.1,474.2,1975.8,474.4z"/>
	<g>
		<path class="st0" d="M2045.6,466h-15.4c-2.6,0-4.7-2.1-4.7-4.7V452c-5.2-3.6-8.2-9.3-8.2-15.5c0-10.7,9.2-19.4,20.6-19.4
			c11.4,0,20.6,8.7,20.6,19.4c0,6.2-3.1,11.9-8.3,15.5v9.3C2050.3,463.9,2048.2,466,2045.6,466z M2034.9,456.7h6v-7.3
			c0-1.8,1-3.4,2.6-4.2c3.5-1.8,5.7-5.1,5.7-8.7c0-5.5-5-10-11.2-10c-6.2,0-11.2,4.5-11.2,10c0,3.6,2.2,6.9,5.7,8.7
			c1.6,0.8,2.6,2.4,2.6,4.2V456.7z"/>
		<path class="st0" d="M2045.1,479.8h-14.2c-2.6,0-4.7-2.1-4.7-4.7c0-2.6,2.1-4.7,4.7-4.7h14.2c2.6,0,4.7,2.1,4.7,4.7
			C2049.7,477.7,2047.6,479.8,2045.1,479.8z"/>
		<path class="st0" d="M2075.9,441.3h-6.8c-2.6,0-4.7-2.1-4.7-4.7c0-2.6,2.1-4.7,4.7-4.7h6.8c2.6,0,4.7,2.1,4.7,4.7
			C2080.6,439.2,2078.5,441.3,2075.9,441.3z"/>
		<path class="st0" d="M2071.1,459c-1,0-1.9-0.3-2.8-0.9l-5.5-4c-2.1-1.5-2.6-4.5-1-6.5c1.5-2.1,4.4-2.6,6.5-1l5.5,4
			c2.1,1.5,2.6,4.5,1,6.6C2074,458.4,2072.5,459,2071.1,459z"/>
		<path class="st0" d="M2065.6,427.7c-1.4,0-2.9-0.7-3.8-1.9c-1.5-2.1-1.1-5,1-6.6l5.5-4c2.1-1.5,5-1.1,6.5,1c1.5,2.1,1.1,5-1,6.5
			l-5.5,4C2067.5,427.4,2066.6,427.7,2065.6,427.7z"/>
		<path class="st0" d="M2006.7,441.3h-6.8c-2.6,0-4.7-2.1-4.7-4.7c0-2.6,2.1-4.7,4.7-4.7h6.8c2.6,0,4.7,2.1,4.7,4.7
			C2011.4,439.2,2009.3,441.3,2006.7,441.3z"/>
		<path class="st0" d="M2004.8,459c-1.5,0-2.9-0.7-3.8-1.9c-1.5-2.1-1.1-5,1-6.6l5.5-4c2.1-1.5,5-1.1,6.5,1c1.5,2.1,1.1,5-1,6.5
			l-5.5,4C2006.7,458.7,2005.7,459,2004.8,459z"/>
		<path class="st0" d="M2010.2,427.7c-0.9,0-1.9-0.3-2.7-0.9l-5.5-4c-2.1-1.5-2.6-4.5-1-6.5c1.5-2.1,4.5-2.6,6.6-1l5.5,4
			c2.1,1.5,2.6,4.5,1,6.6C2013.1,427,2011.7,427.7,2010.2,427.7z"/>
	</g>
</g>
<g>
	<path class="st0" d="M-239,897.7h-38.5H-316h-102.5c-3.3,0-6,2.7-6,6v66.2c0,1.6,0.6,3.1,1.8,4.3c1.1,1.1,2.6,1.8,4.2,1.8H-239
		c11.4,0,20.3-12.5,20.3-28.6v-21.2C-218.7,910.2-227.6,897.7-239,897.7z M-277.5,909.7c3.9,0,8.3,7.2,8.3,16.5v21.2
		c0,9.3-4.4,16.5-8.3,16.5h-21.8c2.3-4.6,3.6-10.3,3.6-16.5v-21.2c0-6.2-1.3-11.9-3.6-16.5H-277.5z M-412.5,909.7h96.5
		c3.8,0,8.3,7.2,8.3,16.5v21.2c0,9.3-4.4,16.5-8.3,16.5h0h-96.5V909.7z M-230.7,947.4c0,9.3-4.5,16.5-8.3,16.5h-21.9
		c2.3-4.6,3.7-10.3,3.7-16.5v-21.2c0-6.2-1.4-11.9-3.7-16.5h21.9c3.8,0,8.3,7.2,8.3,16.5V947.4z"/>
	<path class="st0" d="M-405.5,897.7h-116.9c-2.2,0-4.2,1.2-5.3,3.1c-1.1,1.9-1,4.3,0.2,6.1c10.3,16.2,10.3,43.6,0,59.8
		c-1.8,2.8-0.9,6.5,1.8,8.3c1,0.6,2.1,0.9,3.2,0.9c0,0,0.1,0,0.2,0h116.8c11.4,0,20.3-12.5,20.3-28.6v-21.2
		C-385.2,910.2-394.1,897.7-405.5,897.7z M-397.2,947.4c0,9.3-4.5,16.5-8.3,16.5h-107.1c2.6-6.5,4.2-13.7,4.7-21.1h86
		c3.3,0,6-2.7,6-6c0-3.3-2.7-6-6-6h-86c-0.6-7.3-2.1-14.6-4.7-21.1h107.1c3.8,0,8.3,7.2,8.3,16.5V947.4z"/>
	<path class="st0" d="M-273.2,870.6c0-10.9,4.2-21.2,12-28.9c2.3-2.3,2.3-6.2,0-8.5c-1.2-1.2-2.7-1.8-4.3-1.8c0,0-0.1,0-0.2,0h-29.5
		v-82.5c0-3.3-2.7-6-6-6h-164.9c-33,0-33,0-34.8,1.8c-2,2-2.3,5.2-0.7,7.6c15,22.6,15,59.3,0,81.8c-1.2,1.8-1.3,4.2-0.3,6.2
		c1,2,3.1,3.2,5.3,3.2h23.8c-3.3,4.7-5.3,10.3-5.3,16.5v21.2c0,15.7,12.8,28.5,28.5,28.5h184.1c2.5,0,4.6-1.4,5.6-3.7
		c0.9-2.3,0.4-4.9-1.3-6.6C-269,891.7-273.2,881.5-273.2,870.6z M-480.7,814.4h152.6c3.3,0,6-2.7,6-6c0-3.3-2.7-6-6-6h-150.6
		c0.6-6.1,0.6-12.2,0-18.3h150.6c3.3,0,6-2.7,6-6c0-3.3-2.7-6-6-6h-152.6c-1.3-6-3.2-11.7-5.7-17.1c35.3,0,151.3,0,179.1,0v76.5
		h-179.1C-483.9,826.1-482,820.3-480.7,814.4z M-449.7,897.7c-9.1,0-16.5-7.4-16.5-16.5V860c0-9.1,7.4-16.5,16.5-16.5h171.9
		c-3.8,6.4-6.3,13.6-7.1,21.1h-150.9c-3.3,0-6,2.7-6,6c0,3.3,2.7,6,6,6h150.9c0.8,7.5,3.3,14.7,7.1,21.1H-449.7z"/>
</g>
<g>
	<path class="st0" d="M230,251.2c-1.5,0-2.9-0.7-3.9-1.8l-8.4-9.8l-12.5,3c-1.5,0.4-3,0-4.2-0.8c-1.2-0.9-2-2.3-2.1-3.8l-1-12.8
		l-11.9-4.9c-1.4-0.6-2.5-1.7-2.9-3.1c-0.5-1.4-0.3-3,0.5-4.3l6.7-11l-6.7-10.9c-0.8-1.3-1-2.8-0.5-4.3c0.5-1.4,1.5-2.6,2.9-3.1
		l11.9-4.9l1-12.8c0.1-1.5,0.9-2.9,2.1-3.8c1.2-0.9,2.7-1.2,4.2-0.8l12.5,3l8.4-9.8c1.9-2.3,5.8-2.3,7.8,0l8.3,9.8l12.5-3
		c1.5-0.4,3-0.1,4.2,0.8c1.2,0.9,2,2.3,2.1,3.8l1,12.8l11.9,4.9c1.4,0.6,2.4,1.7,2.9,3.1c0.5,1.4,0.3,3-0.5,4.3l-6.7,10.9l6.7,11
		c0.8,1.3,1,2.8,0.5,4.3c-0.5,1.4-1.5,2.6-2.9,3.1l-11.9,4.9l-1,12.8c-0.1,1.5-0.9,2.9-2.1,3.8c-1.2,0.9-2.8,1.2-4.2,0.8l-12.5-3
		l-8.3,9.8C232.9,250.5,231.5,251.2,230,251.2z M219.6,228.7c1.5,0,2.9,0.6,3.9,1.8l6.5,7.6l6.5-7.6c1.2-1.5,3.2-2.1,5.1-1.7
		l9.7,2.3l0.8-10c0.2-1.9,1.4-3.6,3.1-4.3l9.2-3.8l-5.2-8.5c-1-1.6-1-3.7,0-5.4l5.2-8.5l-9.2-3.8c-1.8-0.7-3-2.4-3.1-4.3l-0.8-10
		l-9.7,2.3c-1.9,0.5-3.8-0.2-5.1-1.7l-6.5-7.6l-6.5,7.6c-1.3,1.5-3.2,2.1-5.1,1.7l-9.7-2.3l-0.8,10c-0.2,1.9-1.4,3.6-3.2,4.3
		l-9.2,3.8l5.2,8.5c1,1.6,1,3.7,0,5.4l-5.2,8.5l9.2,3.8c1.8,0.7,3,2.4,3.2,4.3l0.8,10l9.7-2.3C218.8,228.8,219.2,228.7,219.6,228.7z
		"/>
	<path class="st0" d="M244.1,240.1v41.8l-10.5-11c-1-1-2.3-1.6-3.7-1.6c-1.4,0-2.8,0.6-3.7,1.6l-10.5,11v-41.8l-10.3,2.4v52.3
		c0,2.1,1.3,4,3.2,4.8c1.9,0.7,4.2,0.3,5.6-1.2l15.6-16.5l15.6,16.5c1,1,2.3,1.6,3.7,1.6c0.7,0,1.3-0.1,1.9-0.4
		c2-0.8,3.2-2.7,3.2-4.8v-52.3L244.1,240.1z"/>
	<path class="st0" d="M273.1,81H86.9c-14.8,0-26.8,12-26.8,26.8v123.7c0,14.8,12,26.8,26.8,26.8h118.7v-10.3H86.9
		c-9.1,0-16.5-7.4-16.5-16.5V107.8c0-9.1,7.4-16.5,16.5-16.5h186.3c9.1,0,16.5,7.4,16.5,16.5v123.7c0,9.1-7.4,16.5-16.5,16.5h-18.7
		v10.3h18.7c14.8,0,26.8-12,26.8-26.8V107.8C299.9,93,287.9,81,273.1,81z"/>
	<path class="st0" d="M278,60.1H81.9c-23.6,0-42.7,19.2-42.7,42.7v133.5c0,23.6,19.2,42.7,42.7,42.7h123.6v-10.3H81.9
		c-17.9,0-32.5-14.6-32.5-32.5V102.8C49.5,85,64,70.4,81.9,70.4H278c17.9,0,32.5,14.6,32.5,32.5v133.5c0,17.9-14.6,32.5-32.5,32.5
		h-23.6v10.3H278c23.6,0,42.7-19.2,42.7-42.7V102.8C320.8,79.3,301.6,60.1,278,60.1z"/>
	<path class="st0" d="M241.2,120.5H118.8c-2.8,0-5.1-2.3-5.1-5.1c0-2.8,2.3-5.1,5.1-5.1h122.4c2.8,0,5.1,2.3,5.1,5.1
		C246.3,118.2,244,120.5,241.2,120.5z"/>
	<path class="st0" d="M263.5,146.3h-167c-2.8,0-5.1-2.3-5.1-5.1c0-2.8,2.3-5.1,5.1-5.1h167c2.8,0,5.1,2.3,5.1,5.1
		C268.6,144,266.3,146.3,263.5,146.3z"/>
	<path class="st0" d="M180,172.1H96.5c-2.8,0-5.1-2.3-5.1-5.1c0-2.8,2.3-5.1,5.1-5.1H180c2.8,0,5.1,2.3,5.1,5.1
		C185.1,169.7,182.8,172.1,180,172.1z"/>
	<path class="st0" d="M146.7,205.2H96.5c-2.8,0-5.1-2.3-5.1-5.1c0-2.8,2.3-5.1,5.1-5.1h50.1c2.8,0,5.1,2.3,5.1,5.1
		C151.8,202.9,149.5,205.2,146.7,205.2z"/>
	<path class="st0" d="M146.7,230.9H96.5c-2.8,0-5.1-2.3-5.1-5.1c0-2.8,2.3-5.1,5.1-5.1h50.1c2.8,0,5.1,2.3,5.1,5.1
		C151.8,228.6,149.5,230.9,146.7,230.9z"/>
</g>
<g>
	<path class="st0" d="M-1052.1,976.3c-3.8,0-7.6-0.3-11.2-0.9c-2.6-0.4-4.6-2.4-5-5l-2.8-17.6l-14.4,10.5c-2.1,1.5-5,1.5-7.1,0
		c-6.2-4.4-11.5-9.8-15.9-15.9c-1.5-2.1-1.5-5,0-7l10.5-14.5l-17.6-2.8c-2.5-0.4-4.6-2.4-5-5c-0.6-3.7-1-7.5-1-11.3
		c0-3.8,0.4-7.6,1-11.3c0.4-2.5,2.4-4.5,5-5l17.6-2.8l-10.5-14.4c-1.5-2.1-1.5-4.9,0-7.1c4.4-6.2,9.8-11.5,15.9-15.9
		c2.1-1.5,5-1.5,7,0l14.5,10.5l2.8-17.6c0.4-2.5,2.4-4.5,5-5c7.4-1.2,15.1-1.2,22.6,0c2.5,0.4,4.5,2.4,5,5l2.8,17.7l14.4-10.5
		c2.1-1.5,5-1.5,7.1,0c6.2,4.4,11.5,9.8,15.9,15.9c1.5,2.1,1.5,5,0,7.1l-10.5,14.4l17.6,2.8c2.6,0.4,4.6,2.4,5,5
		c0.6,3.8,0.9,7.6,0.9,11.3c0,3.7-0.3,7.5-0.9,11.3c-0.4,2.6-2.4,4.6-5,5l-17.6,2.8l10.5,14.5c1.5,2.1,1.5,4.9,0,7
		c-4.4,6.1-9.8,11.5-15.9,15.9c-2.1,1.5-4.9,1.5-7.1,0l-14.4-10.5l-2.8,17.6c-0.4,2.6-2.4,4.6-5,5
		C-1044.5,976-1048.3,976.3-1052.1,976.3z M-1057.2,964c3.3,0.3,6.8,0.3,10.1,0l2.7-17.2c0.4-2.2,1.9-4.1,4-4.7
		c1.6-0.6,3.2-1.2,4.8-2c2-1,4.4-0.8,6.3,0.5l14,10.2c2.6-2.2,5-4.6,7.2-7.2l-10.2-14.1c-1.3-1.8-1.5-4.2-0.5-6.2
		c0.8-1.6,1.5-3.3,2-4.8c0.7-2.2,2.5-3.7,4.8-4.1l17.2-2.7c0.2-1.7,0.2-3.4,0.2-5.1c0-1.7-0.1-3.3-0.2-5.1l-17.2-2.7
		c-2.2-0.4-4.1-1.9-4.8-4.1c-0.5-1.5-1.2-3.1-2-4.8c-1-2-0.8-4.4,0.5-6.2l10.2-14.1c-2.2-2.6-4.5-5-7.1-7.2l-14.1,10.2
		c-1.8,1.3-4.2,1.5-6.2,0.5c-1.6-0.8-3.2-1.4-4.8-2c-2.1-0.7-3.7-2.5-4-4.8l-2.7-17.2c-3.4-0.3-6.8-0.3-10.1,0l-2.7,17.2
		c-0.4,2.2-1.9,4.1-4.1,4.8c-1.5,0.5-3.1,1.2-4.8,2c-2,1-4.4,0.8-6.2-0.5l-14.1-10.2c-2.6,2.2-5,4.6-7.2,7.2l10.2,14.1
		c1.3,1.8,1.5,4.2,0.5,6.2c-0.8,1.6-1.5,3.2-2,4.7c-0.7,2.2-2.6,3.7-4.8,4.1l-17.2,2.7c-0.2,1.7-0.2,3.4-0.2,5.1
		c0,1.7,0.1,3.4,0.2,5.1l17.2,2.7c2.2,0.4,4.1,1.9,4.8,4.1c0.5,1.6,1.2,3.2,2,4.7c1,2,0.8,4.4-0.5,6.2l-10.2,14.1
		c2.2,2.6,4.6,5,7.2,7.2l14-10.2c1.9-1.3,4.3-1.5,6.3-0.5c1.4,0.7,3,1.4,4.7,2c2.1,0.7,3.7,2.5,4.1,4.7L-1057.2,964z"/>
	<path class="st0" d="M-1052.1,935.3c-15.8,0-28.5-12.8-28.5-28.6c0-15.8,12.8-28.5,28.5-28.5c15.7,0,28.5,12.8,28.5,28.5
		C-1023.6,922.5-1036.4,935.3-1052.1,935.3z M-1052.1,890.2c-9.1,0-16.5,7.4-16.5,16.5s7.4,16.5,16.5,16.5c9.1,0,16.5-7.4,16.5-16.5
		S-1043,890.2-1052.1,890.2z"/>
	<path class="st0" d="M-900.3,802.6h-303.6c-10.6,0-19.2,8.6-19.2,19.2v176.8v12.2c0,10.6,8.6,19.2,19.2,19.2h110.2l-23.1,40.3
		h-53.8c-4.4,0-8,3.6-8,8c0,4.4,3.6,8,8,8h237c4.4,0,8-3.6,8-8c0-4.4-3.6-8-8-8h-53.8l-23.1-40.3h110.2c10.6,0,19.2-8.6,19.2-19.2
		v-12.2V821.7C-881.1,811.2-889.7,802.6-900.3,802.6z M-1211,821.7c0-3.9,3.2-7.2,7.1-7.2h303.6c4,0,7.2,3.2,7.2,7.2v170.8H-1211
		V821.7z M-1001.3,1070.2h-101.6l23.1-40.3h55.4L-1001.3,1070.2z M-893.1,1010.7c0,4-3.2,7.1-7.2,7.1h-120.6h-62.3h-120.6
		c-3.9,0-7.1-3.2-7.1-7.1v-6.2h317.9V1010.7z"/>
	<polygon class="st0" points="-957.4,878.3 -957.4,878.3 -957.4,878.3 	"/>
	<polygon class="st0" points="-915.7,878.3 -915.7,878.3 -915.7,878.3 	"/>
	<polygon class="st0" points="-957.4,878.3 -957.4,878.3 -957.4,878.3 	"/>
	<path class="st0" d="M-957.3,884.3c-3.3,0-6-2.7-6-6c0-3.3,2.7-6,6-6h0c3.3,0,6,2.7,6,6C-951.2,881.6-953.9,884.3-957.3,884.3z"/>
	<path class="st0" d="M-957.4,878.3L-957.4,878.3L-957.4,878.3c0,0.1,0,0.2,0,0.4C-957.3,878.5-957.4,878.4-957.4,878.3z"/>
	<path class="st0" d="M-957.3,884.7c-3.1,0-5.7-2.4-6-5.4c0-0.3-0.1-0.7-0.1-1c0-3.3,2.7-6,6-6c3.2,0,5.8,2.4,6,5.5
		c0,0.2,0,0.4,0,0.5c0,0.1,0,0.2,0,0.4c0,3.2-2.4,5.8-5.6,6C-957.1,884.6-957.2,884.7-957.3,884.7z"/>
	<path class="st0" d="M-925.9,888.5h-10.6H-925.9c5.7,0,10.3-4.6,10.3-10.3l0,0C-915.7,884-920.2,888.5-925.9,888.5z"/>
	<path class="st0" d="M-925.9,894.6h-10.6c-3.3,0-6-2.7-6-6c0-3.3,2.7-6,6-6h10.6c2.3,0,4.2-1.9,4.3-4.3c0-3.3,2.7-6,6-6l0,0
		c3.3,0,6,2.7,6,6l0,0l0,0l0,0C-909.6,887.3-916.9,894.6-925.9,894.6z"/>
	<path class="st0" d="M-909.8,877c0-0.1,0-0.2,0-0.3c-0.1-0.3-0.2-0.6-0.3-0.9c0,0,0-0.1,0-0.1l-7.6-16.5l0,0l-13.2-28.5
		c-1-2.1-3.1-3.5-5.5-3.5c-2.3,0-4.5,1.4-5.4,3.5l-13.2,28.5l0,0l-7.7,16.5c0,0,0,0,0,0.1c-0.2,0.3-0.2,0.6-0.3,0.9
		c0,0.1-0.1,0.2-0.1,0.3c-0.1,0.4-0.2,0.8-0.2,1.3l0,120.2c0,3.3,2.7,6,6,6h20.8h20.9c3.3,0,6-2.7,6-6V878.3
		C-909.6,877.8-909.7,877.4-909.8,877z M-922.2,880.2c-0.1,0.3-0.3,0.5-0.5,0.8c-0.1,0.2-0.3,0.3-0.4,0.5c-0.3,0.2-0.5,0.4-0.8,0.5
		c-0.2,0-0.3,0.2-0.5,0.3c-0.4,0.2-0.9,0.3-1.4,0.3c-0.1,0-0.1,0-0.1,0h-21.2c0,0-0.1,0-0.1,0c-0.5,0-1-0.1-1.4-0.3
		c-0.1,0-0.3-0.2-0.4-0.3c-0.3-0.2-0.6-0.3-0.8-0.5c-0.2-0.2-0.3-0.3-0.4-0.5c-0.2-0.2-0.4-0.5-0.5-0.8c-0.1-0.2-0.2-0.4-0.2-0.6
		c-0.1-0.2-0.1-0.4-0.1-0.5l4.3-9.3c0.2,0.1,0.5,0.1,0.7,0.2c1.1,0.4,2.3,0.6,3.4,0.9c0.4,0.1,0.8,0.2,1.2,0.3
		c1.6,0.3,3.3,0.4,4.9,0.4c1.7,0,3.3-0.2,4.9-0.4c0.4-0.1,0.8-0.2,1.2-0.3c1.2-0.2,2.3-0.5,3.4-0.9c0.3-0.1,0.5-0.1,0.8-0.2l4.3,9.4
		c0,0.2,0,0.3-0.1,0.5C-922,879.8-922.1,880-922.2,880.2z M-936.5,847.6l5.2,11.2c-3.4,0.9-7,0.9-10.4,0L-936.5,847.6z M-951.3,894
		c0.2,0.1,0.5,0.1,0.7,0.2c0.2,0.1,0.4,0.1,0.6,0.1c0.9,0.2,1.9,0.3,2.9,0.3h4.5v97.9h-8.8V894z M-921.7,992.5h-8.8v-97.9h4.6
		c1,0,2-0.1,2.9-0.3c0.2,0,0.4-0.1,0.7-0.1c0.2,0,0.4-0.1,0.7-0.2V992.5z"/>
	<path class="st0" d="M-1146.7,1004.5h-41.9c-3.3,0-6-2.7-6-6V840.9c0-8.5,6.9-15.4,15.4-15.4h23c8.5,0,15.5,6.9,15.5,15.4v157.6
		C-1140.7,1001.9-1143.4,1004.5-1146.7,1004.5z M-1182.5,992.5h29.8v-16.2h-14.9c-3.3,0-6-2.7-6-6c0-3.3,2.7-6,6-6h14.9V948h-14.9
		c-3.3,0-6-2.7-6-6c0-3.3,2.7-6,6-6h14.9v-16.2h-14.9c-3.3,0-6-2.7-6-6.1c0-3.3,2.7-6,6-6h14.9v-16.2h-14.9c-3.3,0-6-2.7-6-6
		c0-3.3,2.7-6,6-6h14.9v-16.2h-14.9c-3.3,0-6-2.7-6-6c0-3.3,2.7-6,6-6h14.9v-10.2c0-1.8-1.5-3.4-3.4-3.4h-23c-1.9,0-3.4,1.5-3.4,3.4
		V992.5z"/>
</g>
<g>
	<path class="st0" d="M-834.6,111.1h-4.7L-871.8,5.1c1.7-1.1,2.9-3.1,2.9-5.4c0-3.4-2.5-6.2-5.7-6.2h-87.1
		c-2.5-10.2-10.9-17.7-20.9-17.7c-10,0-18.4,7.5-20.9,17.7h-87.1c-3.1,0-5.6,2.8-5.6,6.2c0,2.3,1.2,4.3,2.9,5.4l-32.4,106.1h-4.7
		c-3.1,0-5.7,2.8-5.7,6.2c0,21.9,22,39.7,48.9,39.7s48.9-17.8,48.9-39.7c0-3.4-2.5-6.2-5.7-6.2h-4.7l-32.2-105.2h77.4
		c1.2,4.7,3.6,8.9,6.9,12l-14.5,158.6c-14.8,2.6-27.8,7.8-27.8,17.1v20.9c0,15.3,35.4,19.4,56.2,19.4c20.9,0,56.2-4.1,56.2-19.4
		v-20.9c0-9.3-13-14.4-27.8-17.1l-14.5-158.6c3.3-3.1,5.8-7.3,6.9-12h77.4l-32.2,105.2h-4.7c-3.1,0-5.7,2.8-5.7,6.2
		c0,21.9,22,39.7,48.9,39.7s48.9-17.8,48.9-39.7C-829,113.9-831.5,111.1-834.6,111.1z M-1087.2,144.6c-17.5,0-32.6-9.1-36.6-21h73.2
		C-1054.6,135.5-1069.8,144.6-1087.2,144.6z M-1057.6,111.1h-59.3l29.6-96.9L-1057.6,111.1z M-992.9-0.3c0-2.3,0.6-4.4,1.7-6.2
		c1.9-3.1,5-5.2,8.7-5.2c3.6,0,6.8,2.1,8.7,5.2c1.1,1.8,1.7,3.9,1.7,6.2c0,2.3-0.6,4.4-1.7,6.2c-1.8,3.1-5,5.2-8.7,5.2
		c-3.6,0-6.8-2.1-8.7-5.2C-992.3,4.1-992.9,2-992.9-0.3z M-934.8,214.3c-1.3,3.6-18.8,10.3-47.8,10.3c-28.9,0-46.5-6.7-47.8-10.1
		v-9.8c11.8,6.4,33.3,8.3,47.8,8.3c14.5,0,36-2,47.8-8.3V214.3z M-964.2,190.8c0.3,3.2,2.7,5.6,5.6,5.6c0.2,0,0.4,0,0.6,0
		c3.1-0.3,5.4-3.4,5.1-6.8l-0.3-3.4c10.8,2.2,17.3,5.3,18.4,7.4c-1.9,3.6-19.3,10.1-47.7,10.1c-28.4,0-45.8-6.5-47.7-10.1
		c1.1-2.1,7.6-5.2,18.4-7.4l-0.3,3.4c-0.3,3.4,2,6.5,5.1,6.8c0.2,0,0.4,0,0.6,0c2.9,0,5.3-2.4,5.6-5.6l0.6-6.4
		c5.3-0.6,11.2-0.9,17.8-0.9c6.6,0,12.5,0.4,17.8,0.9L-964.2,190.8z M-965.6,175c-6-0.6-11.9-0.8-16.9-0.8c-5,0-10.9,0.2-16.9,0.8
		l13.9-151.7c1,0.2,2,0.3,3.1,0.3c1,0,2.1-0.1,3.1-0.3L-965.6,175z M-877.9,14.3l29.6,96.9h-59.3L-877.9,14.3z M-877.9,144.6
		c-17.5,0-32.6-9.1-36.6-21h73.2C-845.3,135.5-860.5,144.6-877.9,144.6z"/>
</g>
<g>
	<path class="st0" d="M170.8-399.6l-22.2-87.7l8.9-37.1c0.4-1.6,0-3.2-1-4.4c-1-1.3-2.5-2-4.1-2h-36.7c-1.6,0-3.1,0.7-4.1,2
		c-1,1.2-1.4,2.9-1,4.4l8.9,37.1l-22.1,87.7c-0.5,1.9,0.1,3.8,1.5,5.1l31.6,29.7c1,0.9,2.3,1.4,3.6,1.4c1.3,0,2.6-0.5,3.6-1.4
		l31.6-29.7C170.7-395.8,171.3-397.8,170.8-399.6z M145.8-520.3l-6.7,27.8h-10l-6.7-27.8H145.8z M134.1-375.8L108.3-400l20.7-82
		h10.2l20.7,82L134.1-375.8z"/>
	<path class="st0" d="M232.4-527.7c0,0,0-0.1,0-0.1c0,0,0,0,0-0.1c0-0.1-0.1-0.3-0.2-0.4c-0.1-0.2-0.1-0.5-0.3-0.7
		c0-0.1-0.1-0.2-0.1-0.3c0,0,0,0-0.1-0.1c-0.1-0.2-0.3-0.4-0.4-0.6c-0.1-0.2-0.2-0.4-0.4-0.5c-16.6-16.7-16.6-43.8,0-60.5
		c2.1-2.1,2.1-5.4,0-7.4c-1-1-2.3-1.5-3.7-1.5c-0.1,0-0.2,0-0.2,0H38.5c-15.6,0-28.3,12.7-28.3,28.4v21.7V-370
		c0,15.6,12.7,28.4,28.3,28.4h165.7c15.7,0,28.4-12.7,28.4-28.4v-156.7C232.5-527,232.4-527.4,232.4-527.7
		C232.4-527.7,232.4-527.7,232.4-527.7z M35.7-352.4c-8.6-1.3-15.1-8.7-15.1-17.6v-157.8c4.2,3.4,9.4,5.7,15.1,6.2V-352.4z
		 M38.5-532c-9.8,0-17.8-8-17.8-17.8v-21.7c0-9.8,8-17.9,17.8-17.9h177.9c-2.4,3.7-4.2,7.7-5.6,11.8H41c-2.9,0-5.2,2.3-5.2,5.2
		c0,2.9,2.3,5.2,5.2,5.2h167.4c-0.5,4.3-0.5,8.6,0,12.9H41c-2.9,0-5.2,2.3-5.2,5.3c0,2.9,2.3,5.2,5.2,5.2h169.8
		c1.3,4.1,3.2,8.1,5.6,11.8H41H38.5z M205.6-521.5l-35.9,18.5l-21.4-18.5H205.6z M120-521.5l-21.4,18.5l-36-18.5H120z M222-370
		c0,9.8-8,17.9-17.9,17.9H46.2v-166L96.9-492c1.9,1,4.2,0.7,5.8-0.7l31.4-27.1l31.4,27.1c1,0.8,2.2,1.3,3.4,1.3
		c0.8,0,1.7-0.2,2.4-0.6l50.7-26.1V-370z"/>
</g>
</svg>
