<?xml version="1.0" encoding="utf-8"?>
<!-- Generator: Adobe Illustrator 22.1.0, SVG Export Plug-In . SVG Version: 6.00 Build 0)  -->
<svg version="1.1" id="圖層_1" xmlns="http://www.w3.org/2000/svg" xmlns:xlink="http://www.w3.org/1999/xlink" x="0px" y="0px"
	 viewBox="0 0 360 360" style="enable-background:new 0 0 360 360;" xml:space="preserve">
<style type="text/css">
	.st0{fill:#FFFFFF;}
</style>
<g>
	<path class="st0" d="M779.8,85.7L640.1,53.3h-2L498.3,85.7c-2,0-4.1,2-4.1,4.1c0,2,2,4.1,4.1,4.1l54.7,12.2v24.3
		c0,22.3,44.6,32.4,87.1,32.4s87.1-12.2,87.1-32.4l0,0V106l52.7-12.2c2,0,4.1-2,4.1-4.1C783.9,87.7,781.8,85.7,779.8,85.7z
		 M717,130.3L717,130.3c0,10.1-30.4,24.3-77,24.3c-48.6,0-79-14.2-79-24.3V108l77,18.2c0,0,0,0,2,0c0,0,0,0,2,0l79-18.2h-2v22.3
		C717,130.3,717,130.3,717,130.3z M640.1,116.1L520.5,89.8l119.5-26.3l117.5,26.3L640.1,116.1z"/>
	<path class="st0" d="M725.1,132.3c0,4.1-2,8.1-4.1,10.1c6.1,10.1,8.1,22.3,8.1,34.4h-30.4c0-8.1-2-14.2-4.1-22.3c-2,0-6.1,2-8.1,2
		c2,6.1,2,12.2,2,18.2h-44.6v-10.1c-2,0-4.1,0-4.1,0c-2,0-4.1,0-4.1,0v14.2h-46.6c0-6.1,2-12.2,2-18.2c-4.1,0-6.1-2-8.1-2
		c-2,4.1-4.1,12.2-4.1,18.2h-30.4c0-12.2,4.1-24.3,8.1-34.4c-2-4.1-4.1-6.1-4.1-10.1c-8.1,14.2-14.2,32.4-14.2,50.6l0,0l0,0
		c0,54.7,44.6,99.3,99.3,99.3l0,0l0,0l0,0c54.7,0,99.3-44.6,99.3-99.3l0,0l0,0C739.3,164.7,735.3,146.5,725.1,132.3z M548.9,187
		h30.4c0,14.2,4.1,26.3,8.1,38.5H559C552.9,215.3,548.9,201.2,548.9,187z M565.1,235.6h26.3c8.1,14.2,18.2,26.3,30.4,36.5
		C599.5,268,579.3,253.8,565.1,235.6z M634,268c-12.2-8.1-24.3-20.3-30.4-34.4H634V268z M634,225.5h-36.5
		c-4.1-12.2-8.1-24.3-8.1-38.5H636v38.5H634z M644.1,187h46.6c0,14.2-4.1,26.3-10.1,38.5h-36.5V187z M644.1,270v-34.4h32.4
		C668.4,249.8,656.3,259.9,644.1,270z M658.3,270c12.2-8.1,20.3-20.3,28.4-34.4H713C698.8,253.8,680.6,266,658.3,270z M719.1,225.5
		h-28.4c4.1-12.2,8.1-26.3,8.1-38.5h30.4C729.2,201.2,725.1,215.3,719.1,225.5z"/>
	<path class="st0" d="M668.4,193.1l-2-77c0-2,0-2-2-2l-22.3-26.3c-2-2-4.1-4.1-6.1-2c-2,2-2,6.1,0,8.1l22.3,24.3l2,74.9
		c-6.1,2-10.1,6.1-10.1,12.2l0,0c0,8.1,6.1,14.2,14.2,14.2l0,0c6.1,0,12.2-6.1,12.2-12.2l0,0C676.5,199.1,674.5,195.1,668.4,193.1z
		 M668.4,207.2c0,2-2,4.1-4.1,4.1l0,0c-2,0-4.1-2-4.1-4.1l0,0c0-2,2-4.1,4.1-4.1l0,0C666.4,201.2,668.4,203.2,668.4,207.2
		L668.4,207.2z"/>
</g>
<g>
	<path class="st0" d="M326.1-460.1c-12.2,0-22.3-12.2-22.3-26.3c0-14.2,10.1-24.3,22.3-24.3c12.2,0,22.3,10.1,22.3,24.3
		S338.2-460.1,326.1-460.1z M326.1-502.7c-8.1,0-14.2,6.1-14.2,16.2c0,8.1,6.1,18.2,14.2,18.2c8.1,0,14.2-8.1,14.2-18.2
		C338.2-494.6,332.2-502.7,326.1-502.7z"/>
	<path class="st0" d="M295.7-316.3c-2,0-4.1-2-4.1-4.1v-58.7c0-2,2-4.1,4.1-4.1s4.1,2,4.1,4.1v58.7
		C299.7-318.4,297.7-316.3,295.7-316.3z"/>
	<path class="st0" d="M516.5-316.3c-2,0-4.1-2-4.1-4.1v-58.7c0-2,2-4.1,4.1-4.1c2,0,4.1,2,4.1,4.1v58.7
		C520.5-318.4,518.5-316.3,516.5-316.3z"/>
	<path class="st0" d="M313.9-407.5l6.1-8.1c-18.2,0-20.3-8.1-20.3-14.2c0-14.2,12.2-30.4,26.3-30.4c8.1,0,16.2,6.1,20.3,14.2
		l6.1-8.1c-6.1-10.1-16.2-16.2-26.3-16.2c-20.3,0-34.4,20.3-34.4,40.5C289.6-413.6,301.8-409.5,313.9-407.5z"/>
	<path class="st0" d="M449.6-474.3h-87.1c-4.1,0-6.1-2-6.1-4.1v-74.9c0-2,2-4.1,6.1-4.1h87.1c2,0,4.1,2,4.1,4.1v72.9
		C453.7-476.4,451.7-474.3,449.6-474.3z M366.6-484.5h79v-62.8h-79V-484.5z"/>
	<path class="st0" d="M435.5-356.8C437.5-356.8,437.5-356.8,435.5-356.8L435.5-356.8L435.5-356.8z"/>
	<path class="st0" d="M374.7-356.8L374.7-356.8L374.7-356.8L374.7-356.8z"/>
	<path class="st0" d="M540.8-356.8l-87.1-103.3c-2-2-2-2-4.1-2h-87.1c-2,0-2,0-4.1,2l-87.1,103.3c-2,2-2,4.1-2,6.1s2,2,4.1,2h36.5
		c0-4.1,2-6.1,4.1-10.1h-30.4l79-95.2h83.1l79,95.2h-30.4c2,2,2,6.1,4.1,10.1h36.5c2,0,4.1-2,4.1-2
		C542.8-352.8,540.8-354.8,540.8-356.8z"/>
	<path class="st0" d="M467.9-316.3c-8.1,0-34.4,0-34.4-24.3c0-18.2,14.2-40.5,34.4-40.5s34.4,20.3,34.4,40.5
		C502.3-316.3,476-316.3,467.9-316.3z M467.9-371c-14.2,0-26.3,16.2-26.3,30.4c0,8.1,4.1,16.2,26.3,16.2s26.3-8.1,26.3-16.2
		C492.2-352.8,482.1-371,467.9-371z"/>
	<path class="st0" d="M467.9-369c-12.2,0-24.3-12.2-24.3-26.3s10.1-24.3,22.3-24.3s22.3,10.1,22.3,24.3
		C490.2-381.1,480-369,467.9-369z M467.9-411.5c-8.1,0-14.2,6.1-14.2,16.2c0,8.1,6.1,18.2,14.2,18.2c6.1,0,14.2-8.1,14.2-18.2
		S474-411.5,467.9-411.5z"/>
	<path class="st0" d="M405.1-316.3c-8.1,0-34.4,0-34.4-24.3c0-18.2,14.2-40.5,34.4-40.5c20.3,0,34.4,20.3,34.4,40.5
		C439.5-316.3,413.2-316.3,405.1-316.3z M405.1-371c-14.2,0-26.3,16.2-26.3,30.4c0,8.1,4.1,16.2,26.3,16.2s26.3-8.1,26.3-16.2
		C431.4-352.8,419.3-371,405.1-371z"/>
	<path class="st0" d="M405.1-369c-12.2,0-22.3-12.2-22.3-26.3s10.1-24.3,22.3-24.3c12.2,0,22.3,10.1,22.3,24.3
		C429.4-381.1,417.2-369,405.1-369z M405.1-411.5c-8.1,0-14.2,6.1-14.2,16.2c0,8.1,6.1,18.2,14.2,18.2c6.1,0,14.2-8.1,14.2-18.2
		S413.2-411.5,405.1-411.5z"/>
	<path class="st0" d="M344.3-316.3c-8.1,0-34.4,0-34.4-24.3c0-18.2,14.2-40.5,34.4-40.5s34.4,20.3,34.4,40.5
		C378.7-316.3,352.4-316.3,344.3-316.3z M344.3-371c-14.2,0-26.3,16.2-26.3,30.4c0,8.1,4.1,16.2,26.3,16.2s26.3-8.1,26.3-16.2
		C368.6-352.8,358.5-371,344.3-371z"/>
	<path class="st0" d="M344.3-369c-12.2,0-24.3-12.2-24.3-26.3s10.1-24.3,22.3-24.3c12.2,0,22.3,10.1,22.3,24.3
		C366.6-381.1,356.5-369,344.3-369z M344.3-411.5c-8.1,0-14.2,6.1-14.2,16.2c0,8.1,6.1,18.2,14.2,18.2c6.1-2,12.2-10.1,12.2-18.2
		C356.5-405.5,350.4-411.5,344.3-411.5z"/>
</g>
<g>
	<path class="st0" d="M592.4-386.9H320.9c-2,0-4.1-2-4.1-4.1v-145.8c0-8.1,6.1-16.2,16.2-16.2h249.2c8.1,0,16.2,6.1,16.2,16.2V-391
		C598.4-389,596.4-386.9,592.4-386.9z M327-395h261.3v-141.8c0-4.1-2-6.1-6.1-6.1H333.1c-4.1,0-6.1,2-6.1,6.1V-395z"/>
	<path class="st0" d="M478.9-386.9C478.9-386.9,476.9-386.9,478.9-386.9c-4.1,0-4.1-4.1-4.1-6.1l28.4-60.8c2-2,4.1-4.1,6.1-2
		c2,2,2,4.1,2,6.1L483-389C483-386.9,481-386.9,478.9-386.9z"/>
	<path class="st0" d="M553.9-386.9c-2,0-4.1-2-4.1-2l-28.4-60.8c-2-2,0-6.1,2-6.1c2-2,6.1,0,6.1,2l28.4,60.8
		C557.9-391,557.9-386.9,553.9-386.9L553.9-386.9z"/>
	<path class="st0" d="M566-423.4H464.8c-2,0-4.1-2-4.1-4.1v-93.2c0-2,2-4.1,4.1-4.1H566c2,0,4.1,2,4.1,4.1v93.2
		C572.1-425.4,570.1-423.4,566-423.4z M470.8-433.5H562v-83.1h-91.2V-433.5z"/>
	<path class="st0" d="M592.4-395H320.9c-2,0-4.1,2-4.1,4.1v10.1c0,8.1,6.1,16.2,16.2,16.2h60.8v24.3h-24.3c-4.1,0-6.1,2-6.1,6.1
		s2,6.1,6.1,6.1h176.2c4.1,0,6.1-2,6.1-6.1s-2-6.1-6.1-6.1h-22.3v-24.3h60.8c8.1,0,16.2-6.1,16.2-16.2V-391
		C598.4-393,596.4-395,592.4-395z M402-364.7h12.2v24.3H402V-364.7z M491.1-364.7v24.3h-66.8v-24.3H491.1z M513.4-340.3h-14.2v-24.3
		h12.2v24.3H513.4z M588.3-380.9c0,4.1-2,6.1-6.1,6.1h-64.8h-22.3h-74.9h-22.3h-64.8c-4.1,0-6.1-2-6.1-6.1v-6.1h261.3V-380.9z"/>
	<path class="st0" d="M347.3-403.1h2c4.1-2,4.1-4.1,4.1-8.1c-6.1-10.1-6.1-20.3-6.1-26.3c-2-14.2,10.1-20.3,24.3-24.3
		c-8.1,10.1-14.2,26.3-14.2,54.7c0,4.1,0,6.1,0,10.1h10.1c0-4.1,0-8.1,0-10.1c0-34.4,10.1-52.7,26.3-56.7
		c12.2,30.4,8.1,54.7,4.1,68.9H408c4.1-16.2,6.1-40.5-4.1-68.9c18.2,2,28.4,22.3,28.4,56.7c0,4.1,0,6.1,0,10.1h10.1
		c0-4.1,0-8.1,0-10.1c0-28.4-6.1-44.6-14.2-54.7c10.1,2,16.2,6.1,22.3,10.1c10.1,8.1,20.3,14.2,50.6,8.1c2,0,4.1-2,4.1-6.1
		c-4.1,0-8.1-2-10.1-2c-26.3,6.1-32.4,0-42.5-6.1c-8.1-6.1-20.3-14.2-48.6-14.2v-6.1c12.2-2,20.3-12.2,20.3-26.3
		s-12.2-26.3-26.3-26.3c-14.2,0-24.3,14.2-24.3,28.4c0,12.2,10.1,22.3,20.3,26.3v4.1c-36.5,0-56.7,14.2-56.7,36.5
		c0,8.1,0,18.2,8.1,30.4L347.3-403.1z M381.7-502.4c0-10.1,8.1-16.2,16.2-16.2c8.1,0,18.2,6.1,18.2,16.2s-8.1,16.2-16.2,16.2
		S381.7-494.3,381.7-502.4z"/>
	<path class="st0" d="M515.4-386.9c-2,0-4.1-2-4.1-4.1v-38.5c0-2,2-4.1,4.1-4.1c2,0,4.1,2,4.1,4.1v38.5
		C521.5-389,519.4-386.9,515.4-386.9z"/>
	<path class="st0" d="M531.6-500.4h-30.4c-2,0-4.1-2-4.1-4.1c0-2,2-4.1,4.1-4.1h30.4c2,0,4.1,2,4.1,4.1
		C535.6-502.4,533.6-500.4,531.6-500.4z"/>
	<path class="st0" d="M547.8-478.1H487c-2,0-4.1-2-4.1-4.1c0-2,2-4.1,4.1-4.1h60.8c2,0,4.1,2,4.1,4.1
		C551.9-480.1,549.8-478.1,547.8-478.1z"/>
	<path class="st0" d="M547.8-457.8H487c-2,0-4.1-2-4.1-4.1c0-2,2-4.1,4.1-4.1h60.8c2,0,4.1,2,4.1,4.1
		C551.9-459.9,549.8-457.8,547.8-457.8z"/>
</g>
<g>
	<path class="st0" d="M430-353.1c-14.2,0-28.4-4.1-40.5-12.2c-2,0-2-2-2-4.1c0-6.1,0-10.1,0-14.2c0-60.8,30.4-66.8,42.5-66.8
		s42.5,6.1,42.5,66.8c0,4.1,0,8.1,0,14.2c0,2,0,2-2,4.1C460.4-357.2,444.2-353.1,430-353.1z M397.6-371.3
		c18.2,12.2,46.6,12.2,64.8,0c0-4.1,0-8.1,0-12.2c0-36.5-12.2-56.7-32.4-56.7c-20.3,0-32.4,20.3-32.4,56.7
		C397.6-379.5,397.6-375.4,397.6-371.3z M468.5-369.3L468.5-369.3L468.5-369.3z"/>
	<path class="st0" d="M425.9-415.9c0,2-2,4.1-4.1,4.1s-4.1-2-4.1-4.1c0-2,2-4.1,4.1-4.1C423.9-422,425.9-420,425.9-415.9z"/>
	<path class="st0" d="M428-397.7c0,2-2,4.1-4.1,4.1s-4.1-2-4.1-4.1c0-2,2-4.1,4.1-4.1C425.9-401.7,428-399.7,428-397.7z"/>
	<path class="st0" d="M425.9-379.5c0,2-2,4.1-4.1,4.1s-4.1-2-4.1-4.1c0-2,2-4.1,4.1-4.1S425.9-381.5,425.9-379.5z"/>
	<polygon class="st0" points="326.7,-417.9 336.8,-417.9 340.9,-436.2 332.8,-436.2 	"/>
	<path class="st0" d="M351-488.8l-6.1,16.2H355l0,0l6.1-16.2H351L351-488.8z"/>
	<path class="st0" d="M405.7-557.7l20.3,10.1c0-4.1,2-6.1,4.1-8.1l-20.3-10.1C409.7-563.8,409.7-561.8,405.7-557.7z"/>
	<path class="st0" d="M314.5-488.8c-2,2-6.1,4.1-8.1,4.1l14.2,14.2c2-2,6.1-4.1,10.1-4.1L314.5-488.8z"/>
	<path class="st0" d="M332.8-511.1l-16.2,2c0,2,0,2,0,4.1v6.1l16.2-2c0-2,0-2,0-4.1V-511.1z"/>
	<path class="st0" d="M492.8-507.1l-14.2-16.2c-2,2-6.1,4.1-10.1,4.1l0,0l14.2,16.2C486.7-505,488.7-507.1,492.8-507.1z"/>
	<path class="st0" d="M519.1-525.3l-6.1,18.2h8.1h2l6.1-18.2H519.1C521.1-525.3,519.1-525.3,519.1-525.3z"/>
	<path class="st0" d="M507-549.6l-22.3,2c0,0,0,0,0,2v8.1l22.3-2l0,0V-549.6z"/>
	<path class="st0" d="M385.4-553.7h-8.1l0,0l-6.1,18.2h10.1L385.4-553.7z"/>
	<path class="st0" d="M428-527.3c-2-2-2-4.1-2-8.1v-2l-30.4,10.1c2,2,2,6.1,2,8.1l0,0L428-527.3z"/>
	<path class="st0" d="M521.1-458.5h-24.3c-12.2,0-20.3-10.1-20.3-20.3v-8.1c0-12.2,10.1-20.3,20.3-20.3h24.3
		c12.2,0,20.3,10.1,20.3,20.3v6.1C541.4-468.6,533.3-458.5,521.1-458.5z M494.8-499c-6.1,0-12.2,6.1-12.2,12.2v6.1
		c0,6.1,6.1,12.2,12.2,12.2h24.3c6.1,0,12.2-6.1,12.2-12.2v-6.1c0-6.1-6.1-12.2-12.2-12.2H494.8z"/>
	<path class="st0" d="M468.5-519.2h-26.3c-8.1,0-16.2-6.1-16.2-16.2v-12.2c0-8.1,6.1-16.2,16.2-16.2h26.3c8.1,0,16.2,6.1,16.2,16.2
		v12.2C484.7-527.3,476.6-519.2,468.5-519.2z M442.1-553.7c-4.1,0-6.1,2-6.1,6.1v12.2c0,4.1,2,6.1,6.1,6.1h26.3c4.1,0,6.1-2,6.1-6.1
		v-12.2c0-4.1-2-6.1-6.1-6.1C468.5-553.7,442.1-553.7,442.1-553.7z"/>
	<path class="st0" d="M379.3-488.8H351c-10.1,0-18.2-8.1-18.2-18.2v-10.1c0-10.1,8.1-18.2,18.2-18.2h28.4c10.1,0,18.2,8.1,18.2,18.2
		v12.2C397.6-496.9,389.5-488.8,379.3-488.8z M351-525.3c-4.1,0-8.1,4.1-8.1,8.1v12.2c0,4.1,4.1,8.1,8.1,8.1h28.4
		c4.1,0,8.1-4.1,8.1-8.1v-12.2c0-4.1-4.1-8.1-8.1-8.1H351z"/>
	<path class="st0" d="M355-436.2h-24.3c-8.1,0-14.2-6.1-14.2-14.2v-10.1c0-8.1,6.1-14.2,14.2-14.2H355c8.1,0,14.2,6.1,14.2,14.2
		v12.2C367.2-442.2,363.1-436.2,355-436.2z M330.7-464.5c-2,0-4.1,2-4.1,4.1v12.2c0,2,2,4.1,4.1,4.1H355c2,0,4.1-2,4.1-4.1v-12.2
		c0-2-2-4.1-4.1-4.1H330.7z"/>
	<path class="st0" d="M304.4-484.8h-20.3c-8.1,0-14.2-6.1-14.2-14.2v-6.1c0-8.1,6.1-14.2,14.2-14.2h20.3c8.1,0,14.2,6.1,14.2,14.2
		v8.1C318.6-490.9,312.5-484.8,304.4-484.8z M286.2-509.1c-2,0-4.1,2-4.1,4.1v8.1c0,2,2,4.1,4.1,4.1h20.3c2,0,4.1-2,4.1-4.1v-8.1
		c0-2-2-4.1-4.1-4.1C306.4-509.1,286.2-509.1,286.2-509.1z"/>
	<path class="st0" d="M340.9-375.4h-32.4c-8.1,0-14.2-6.1-14.2-14.2v-16.2c0-8.1,6.1-14.2,14.2-14.2h32.4c8.1,0,14.2,6.1,14.2,14.2
		v16.2C355-381.5,349-375.4,340.9-375.4z M308.4-409.8c-2,0-4.1,2-4.1,4.1v16.2c0,2,2,4.1,4.1,4.1h32.4c2,0,4.1-2,4.1-4.1v-16.2
		c0-2-2-4.1-4.1-4.1H308.4z"/>
	<path class="st0" d="M543.4-525.3h-22.3c-8.1,0-14.2-6.1-14.2-14.2v-14.2c0-8.1,6.1-14.2,14.2-14.2h22.3c8.1,0,14.2,6.1,14.2,14.2
		v12.2C557.6-533.4,551.5-525.3,543.4-525.3z M521.1-559.7c-4.1,0-6.1,2-6.1,6.1v12.2c0,4.1,2,6.1,6.1,6.1h22.3c4.1,0,6.1-2,6.1-6.1
		v-12.2c0-4.1-2-6.1-6.1-6.1C543.4-559.7,521.1-559.7,521.1-559.7z"/>
	<path class="st0" d="M395.5-553.7h-20.3c-8.1,0-14.2-6.1-14.2-14.2V-578c0-8.1,6.1-14.2,14.2-14.2h20.3c8.1,0,14.2,6.1,14.2,14.2
		v8.1C411.8-561.8,403.6-553.7,395.5-553.7z M375.3-582c-4.1,0-6.1,2-6.1,6.1v8.1c0,4.1,2,6.1,6.1,6.1h20.3c4.1,0,6.1-2,6.1-6.1
		V-578c0-4.1-2-6.1-6.1-6.1h-20.3V-582z"/>
	<path class="st0" d="M533.3-440.2c-2-2-4.1-4.1-6.1-2c-28.4,14.2-34.4,10.1-44.6,4.1c-8.1-4.1-20.3-12.2-46.6-12.2v-4.1
		c12.2-2,20.3-12.2,20.3-26.3c0-14.2-12.2-26.3-26.3-26.3c-14.2,0-26.3,12.2-26.3,26.3c0,12.2,10.1,22.3,20.3,26.3v4.1
		c-36.5,0-58.7,14.2-58.7,36.5c0,8.1,2,22.3,12.2,38.5c0,2,2,2,4.1,2h2l2-2c0,2,0,4.1,0,6.1l0,0l0,0c0,16.2,2,36.5,6.1,48.6h-6.1
		c-2,0-4.1,2-4.1,4.1c0,2,2,4.1,4.1,4.1h12.2c2,0,2,0,4.1-2c0-2,2-2,0-4.1c-2-8.1-6.1-26.3-6.1-44.6c8.1,4.1,20.3,8.1,30.4,8.1l0,0
		l0,0l0,0c12.2,0,22.3-2,32.4-8.1c-2,16.2-4.1,34.4-6.1,44.6c0,2,0,2,0,4.1c0,2,2,2,4.1,2h12.2c2,0,4.1-2,4.1-4.1c0-2-2-4.1-4.1-4.1
		h-6.1c2-12.2,4.1-34.4,6.1-48.6l0,0l0,0c0-6.1,0-10.1,0-14.2c0-28.4-6.1-44.6-14.2-54.7c8.1,2,14.2,6.1,20.3,8.1
		c14.2,8.1,22.3,10.1,54.7-4.1C533.3-434.1,535.3-438.2,533.3-440.2z M425.9-361.2c-10.1,0-20.3-4.1-28.4-10.1c0-4.1,0-8.1,0-12.2
		c0-34.4,10.1-52.7,26.3-56.7C440.1-401.7,430-371.3,425.9-361.2z M413.8-478.7c0-10.1,8.1-16.2,16.2-16.2
		c10.1,0,16.2,8.1,16.2,16.2c0,10.1-8.1,16.2-16.2,16.2S413.8-470.6,413.8-478.7z M387.4-379.5c-10.1-14.2-10.1-24.3-10.1-32.4
		c0-14.2,12.2-22.3,26.3-24.3c-8.1,10.1-14.2,26.3-14.2,54.7C387.4-381.5,387.4-379.5,387.4-379.5L387.4-379.5z M462.4-371.3
		c-8.1,6.1-16.2,8.1-26.3,8.1c4.1-12.2,12.2-42.5-2-77c18.2,2,28.4,22.3,28.4,56.7C464.4-379.5,464.4-375.4,462.4-371.3z"/>
</g>
<g>
	<path class="st0" d="M1177.6,270.8C1177.6,270.7,1177.6,270.7,1177.6,270.8l0-87.4l0,0l0,0c0-0.3,0-0.7-0.1-1c0-0.1,0-0.1-0.1-0.2
		c-0.1-0.2-0.1-0.5-0.2-0.7c0,0,0-0.1,0-0.1l-12.4-26.7c-0.8-1.6-2.4-2.7-4.2-2.7c-1.8,0-3.4,1-4.2,2.7l-12.3,26.7c0,0,0,0.1,0,0.1
		c-0.1,0.2-0.2,0.5-0.2,0.7c0,0.1,0,0.1-0.1,0.2c-0.1,0.3-0.1,0.6-0.1,1v0l0,0v87.3c0,0,0,0,0,0.1s0,0,0,0v16.7c0,1.2,0.4,3,2,4.6
		c3.9,3.9,12.5,4.2,15,4.2c8.2,0,17-2.3,17-8.9V270.8C1177.6,270.8,1177.6,270.8,1177.6,270.8z M1152.8,191.4
		c3.2,0.7,6.4,0.8,7.7,0.8c0,0,0,0,0,0c1.4,0,4.5-0.1,7.7-0.8v77.7c-1.2,0.5-3.9,1.2-7.7,1.2c0,0,0,0,0,0c-3.9,0-6.5-0.7-7.7-1.2
		V191.4z M1160.6,167.7l6.7,14.4c-1.5,0.4-3.7,0.8-6.7,0.8h0c-3,0-5.2-0.4-6.7-0.8L1160.6,167.7z M1160.6,287.1
		c-3.8,0-6.4-0.7-7.7-1.2l0-7.1c2.4,0.5,5.1,0.8,7.7,0.8c0,0,0,0,0,0c2.8,0,5.4-0.3,7.7-0.8v7.1
		C1167,286.5,1164.4,287.1,1160.6,287.1z"/>
	<path class="st0" d="M974.4,231.5c-2.6,0-4.6-2.1-4.6-4.6V80c0-12.8,10.4-23.3,23.3-23.3c2.6,0,4.6,2.1,4.6,4.6v146.8
		c0,2.6-2.1,4.6-4.6,4.6c-7.7,0-14,6.3-14,14C979.1,229.4,977,231.5,974.4,231.5z M988.4,66.8c-5.5,1.9-9.4,7.1-9.4,13.2v128.2
		c2.7-2.1,5.9-3.5,9.4-4.2V66.8z"/>
	<path class="st0" d="M1117.9,296.4h-96.8c-2.6,0-4.6-2.1-4.6-4.6V156.7c0-2.6,2.1-4.6,4.6-4.6h96.8c2.5,0,4.6,2.1,4.6,4.6v135.1
		C1122.6,294.3,1120.5,296.4,1117.9,296.4z M1025.8,287.1h87.5V161.3h-87.5V287.1z"/>
	<path class="st0" d="M1101.8,201h-64.5c-2.6,0-4.6-2.1-4.6-4.6v-24.2c0-2.6,2.1-4.7,4.6-4.7h64.5c2.6,0,4.6,2.1,4.6,4.7v24.2
		C1106.4,198.9,1104.3,201,1101.8,201z M1041.9,191.7h55.2v-14.9h-55.2V191.7z"/>
	<path class="st0" d="M1049.9,240.8c-9.5,0-17.3-7.7-17.3-17.2c0-9.5,7.8-17.3,17.3-17.3c9.5,0,17.3,7.7,17.3,17.3
		C1067.1,233,1059.4,240.8,1049.9,240.8z M1049.9,215.6c-4.4,0-8,3.6-8,8c0,4.4,3.6,8,8,8c4.4,0,8-3.6,8-8
		C1057.8,219.1,1054.3,215.6,1049.9,215.6z"/>
	<path class="st0" d="M1089.2,240.8c-9.5,0-17.2-7.7-17.2-17.2c0-9.5,7.8-17.3,17.2-17.3c9.5,0,17.3,7.7,17.3,17.3
		C1106.4,233,1098.7,240.8,1089.2,240.8z M1089.2,215.6c-4.4,0-8,3.6-8,8c0,4.4,3.6,8,8,8c4.4,0,8-3.6,8-8
		C1097.2,219.1,1093.6,215.6,1089.2,215.6z"/>
	<path class="st0" d="M1049.9,280.6c-9.5,0-17.3-7.7-17.3-17.2c0-9.5,7.8-17.3,17.3-17.3c9.5,0,17.3,7.7,17.3,17.3
		C1067.1,272.9,1059.4,280.6,1049.9,280.6z M1049.9,255.4c-4.4,0-8,3.6-8,8c0,4.4,3.6,8,8,8c4.4,0,8-3.6,8-8
		C1057.8,259,1054.3,255.4,1049.9,255.4z"/>
	<path class="st0" d="M1089.2,280.6c-9.5,0-17.2-7.7-17.2-17.2c0-9.5,7.8-17.3,17.2-17.3c9.5,0,17.3,7.7,17.3,17.3
		C1106.4,272.9,1098.7,280.6,1089.2,280.6z M1089.2,255.4c-4.4,0-8,3.6-8,8c0,4.4,3.6,8,8,8c4.4,0,8-3.6,8-8
		C1097.2,259,1093.6,255.4,1089.2,255.4z"/>
	<path class="st0" d="M1168.5,98h-17.4l0,0l0,0h-21.6l0,0h0h-21.6l0,0c0,0,0,0,0,0h-21.6l0,0l0,0h-21.6l0,0c0,0,0,0,0,0h-21.6h0l0,0
		h-17.4l0,0c-2.4,0-4.7,0.9-6.4,2.6c-1.7,1.7-2.7,4-2.7,6.4v21.4c0,5,4.1,9,9,9h143c2.4,0,4.7-0.9,6.4-2.7c1.7-1.7,2.7-3.9,2.6-6.4
		v-21.4C1177.6,102.1,1173.5,98,1168.5,98z M1168.3,128.2h-142.5v-20.9h12.5v10.4c0,2.6,2.1,4.6,4.6,4.6c2.6,0,4.6-2.1,4.6-4.6
		v-10.4h12.4v5.8c0,2.6,2.1,4.6,4.6,4.6c2.6,0,4.6-2.1,4.6-4.6v-5.8h12.4v10.4c0,2.6,2.1,4.6,4.6,4.6c2.6,0,4.6-2.1,4.6-4.6v-10.4
		h12.4v5.8c0,2.6,2.1,4.6,4.6,4.6c2.5,0,4.6-2.1,4.6-4.6v-5.8h12.4v10.4c0,2.6,2.1,4.6,4.6,4.6c2.6,0,4.6-2.1,4.6-4.6v-10.4h12.4
		v5.8c0,2.6,2.1,4.6,4.6,4.6c2.6,0,4.6-2.1,4.6-4.6v-5.8h12.5V128.2z"/>
	<path class="st0" d="M1195,75.4H974.4c-2.6,0-4.6,2.1-4.6,4.6v146.8c0,12.8,10.4,23.3,23.3,23.3h23.5v-9.3H993c-7.7,0-14-6.3-14-14
		V84.7h211.3v156.2h-12.8v9.3h17.5c2.6,0,4.6-2.1,4.6-4.6V80C1199.7,77.5,1197.6,75.4,1195,75.4z"/>
	<rect x="1122.6" y="240.9" class="st0" width="21" height="9.3"/>
</g>
<g>
	<path class="st0" d="M412.5-333.8h-29.4c-2.6,0-4.6-2.1-4.6-4.6c0-2.6,2.1-4.6,4.6-4.6h29.4c2.6,0,4.6,2.1,4.6,4.6
		C417.2-335.9,415.1-333.8,412.5-333.8z"/>
	<path class="st0" d="M416.4-313.5h-43.6c-2.6,0-4.6-2.1-4.6-4.7c0-2.6,2.1-4.6,4.6-4.6h43.6c2.5,0,4.6,2.1,4.6,4.6
		C421-315.6,418.9-313.5,416.4-313.5z"/>
	<path class="st0" d="M601.3-288.4c0-0.1,0-0.1,0-0.2c-0.1-0.4-0.2-0.7-0.3-1c0,0,0-0.1,0-0.1l-32.4-68.1v-163.3
		c0-2.6-2.1-4.6-4.6-4.6H366.6c-2.6,0-4.6,2.1-4.6,4.6v163.3l-32.4,68.1c0,0,0,0,0,0.1c-0.1,0.3-0.3,0.7-0.3,1c0,0.1,0,0.1,0,0.2
		c-0.1,0.2-0.1,0.5-0.1,0.7v17.6c0,2.6,2.1,4.6,4.6,4.6h263c2.6,0,4.6-2.1,4.6-4.6v-17.6C601.4-288,601.3-288.2,601.3-288.4z
		 M371.3-516.4h188v155.1h-188V-516.4z M369.6-352.1H561l28.4,59.7H341.1L369.6-352.1z M592.1-274.8H338.4v-8.3h253.7V-274.8z"/>
	<path class="st0" d="M539.3-299.2H429.4c-1.8,0-3.5-1.1-4.3-2.8c-0.7-1.7-0.4-3.6,0.8-5c7.6-8.3,7.6-21.8,0-30.2
		c-1.2-1.4-1.5-3.3-0.8-5c0.7-1.7,2.4-2.8,4.3-2.8h109.9c2.6,0,4.6,2.1,4.6,4.7v36.4C543.9-301.3,541.8-299.2,539.3-299.2z
		 M437.9-308.5h96.7v-27.1h-96.7C441.8-327.1,441.8-317,437.9-308.5z"/>
	<path class="st0" d="M519.6-317.4h-65.7c-2.6,0-4.6-2.1-4.6-4.6c0-2.6,2.1-4.6,4.6-4.6h65.7c2.6,0,4.6,2.1,4.6,4.6
		C524.2-319.5,522.1-317.4,519.6-317.4z"/>
	<path class="st0" d="M511.5-352.1H401.6c-1.7,0-3.3-1-4.1-2.4c-0.8-1.5-0.7-3.3,0.2-4.8c8.1-12.1,8.1-32.5,0-44.6
		c-0.5-0.8-0.8-1.7-0.8-2.6c0-4.6,3.3-4.6,9.4-4.6h105.2c2.6,0,4.6,2.1,4.6,4.6v49.8C516.1-354.2,514-352.1,511.5-352.1z
		 M409.2-361.3h97.6v-40.5c-17,0-76.3,0-97.6,0C414.4-389.4,414.4-373.8,409.2-361.3z"/>
	<path class="st0" d="M547.4-509.3H383.1c-2.6,0-4.6,2.1-4.6,4.6v131.5c0,2.6,2.1,4.6,4.6,4.6h18.8c0.9-2.9,1.4-6.1,1.7-9.3h-15.9
		V-500h155.1v122.2h-26.7v9.3h31.3c2.6,0,4.6-2.1,4.6-4.6v-131.5C552.1-507.2,550-509.3,547.4-509.3z"/>
	<path class="st0" d="M543.6-342l-17-42.2c-0.7-1.8-2.4-2.9-4.3-2.9h-6.2v9.3h3.1l13.3,32.9h-96.2l2.9-7.2h-10l-4.1,10.1
		c-0.6,1.4-0.4,3,0.5,4.3c0.9,1.3,2.3,2.1,3.9,2.1h109.9c1.5,0,3-0.8,3.8-2.1C544-338.9,544.2-340.5,543.6-342z"/>
	<path class="st0" d="M494.1-368.5H424c-2.6,0-4.6-2.1-4.6-4.6c0-2.6,2.1-4.6,4.6-4.6h70.1c2.5,0,4.6,2.1,4.6,4.6
		C498.7-370.5,496.6-368.5,494.1-368.5z"/>
	<path class="st0" d="M494.1-385.5H424c-2.6,0-4.6-2.1-4.6-4.6c0-2.6,2.1-4.6,4.6-4.6h70.1c2.5,0,4.6,2.1,4.6,4.6
		C498.7-387.6,496.6-385.5,494.1-385.5z"/>
	<path class="st0" d="M511.5-401.9H401.6c-1.5,0-3-0.8-3.9-2c-0.9-1.3-1-2.9-0.5-4.3l17-42.2c0.7-1.8,2.4-2.9,4.3-2.9h75.9
		c1.9,0,3.6,1.1,4.3,2.9l17,42.2c0.6,1.4,0.4,3-0.5,4.3C514.4-402.6,513-401.9,511.5-401.9z M408.4-411.1h96.2l-13.2-32.9h-69.7
		L408.4-411.1z"/>
</g>
<g>
	<path class="st0" d="M384.4,858.5c-0.4,0-0.9-0.1-1.3-0.2c-44.8-13.5-76.2-55.6-76.2-102.5c0-46.8,31.3-88.9,76-102.4
		c2.5-0.7,5,0.7,5.8,3.1c0.7,2.4-0.7,5-3.1,5.8c-40.9,12.3-69.4,50.8-69.4,93.5c0,42.8,28.6,81.3,69.6,93.6c2.5,0.7,3.8,3.3,3.1,5.8
		C388.2,857.2,386.4,858.5,384.4,858.5z"/>
	<path class="st0" d="M375.2,664.6c-4.8,0-9.9-1.5-15.1-4.5c-1.4-0.8-2.3-2.2-2.3-3.8c-0.4-9.9,2.5-17.5,8.6-22.5
		c12.5-10.3,33.8-5.3,34.7-5c1.2,0.3,2.2,1,2.9,2.1c0.7,1,0.8,2.3,0.5,3.5c-0.2,0.9-5.5,22.1-20.4,28.5
		C381.2,664,378.2,664.6,375.2,664.6z M367,653.2c5,2.4,9.4,2.7,13.4,1c6.7-2.9,11.2-11.3,13.5-17.4c-6.4-0.7-16-0.6-21.6,4
		C368.9,643.6,367.1,647.7,367,653.2z"/>
	<path class="st0" d="M308.6,732.7c-0.6,0-1.2-0.1-1.7-0.3c-9.2-3.7-14.9-9.5-16.9-17.2c-4.2-15.6,9.2-32.9,9.8-33.6
		c0.8-1,1.9-1.6,3.1-1.7c1.2-0.1,2.5,0.2,3.4,1c0.7,0.6,17.8,14.2,17.5,30.4c-0.2,8-4.4,14.9-12.4,20.7
		C310.6,732.4,309.6,732.7,308.6,732.7z M304.3,691.4c-3.3,5.6-7.2,14.4-5.3,21.4c1.1,4.1,4.1,7.4,9.1,9.9c4.3-3.6,6.4-7.5,6.5-11.8
		C314.6,703.6,308.8,696,304.3,691.4z"/>
	<path class="st0" d="M310.1,812.4c-3.7,0-7.3-0.9-10.6-2.6c-14.3-7.6-17.9-29.1-18.1-30c-0.2-1.2,0.1-2.5,0.8-3.5
		c0.7-1,1.8-1.6,3-1.9c0.9-0.1,22.5-3.4,34.2,7.8c5.7,5.5,8,13.3,6.8,23.1c-0.2,1.6-1.2,3-2.6,3.6
		C318.9,811.3,314.3,812.4,310.1,812.4z M321.7,804.8L321.7,804.8L321.7,804.8z M291.8,783.2c1.8,6.2,5.7,15,12.1,18.4
		c3.8,2,8.2,2,13.4,0.1c0.3-5.6-1.1-9.8-4.2-12.7C307.8,783.9,298.2,783,291.8,783.2z"/>
	<path class="st0" d="M361.6,876.1c-14.2,0-27.6-11.8-28.2-12.3c-0.9-0.8-1.5-2-1.5-3.2c-0.1-1.2,0.4-2.4,1.2-3.3
		c0.6-0.7,15.3-16.8,31.4-15.5c7.9,0.7,14.6,5.3,19.9,13.7c0.8,1.3,0.9,3,0.2,4.5c-4.3,8.9-10.4,14.3-18.2,15.8
		C364.7,875.9,363.1,876.1,361.6,876.1z M343.4,859.9c5.3,3.7,13.9,8.1,21,6.6c4.2-0.8,7.6-3.6,10.4-8.4c-3.3-4.5-7-6.8-11.3-7.2
		C356.2,850.3,348.3,855.6,343.4,859.9z"/>
	<path class="st0" d="M443.2,858.5c-2,0-3.8-1.3-4.4-3.3c-0.8-2.5,0.6-5,3.1-5.8c41-12.3,69.6-50.8,69.6-93.6
		c0-42.7-28.5-81.2-69.4-93.5c-2.5-0.8-3.9-3.3-3.1-5.8c0.8-2.5,3.3-3.8,5.8-3.1c44.7,13.5,76,55.6,76,102.4
		c0,46.9-31.3,89-76.2,102.5C444.1,858.5,443.7,858.5,443.2,858.5z"/>
	<path class="st0" d="M452.5,664.6c-3.1,0-6-0.6-8.8-1.8c-14.9-6.4-20.2-27.6-20.4-28.5c-0.3-1.2-0.1-2.5,0.6-3.5
		c0.6-1,1.7-1.8,2.9-2.1c0.9-0.2,22.1-5.2,34.7,5c6.1,5,9,12.6,8.6,22.5c-0.1,1.6-1,3-2.3,3.8C462.3,663.1,457.3,664.6,452.5,664.6z
		 M465.3,656L465.3,656L465.3,656z M433.8,636.8c2.3,6.1,6.8,14.5,13.5,17.4c4,1.7,8.3,1.3,13.4-1c-0.2-5.6-1.9-9.6-5.3-12.3
		C449.8,636.2,440.2,636.1,433.8,636.8z"/>
	<path class="st0" d="M519,732.7c-1,0-1.9-0.3-2.7-0.9c-8-5.8-12.2-12.8-12.4-20.7c-0.3-16.2,16.8-29.8,17.5-30.4
		c1-0.8,2.2-1.1,3.4-1c1.2,0.2,2.3,0.8,3.1,1.7c0.6,0.7,13.9,18,9.8,33.6c-2,7.7-7.7,13.5-16.9,17.2
		C520.2,732.6,519.6,732.7,519,732.7z M523.4,691.4c-4.5,4.6-10.4,12.2-10.2,19.5c0.1,4.3,2.2,8.1,6.4,11.7c5-2.5,8-5.7,9.1-9.9
		C530.6,705.8,526.7,697,523.4,691.4z"/>
	<path class="st0" d="M520.3,812.4c-4.3,0-8.8-1.1-13.6-3.4c-1.4-0.7-2.5-2.1-2.6-3.6c-1.2-9.8,1.1-17.6,6.8-23.1
		c11.7-11.2,33.3-7.9,34.2-7.8c1.2,0.2,2.3,0.9,3,1.9c0.7,1,1,2.3,0.8,3.5c-0.1,0.9-3.8,22.5-18.1,30
		C527.6,811.6,524,812.4,520.3,812.4z M513.1,801.7c5.2,2,9.6,1.9,13.4-0.1c6.4-3.4,10.3-12.2,12.1-18.4c-6.5-0.2-16,0.7-21.3,5.7
		C514.2,791.9,512.9,796.1,513.1,801.7z"/>
	<path class="st0" d="M466.1,876.1c-1.6,0-3.1-0.1-4.7-0.5c-7.8-1.5-13.9-6.9-18.2-15.8c-0.7-1.4-0.6-3.1,0.3-4.5
		c5.3-8.4,11.9-13,19.9-13.7c16.1-1.3,30.8,14.8,31.4,15.5c0.8,0.9,1.2,2.1,1.2,3.3c-0.1,1.2-0.6,2.4-1.5,3.2
		C493.7,864.3,480.3,876.1,466.1,876.1z M452.7,858.1c2.8,4.8,6.2,7.6,10.4,8.4c7.1,1.4,15.6-3,21-6.6c-4.9-4.2-12.9-9.6-20.1-8.9
		C459.8,851.3,456,853.6,452.7,858.1z"/>
	<path class="st0" d="M466.1,876.1c-6.9,0-16.5-2.8-23-16.3c-0.7-1.4-0.6-3.1,0.3-4.5c7.1-11.4,15.8-13.7,21.8-13.7
		c15.3,0,28.9,15,29.4,15.6c0.8,0.9,1.2,2.1,1.2,3.3c-0.1,1.2-0.6,2.4-1.5,3.2C493.8,864.2,480.3,876.1,466.1,876.1z M452.7,858.1
		c3.4,5.9,7.8,8.7,13.4,8.7c6.8,0,13.8-4,18-6.9c-4.2-3.7-11.6-9-18.9-9C460.5,850.9,456.4,853.2,452.7,858.1z"/>
	<path class="st0" d="M529,743.8l-114-31.8c-0.8-0.2-1.7-0.2-2.5,0l-114,31.8c-2,0.6-3.4,2.4-3.4,4.5c0,2.1,1.4,3.9,3.4,4.5
		l114,31.9c0.4,0.1,0.8,0.2,1.2,0.2s0.8,0,1.2-0.2l37.8-10.6l0.6,47.6c-0.9,1-1.4,2.4-1.4,3.9c0,3.3,2.7,6.1,6.1,6.1
		s6.1-2.7,6.1-6.1c0-1.5-0.6-2.9-1.5-4l-0.6-50.1l66.9-18.7c2-0.6,3.4-2.4,3.4-4.5C532.4,746.2,531,744.4,529,743.8z M457.8,763
		l-42.1-19c-2.3-1-5.1,0-6.1,2.3c-1,2.3,0,5.1,2.3,6.1l32,14.4l-30.1,8.4l-96.7-27l96.7-27.1l96.7,27.1L457.8,763z"/>
	<path class="st0" d="M485.1,765l-9.3,2.6v14.9c0,0.1,0,0.1,0,0.1l0,0.2c0,4.9-4.8,10.1-13.4,14.4l0.1,10.2
		c14-6,22.5-14.7,22.5-24.6c0-0.1,0-0.3,0-0.5V765z"/>
	<path class="st0" d="M453.3,801c-10.4,3.5-23.9,5.8-39.4,5.8c-36.5,0-62-12.6-62-23.9v-15.3l-9.3-2.6v17.8
		c0,18.9,30.7,33.2,71.3,33.2c14.9,0,28.4-1.9,39.6-5.3L453.3,801z"/>
</g>
<g>
	<path class="st0" d="M930.4,631.9c-0.7,0-1.5-0.2-2.1-0.5L896,614.5c-4.9,0.8-10,1.3-15.1,1.3c-36.7,0-66.6-22-66.6-49.1
		c0-27.1,29.9-49.1,66.6-49.1c36.7,0,66.6,22,66.6,49.1c0,12.4-6.1,24.1-17.3,33.1l4.8,26.7c0.3,1.7-0.4,3.5-1.8,4.5
		C932.4,631.6,931.4,631.9,930.4,631.9z M896.7,605c0.8,0,1.5,0.2,2.1,0.5l25.3,13.2l-3.7-20.2c-0.3-1.7,0.4-3.5,1.8-4.6
		c10.2-7.5,15.9-17.2,15.9-27.4c0-22-25.7-39.8-57.3-39.8c-31.6,0-57.3,17.9-57.3,39.8c0,22,25.7,39.9,57.3,39.9
		c5.1,0,10.1-0.5,15-1.4C896.1,605,896.4,605,896.7,605z"/>
	<path class="st0" d="M858,594c-1.2,0-2.4-0.5-3.3-1.4c-1.8-1.8-1.8-4.7,0-6.6l45.8-45.8c1.8-1.8,4.7-1.8,6.6,0
		c1.8,1.8,1.8,4.7,0,6.6l-45.8,45.8C860.3,593.5,859.2,594,858,594z"/>
	<path class="st0" d="M865.5,563.9L865.5,563.9c-3.3,0-6.5-1.3-8.8-3.7c-4.8-4.8-4.8-12.8,0-17.6c4.9-4.9,12.8-4.9,17.7,0
		c2.4,2.3,3.6,5.5,3.6,8.8c0,3.3-1.3,6.5-3.6,8.8l0,0C872,562.6,868.8,563.9,865.5,563.9z M865.5,548.2c-0.8,0-1.6,0.3-2.3,0.9
		c-1.2,1.2-1.2,3.3,0,4.5c0.6,0.6,1.4,0.9,2.3,0.9l0,0c0.9,0,1.7-0.3,2.3-0.9l0,0c0.6-0.6,0.9-1.4,0.9-2.3c0-0.9-0.4-1.6-0.9-2.3
		C867.1,548.5,866.3,548.2,865.5,548.2z"/>
	<path class="st0" d="M895.9,594c-6.9,0-12.5-5.6-12.5-12.5c0-6.9,5.6-12.5,12.5-12.5c3.3,0,6.4,1.3,8.8,3.7
		c2.4,2.4,3.7,5.5,3.7,8.8l0,0l0,0c0,3.3-1.3,6.5-3.7,8.8S899.2,594,895.9,594z M895.9,578.3c-1.8,0-3.2,1.4-3.2,3.2
		c0,1.8,1.4,3.2,3.2,3.2c0.9,0,1.6-0.3,2.3-1c0.6-0.6,0.9-1.4,0.9-2.3l0,0c0-0.9-0.3-1.7-0.9-2.3
		C897.6,578.7,896.8,578.3,895.9,578.3z"/>
	<path class="st0" d="M1016.6,694.8c-1,0-1.9-0.3-2.7-0.9c-1.4-1-2.1-2.8-1.8-4.6l4.8-26.7c-11.2-9-17.3-20.7-17.3-33.1
		c0-27.1,29.9-49.1,66.6-49.1c36.7,0,66.6,22,66.6,49.1s-29.9,49.1-66.6,49.1c-5.1,0-10.2-0.4-15.1-1.3l-32.3,16.9
		C1018.1,694.7,1017.3,694.8,1016.6,694.8z M1066.2,589.7c-31.6,0-57.3,17.9-57.3,39.8c0,10.2,5.6,19.9,15.8,27.4
		c1.4,1,2.1,2.8,1.8,4.6l-3.6,20.1l25.3-13.2c0.9-0.5,2-0.6,3-0.5c4.9,0.9,9.9,1.4,15,1.4c31.6,0,57.3-17.9,57.3-39.9
		C1123.5,607.6,1097.8,589.7,1066.2,589.7z"/>
	<path class="st0" d="M1043.6,657c-1.2,0-2.4-0.5-3.3-1.4c-1.8-1.8-1.8-4.7,0-6.6l45.8-45.8c1.8-1.8,4.7-1.8,6.5,0
		c1.8,1.8,1.8,4.7,0,6.6l-45.8,45.8C1046,656.5,1044.8,657,1043.6,657z"/>
	<path class="st0" d="M1051.1,626.9L1051.1,626.9c-3.4,0-6.5-1.3-8.8-3.7c-4.9-4.9-4.9-12.8,0-17.6c4.8-4.9,12.8-4.9,17.6,0
		c2.4,2.4,3.7,5.5,3.7,8.8c0,3.3-1.3,6.5-3.7,8.8l0,0C1057.6,625.6,1054.5,626.9,1051.1,626.9z M1051.1,611.2
		c-0.8,0-1.6,0.3-2.3,0.9c-1.2,1.3-1.2,3.3,0,4.5c0.6,0.6,1.4,0.9,2.3,0.9l0,0c0.9,0,1.6-0.3,2.3-0.9l0,0c0.6-0.6,0.9-1.4,0.9-2.3
		c0-0.9-0.3-1.6-0.9-2.3C1052.8,611.5,1051.9,611.2,1051.1,611.2z"/>
	<path class="st0" d="M1081.5,657c-6.9,0-12.5-5.6-12.5-12.5c0-6.9,5.6-12.5,12.5-12.5c3.3,0,6.5,1.3,8.8,3.6
		c2.4,2.4,3.7,5.5,3.7,8.8l0,0l0,0c0,3.3-1.3,6.5-3.7,8.8C1088,655.6,1084.9,657,1081.5,657z M1081.5,641.3c-1.7,0-3.2,1.4-3.2,3.2
		c0,1.8,1.4,3.2,3.2,3.2c0.9,0,1.7-0.3,2.3-0.9c0.6-0.6,0.9-1.4,0.9-2.3l0,0c0-0.9-0.3-1.7-0.9-2.3
		C1083.2,641.6,1082.4,641.3,1081.5,641.3z"/>
	<path class="st0" d="M1051.1,677.4l-5.4,2.9c-0.8,12.6-4.5,24.8-10.8,35.8c-5.5,9.5-12.5,17.6-21.1,24.2c-0.1-0.1-0.1-0.2-0.2-0.3
		c-0.1-0.1-0.1-0.2-0.1-0.3c-0.3-0.5-0.6-1.1-0.9-1.6c-0.1-0.1-0.1-0.2-0.2-0.3c-0.4-0.5-0.8-1.1-1.3-1.6c-0.1-0.1-0.2-0.1-0.2-0.2
		c-0.5-0.6-1.1-1.1-1.8-1.6c0,0-0.1-0.1-0.1-0.1c-0.7-0.6-1.5-1.1-2.4-1.6c-2-1.1-2.8-2-3.1-2.3c-0.1-0.1-0.1-0.2-0.1-0.2
		c0.1-0.9,2.2-3.3,3.5-4.6c2.6-2.8,5.5-6.1,6.6-10.2c2.5-8.8-2.9-19.8-11-22.3c-3.9-1.2-8.8-0.3-12.1,5.1c-0.8,1.2-1.5,2.7-2.1,4.5
		c-2.7,8.3-6.2,10.1-7.6,9.9c-2.6-1.3-11.5-5.1-18-2.7c-5.1,1.9-8,3.8-10.6,5.5c-1.3,0.9-2.6,1.7-4.1,2.5c-2,1-4.2,1.4-5.3,0.8
		c-0.9-0.5-1.6-2.3-1.7-4.8c-0.2-2.8,1-5.6,3.4-8.2c3.6-4,8.7-6.1,10.5-6.2c0.2,0,0.4,0,0.6-0.1c3.5-0.6,6.5-3.6,8.1-8.1
		c1.6-4.6,1.8-11.3-2.5-16.2c-1.8-2-2.2-4-1.4-5.9c1.1-2.5,4.2-4.1,8.1-4.1c6.7,0,8.1,2.5,12.1,9.6c0.7,1.2,1.5,2.6,2.3,4
		c2.7,4.5,7.7,7.1,13,6.5c4.9-0.5,8.8-3.4,10.2-7.5c0.9-2.7,1.5-8.3-5.2-14.8c-1.3-1.3-1.6-2-1.6-2c0.5-1.1,4.2-3.3,6.2-4.5
		c1.2-0.7,2.5-1.5,3.8-2.3c-2-2.5-3.6-5.1-4.9-7.9c-1.1,0.7-2.3,1.4-3.5,2.2c-4.7,2.8-10,5.9-10.7,11.3c-0.4,3.3,1.1,6.6,4.4,9.8
		c2.7,2.7,3.1,4.5,2.9,5.1c-0.2,0.5-1.1,1.2-2.4,1.3c-0.8,0.1-2.9,0-4.1-2c-0.8-1.4-1.5-2.6-2.2-3.8c-4.3-7.6-8-14.2-20.2-14.3
		c-0.1,0-0.1,0-0.2,0c-2.7,0-5.3,0.5-7.7,1.5h0c-0.5,0.2-1,0.5-1.5,0.7c-0.3,0.1-0.6,0.2-0.8,0.4c-0.2,0.1-0.3,0.2-0.5,0.3
		c-2.7,1.7-4.8,3.9-6,6.7c-2.4,5.3-1.3,11.2,2.9,15.9c1.4,1.6,1.3,4,1.2,4.9c-0.2,2.1-1.1,3.6-1.6,4.1c-4.5,0.5-11.3,3.8-16.2,9.2
		c-4.1,4.5-6,9.7-5.7,15c0.4,7.5,3.7,10.9,6.4,12.4c3.9,2.2,9.2,1.9,14.1-0.7c1.9-1,3.4-2,4.9-2.9c2.4-1.6,4.6-3,8.8-4.6
		c2.3-0.8,7.8,0.9,11,2.5c0.2,0.1,0.4,0.2,0.6,0.2c0.7,0.2,4.3,1.3,8.7-0.9c4.7-2.3,8.3-7.3,10.8-14.9c0.1-0.4,1.3-4.1,2.7-3.6
		c2.6,0.8,6,6.5,4.7,10.9c-0.6,2.1-2.6,4.4-4.6,6.6c-3.1,3.4-6.5,7.3-5.7,12.3c0.1,0.9,0.4,1.7,0.8,2.5c0.7,1.3,1.7,2.6,3,3.8
		c1.1,1,2.4,1.9,4,2.8c0.4,0.2,0.7,0.5,1.1,0.7c0.1,0.1,0.2,0.1,0.3,0.2c0.2,0.2,0.4,0.3,0.6,0.5c0.1,0.1,0.2,0.2,0.2,0.2
		c0.2,0.2,0.3,0.4,0.5,0.5c0,0,0.1,0.1,0.2,0.2c0.2,0.2,0.3,0.5,0.4,0.7c0,0.1,0,0.1,0.1,0.2c0.1,0.2,0.2,0.4,0.2,0.6
		c0,0.1,0.1,0.2,0.1,0.3c0,0.2,0.1,0.4,0.1,0.5c0,0.1,0.1,0.2,0.1,0.3c0,0,0,0.1,0,0.1c-25.9,15.6-57.9,16.1-84.3,0.9
		c-17-9.8-29.8-25-36.5-43.3c0.1,0,0.2,0,0.3,0c0.6,0,1.2,0,1.8,0c0.2,0,0.3,0,0.5,0.1c0.7,0.1,1.3,0.2,1.9,0.4
		c0.1,0,0.2,0.1,0.3,0.1c0.5,0.2,0.9,0.4,1.3,0.7c0.1,0.1,0.3,0.2,0.4,0.3c0.5,0.4,0.9,0.8,1.2,1.2c0.6,0.8,1.3,1.5,2,2.1
		c0.2,0.2,0.4,0.3,0.6,0.5c0.6,0.4,1.1,0.8,1.8,1.1c0.2,0.1,0.4,0.3,0.6,0.4c0.8,0.4,1.7,0.7,2.6,0.9c0.2,0,0.3,0,0.5,0.1
		c0.7,0.1,1.5,0.2,2.3,0.3c0.2,0,0.3,0,0.4,0c0.2,0,0.3,0,0.5-0.1c0.6,0,1.3-0.1,1.9-0.2c0.3-0.1,0.6-0.1,0.9-0.2
		c0.9-0.2,1.9-0.4,2.8-0.8c9.1-3.3,18.9-14.2,18.5-23.7c-0.2-5.3-3.5-9.2-9-10.7c-3.8-1.1-4.4-2.1-4.4-2.1c-0.3-0.7,0.6-3.1,1.2-4.5
		c1.7-4.5,5.3-13.8-7-18.8c-4.8-2-5.8-4-5.6-4.4c0.5-1.2,4.5-3.2,11.2-0.8c4.9,1.8,19.8,7.3,30-6.1c5-6.5,7.7-13.6,9.2-19.1
		c6.8,5.9,17.8,13.9,27.2,13.4c4.3-0.2,7.9-2.2,10.4-5.6c5.2-6.9,4.4-12.2,2.7-15.4c-2.3-4.5-7.3-6.9-11-8c0-0.2,0-0.5,0-0.8
		c0-0.2,0-0.3,0-0.5c0-0.2,0-0.3,0-0.4c0-0.2,0-0.4,0-0.7c0-0.2,0-0.3,0-0.5c0-0.9,0-2,0-3.2c0-0.2,0-0.4,0-0.7c0-0.4,0-0.7,0-1.1
		c0-0.3,0-0.7,0-1.1c0-0.3,0-0.7,0-1c0-0.1,0-0.1,0-0.2c7.4,1.9,14.5,4.7,21.1,8.6c1.4,0.8,2.7,1.6,4.1,2.5c1.9-2.4,4-4.7,6.4-6.9
		c-1.9-1.3-3.9-2.6-5.9-3.7c-9.1-5.2-19-8.9-29.3-10.8c-12.4-2.3-24.9-1.9-36.8,0.8c-2.5,4.6-5.9,8.8-10.1,12.7
		c12.9-5,27-6.9,41.2-5c0,0.5,0,1-0.1,1.5c0,0.4,0,0.8-0.1,1.2c0,0.7,0,1.4-0.1,2c0,0.2,0,0.5,0,0.7c0,0.8,0,1.6,0,2.4
		c0,0.1,0,0.2,0,0.3c0,0.6,0,1.2,0,1.8c0,0.2,0,0.3,0,0.5c0,0.4,0,0.8,0,1.2c0,0.2,0,0.4,0,0.5c0,0.3,0,0.7,0.1,1c0,0.2,0,0.3,0,0.5
		c0,0.3,0.1,0.6,0.1,0.8c0,0.2,0,0.3,0.1,0.4c0,0.2,0,0.5,0.1,0.6c0,0.1,0,0.2,0.1,0.4c0,0.2,0.1,0.4,0.1,0.5c0,0.1,0.1,0.2,0.1,0.3
		c0.1,0.2,0.1,0.3,0.1,0.4c0,0.1,0.1,0.2,0.1,0.2c0,0.1,0.1,0.2,0.1,0.3c0,0.1,0.1,0.1,0.1,0.2c0,0.1,0.1,0.2,0.1,0.3
		c0,0.1,0.1,0.1,0.1,0.2c0.1,0.1,0.1,0.2,0.2,0.3c0,0,0.1,0.1,0.1,0.1c0.1,0.1,0.1,0.2,0.2,0.2c0,0,0,0,0,0.1
		c0.1,0.1,0.2,0.2,0.3,0.3c1,1,2.5,1.6,3.7,1.5c1.2,0.1,5.3,1.4,6.3,3.6c0.7,1.6-0.9,4.1-1.9,5.4c-0.9,1.2-2,1.8-3.6,1.9
		c-7.3,0.5-19.9-9.9-26.2-16.5c-1.3-1.3-3.2-1.8-4.9-1.2c-1.7,0.6-2.9,2.1-3.1,4c0,0.1-1.3,12.8-9.1,23c-5.3,7-12.5,5.6-19.6,3
		c-11.3-4.2-20.5-0.1-22.9,6.2c-1.9,4.8-0.1,11.9,10.8,16.4c3.9,1.6,3.7,2,1.8,6.9c-1.3,3.4-3,7.7-0.8,12c1.6,3.2,4.9,5.4,10.2,6.9
		c2.2,0.6,2.3,1.5,2.3,2.2c0.2,4.3-6,12.3-12.4,14.7c-2.1,0.8-3.6,0.7-4.5,0.3c-1-0.4-1.5-1.1-1.8-1.5c-0.6-0.7-1.2-1.3-1.8-2
		c-0.2-0.2-0.4-0.3-0.6-0.5c-0.5-0.4-0.9-0.8-1.4-1.1c-0.3-0.2-0.6-0.3-0.8-0.5c-0.5-0.3-1-0.5-1.5-0.8c-0.3-0.1-0.6-0.3-0.9-0.4
		c-0.6-0.2-1.2-0.4-1.8-0.5c-0.3-0.1-0.6-0.2-0.8-0.2c-1.8-0.4-3.7-0.5-5.7-0.4c-0.3,0-0.6,0.1-0.9,0.1c-0.5,0.1-1,0.1-1.6,0.2
		c-5.1-20.8-2.1-42.3,8.7-61c3.3-5.7,7.2-10.9,11.6-15.5l-6.5-3.4c-1.1,0.2-2.2,0.3-3.3,0.5c-3.6,4.2-6.9,8.8-9.8,13.8
		c-12.8,22.2-15.7,47.9-8.4,72.4c0,0,0,0,0,0c6.8,22.7,21.8,41.7,42.4,53.5c14.3,8.3,30.2,12.3,46,12.3c17.5,0,35-5,50.4-15.1
		c0,0,0,0,0,0c12.3-8,22.2-18.5,29.6-31.3c7.5-13.1,11.7-27.8,12.2-42.7C1053.7,677.8,1052.4,677.6,1051.1,677.4z M979.4,603.8
		c0,0,0.1,0,0.2,0c0,0,0,0,0.1,0C979.6,603.8,979.5,603.8,979.4,603.8z"/>
</g>
<g>
	<path class="st0" d="M515-318c-11.7,0-21.3-9.6-21.3-21.3c0-11.7,9.6-21.3,21.3-21.3c11.7,0,21.3,9.5,21.3,21.3
		C536.3-327.5,526.8-318,515-318z M515-351.3c-6.6,0-12,5.4-12,12c0,6.6,5.4,12,12,12c6.6,0,12-5.4,12-12
		C527-345.9,521.7-351.3,515-351.3z"/>
	<path class="st0" d="M396.2-312.1c-17.3,0-34.7-4-42.6-11.9c-1.1-1.1-1.6-2.8-1.2-4.4c0.1-0.5,5.5-24.1-4.1-45.3
		c-1.8-4-4.5-7.3-7.7-11.2c-9.3-11.3-20.8-25.4-20.8-66c0-0.1,0-0.3,0-0.4c0.3-68.5,69-70.5,76.8-70.5c0.3,0,0.8,0,1.3,0
		c1,0,2.2-0.1,3.6-0.1c32.3,0,69,18.1,75,69c0.1,0.4,1.3,7.6,17.2,32.5c0.2,0.3,2.9,4.2,1.8,9.1c-0.5,2.2-1.9,5.3-6.2,7.8
		c-4.6,2.7-9.8,5-13,6.4c0.6,6.6,1.5,20.9-0.1,29.5c-2.1,10.9-18.1,13.1-31.2,13.1c-1.7,0-2.7-0.1-2.7-0.1h-0.5
		c-0.8,0-1.3,0.1-1.7,0.2v27.1c0,1.2-0.5,2.4-1.4,3.3C430.8-316.1,413.5-312.1,396.2-312.1z M361.9-329
		c13.9,10.2,55.6,10.1,68.9-0.3v-26c0-3.9,2.9-8.5,11-8.5c0.6,0,1,0,1.1,0c0,0,0.8,0,2.1,0c13.6,0,21.5-2.9,22-5.6
		c1.9-9.8-0.3-30-0.3-30.2c-0.2-2.1,1-4.1,2.9-4.8c0.1,0,8.3-3.2,15-7.1c0.6-0.4,1.6-1,1.7-1.8c0.2-0.8-0.5-1.9-0.5-1.9
		c-17.1-26.6-18.7-34.9-18.8-36.9c-6.6-56.1-52-60.5-65.8-60.5c-1.3,0-2.5,0-3.4,0.1c-0.7,0-1.2,0-1.5,0c-11.2,0-67.3,3-67.5,61.2
		c0,0.1,0,0.3,0,0.4c0,37.2,9.9,49.4,18.7,60.1c3.4,4.2,6.7,8.2,9,13.2C365.7-357.6,363.3-336.6,361.9-329z"/>
	<path class="st0" d="M515-327.2c-2.6,0-4.6,2.1-4.6,4.6v5c0,16.6-13.5,30.1-30.1,30.1h-49.7c-16.6,0-30.1-13.5-30.1-30.1v-81.7
		c23.4-2.3,41.7-22.1,41.7-46.1c0-20.3-13.2-37.6-31.4-43.8v-39c0-2.6-2.1-4.6-4.6-4.6c-2.6,0-4.6,2.1-4.6,4.6v36.9
		c-1.9-0.2-3.7-0.4-5.7-0.4c-1.9,0-3.8,0.2-5.7,0.4v-36.9c0-2.6-2.1-4.6-4.6-4.6c-2.6,0-4.6,2.1-4.6,4.6v39
		c-18.3,6.3-31.4,23.5-31.4,43.8c0,24,18.3,43.8,41.7,46.1v81.7c0,21.7,17.7,39.4,39.4,39.4h49.7c21.7,0,39.4-17.7,39.4-39.4v-5
		C519.7-325.2,517.6-327.2,515-327.2z M395.8-482.5c1.9,0,3.8,0.2,5.7,0.5v9.6c-1.8-0.4-3.7-0.6-5.7-0.6c-2,0-3.8,0.2-5.7,0.6v-9.6
		C392-482.3,393.9-482.5,395.8-482.5z M395.8-463.7c10.1,0,18.3,8.2,18.3,18.3c0,10.1-8.2,18.3-18.3,18.3
		c-10.1,0-18.3-8.2-18.3-18.3C377.5-455.5,385.7-463.7,395.8-463.7z M358.7-445.4c0-15.1,9.1-28.2,22.1-33.9v10.8
		c-7.6,4.9-12.6,13.5-12.6,23.1c0,15.2,12.4,27.6,27.6,27.6c15.2,0,27.6-12.4,27.6-27.6c0-9.7-5-18.2-12.7-23.1v-10.8
		c13,5.8,22.1,18.8,22.1,33.9c0,20.4-16.6,37.1-37.1,37.1C375.4-408.3,358.7-424.9,358.7-445.4z"/>
	<path class="st0" d="M553.8-439.3h-54.1c-2.6,0-4.6-2.1-4.6-4.6c0-2.6,2.1-4.6,4.6-4.6h54.1c2.6,0,4.6,2.1,4.6,4.6
		C558.5-441.3,556.4-439.3,553.8-439.3z"/>
	<path class="st0" d="M527.9-464h-36.7c-2.6,0-4.6-2.1-4.6-4.6c0-2.6,2.1-4.6,4.6-4.6h36.7c2.6,0,4.6,2.1,4.6,4.6
		C532.6-466.1,530.5-464,527.9-464z"/>
	<path class="st0" d="M553.8-414.5H511c-2.6,0-4.6-2.1-4.6-4.6c0-2.6,2.1-4.6,4.6-4.6h42.8c2.6,0,4.6,2.1,4.6,4.6
		C558.5-416.6,556.4-414.5,553.8-414.5z"/>
	<path class="st0" d="M553.8-389.8h-50.5c-2.6,0-4.6-2.1-4.6-4.6c0-2.6,2.1-4.6,4.6-4.6h50.5c2.6,0,4.6,2.1,4.6,4.6
		C558.5-391.9,556.4-389.8,553.8-389.8z"/>
	<path class="st0" d="M553.8-365.1h-61.4c-2.6,0-4.6-2.1-4.6-4.6c0-2.6,2.1-4.6,4.6-4.6h61.4c2.6,0,4.6,2.1,4.6,4.6
		C558.5-367.1,556.4-365.1,553.8-365.1z"/>
	<path class="st0" d="M493.8-339.3c0-1.6,0.2-3.1,0.5-4.6h-30.4v-12.9c-2.9,0.9-6.1,1.4-9.3,1.8v15.7c0,2.6,2.1,4.6,4.6,4.6h35
		C493.9-336.1,493.8-337.7,493.8-339.3z"/>
	<path class="st0" d="M578.7-467.2L578.7-467.2c-0.1-0.4-0.2-0.8-0.4-1.1c0-0.1-0.1-0.2-0.1-0.3c-0.2-0.3-0.4-0.7-0.7-1l-26.2-26.2
		c-0.3-0.3-0.6-0.5-1-0.7c-0.1,0-0.2-0.1-0.3-0.1c-0.6-0.3-1.3-0.5-2-0.5h-88.7c-0.2,0-0.4,0-0.6,0c2.4,2.8,4.6,5.9,6.6,9.2h78.1
		v21.5c0,2.6,2.1,4.6,4.6,4.6h21.5v117.8h-33.7c0.3,1.5,0.5,3,0.5,4.6c0,1.6-0.2,3.1-0.5,4.6h38.4c2.6,0,4.6-2.1,4.6-4.6v-127.1
		C578.8-466.6,578.8-466.9,578.7-467.2z M552.7-471v-10.3L563-471H552.7z"/>
</g>
<g>
	<path class="st0" d="M297.8-447.2c-2.1,0-4.1,0.8-5.5,2.3c-1.5,1.5-2.3,3.4-2.3,5.5c0,2.1,0.8,4.1,2.3,5.5c3,2.9,8.1,2.9,11.1,0
		c3-3,3-8,0-11.1C301.9-446.4,299.9-447.2,297.8-447.2z"/>
	<path class="st0" d="M493.8-506.5c-2.1,0-4.1,0.8-5.5,2.3c-1.5,1.5-2.3,3.4-2.3,5.5c0,2.1,0.8,4.1,2.3,5.5c2.9,3,8.1,2.9,11.1,0
		c3.1-3,3.1-8,0-11.1C497.8-505.7,495.8-506.5,493.8-506.5z"/>
	<path class="st0" d="M503.1-535.1c-2.7-2.7-6.4-4.3-10.2-4.3c-3.9,0-7.5,1.5-10.2,4.3l-25.2,25.2c-5.6,5.6-5.6,14.8,0,20.4l0.4,0.4
		h-43.6c-1.2,0-2.4,0.5-3.3,1.3L400.3-477l-9.6-9.6l2.2-2.2c2.7-2.7,4.2-6.4,4.2-10.2c0-3.9-1.5-7.5-4.2-10.2l-25.2-25.2
		c-2.7-2.7-6.4-4.2-10.2-4.2s-7.5,1.5-10.2,4.2L260.7-448c-5.6,5.6-5.6,14.8,0,20.4l25.2,25.2c2.7,2.7,6.4,4.2,10.2,4.2
		c3.9,0,7.5-1.5,10.2-4.2l2.2-2.2l32.3,32.3c-2.2,3-3.5,6.7-3.5,10.5c0,4.8,1.9,9.3,5.3,12.7c2.3,2.3,5.1,3.8,8.1,4.6
		c-2.3,3.1-3.6,6.8-3.6,10.7c0,4.8,1.9,9.3,5.3,12.7c3.5,3.5,8.1,5.3,12.7,5.3c0.3,0,0.7-0.1,1-0.1c0,0.3-0.1,0.7-0.1,1
		c0,4.8,1.9,9.3,5.3,12.7c3.4,3.4,7.9,5.3,12.7,5.3l0,0c2.9,0,5.6-0.7,8.1-2c0.7,3.3,2.3,6.4,4.8,8.9c3.5,3.5,8.1,5.2,12.7,5.2
		c4.6,0,9.2-1.7,12.7-5.2l0.7-0.7c3,2,6.5,3,9.9,3c4.6,0,9.2-1.8,12.7-5.3c2.3-2.3,3.8-5,4.6-8.1c3.2,2.3,6.9,3.6,10.7,3.6
		c4.6,0,9.2-1.8,12.7-5.3c3.7-3.7,5.4-8.7,5.2-13.7c0.3,0,0.7,0.1,1,0.1c4.8,0,9.3-1.9,12.7-5.3c5.6-5.6,6.6-14,3.3-20.8
		c3.3-0.7,6.4-2.4,8.9-4.8c3.4-3.4,5.3-7.9,5.3-12.7c0-4.8-1.9-9.2-5.2-12.6l34.8-34.8l4.2,4.2c2.7,2.7,6.4,4.2,10.2,4.2
		c3.9,0,7.5-1.5,10.2-4.2l25.2-25.3c5.6-5.6,5.6-14.8,0-20.4L503.1-535.1z M305.3-414.3L305.3-414.3
		C305.3-414.3,305.3-414.3,305.3-414.3l-5.5,5.5c-2,2-5.4,2-7.3,0l-25.2-25.2c-2-2-2-5.3,0-7.3l86.4-86.4c1-1,2.3-1.5,3.7-1.5
		s2.7,0.6,3.7,1.5l25.3,25.2c1,1,1.5,2.3,1.5,3.7c0,1.4-0.6,2.7-1.5,3.7l-5.5,5.4v0c0,0,0,0,0,0L305.3-414.3z M349.2-355.5
		c-1.6-1.6-2.5-3.8-2.5-6.2c0-1.3,0.3-2.6,0.9-3.8l11.6,11.6C356-352.3,351.9-352.8,349.2-355.5z M371.3-327.5
		c-3.4,3.4-8.9,3.4-12.3,0c-1.6-1.6-2.6-3.9-2.6-6.2c0-2.3,0.9-4.5,2.6-6.2l0,0l7.1-7.1l12.3,12.3L371.3-327.5L371.3-327.5z
		 M390.2-308.6L390.2-308.6c-1.7,1.7-3.8,2.6-6.2,2.6l0,0c-2.3,0-4.5-0.9-6.2-2.5c-1.7-1.7-2.6-3.9-2.6-6.2c0-2.3,0.9-4.5,2.6-6.2
		l0,0l0,0l7.1-7.2l12.3,12.3L390.2-308.6z M415.8-296.4c-3.4,3.4-8.9,3.4-12.3,0c-3.4-3.4-3.4-8.9,0-12.3c0,0,0,0,0,0l0.4-0.4
		l12.3,12.3L415.8-296.4z M498.2-353.6c-1.6,1.6-3.8,2.5-6.2,2.5l0,0c-2.3,0-4.5-0.9-6.2-2.6c0,0,0,0,0,0l-43-43
		c-1.8-1.8-4.7-1.8-6.5,0c-1.8,1.8-1.8,4.7,0,6.6l49.7,49.7c3.4,3.4,3.4,9,0,12.3c-3.3,3.3-9,3.3-12.3,0l0,0v0L424-377.7
		c-1.8-1.8-4.7-1.8-6.6,0c-1.8,1.8-1.8,4.7,0,6.6l49.7,49.7c3.4,3.4,3.4,8.9,0,12.3c-3.4,3.4-8.9,3.4-12.3,0l-49.7-49.7
		c-1.8-1.8-4.8-1.8-6.6,0c-1.8,1.8-1.8,4.7,0,6.5l40.6,40.6c0,0,0,0,0,0c1.6,1.6,2.6,3.8,2.6,6.2c0,2.3-0.9,4.5-2.6,6.2
		c-3.4,3.4-8.9,3.4-12.3,0l-0.7-0.8h0l0,0L407.1-319l0,0l0,0l-18.9-18.9c0,0,0,0,0,0h0l-18.9-18.9l0,0l0,0L315.1-411l69-69l9.6,9.6
		l-9.9,9.9c-4.1,4-6.3,9.4-6.3,15.1c0,5.7,2.2,11.1,6.3,15.1c4,4,9.4,6.3,15.1,6.3l0,0c5.7,0,11.1-2.2,15.1-6.3l9.9-9.9l71.1,71.1
		l0,0l0,0l3.2,3.2C501.6-362.5,501.6-357,498.2-353.6z M498.3-378.9l-67.8-67.8l7-7h11.4l0,0c2.6,0,4.6-2.1,4.6-4.6
		c0-2.6-2.1-4.6-4.6-4.6h-13.3l0,0c-1.2,0-2.4,0.5-3.3,1.4l-24.9,24.8c-2.3,2.3-5.3,3.5-8.5,3.6l0,0c-3.2,0-6.3-1.3-8.5-3.5
		c-2.3-2.3-3.6-5.3-3.6-8.6c0-3.2,1.3-6.3,3.6-8.5l13.2-13.2l0,0l0,0l12.6-12.5h51l66,66L498.3-378.9z M582.9-434.7l-25.2,25.2
		c-2,2-5.4,2-7.3,0l-86.4-86.4c-2-2-2-5.3,0-7.3l25.3-25.2c1-1,2.3-1.5,3.6-1.5c1.4,0,2.7,0.5,3.7,1.5l86.4,86.4
		C584.9-440,584.9-436.8,582.9-434.7z"/>
	<path class="st0" d="M297.8-456.5c-4.6,0-8.9,1.8-12.1,5c-3.2,3.2-5,7.5-5,12.1c0,4.6,1.8,8.9,5,12.1c3.2,3.2,7.5,5,12.1,5
		c4.6,0,8.9-1.8,12.1-5c6.7-6.6,6.7-17.5,0-24.2C306.7-454.8,302.4-456.5,297.8-456.5z M303.4-433.9c-3,2.9-8.1,2.9-11.1,0
		c-1.5-1.5-2.3-3.4-2.3-5.5c0-2.1,0.8-4.1,2.3-5.5c1.5-1.5,3.4-2.3,5.5-2.3c2.1,0,4,0.8,5.5,2.3
		C306.4-441.9,306.4-436.9,303.4-433.9z"/>
	<path class="st0" d="M493.8-515.8c-4.6,0-8.9,1.8-12.1,5c-3.2,3.2-5,7.5-5,12.1c0,4.5,1.8,8.8,5,12.1c3.2,3.2,7.5,5,12.1,5
		c4.5,0,8.8-1.8,12.1-5c6.7-6.7,6.7-17.5,0-24.2C502.6-514,498.3-515.8,493.8-515.8z M499.3-493.2c-2.9,2.9-8.1,3-11.1,0
		c-1.5-1.5-2.3-3.4-2.3-5.5c0-2.1,0.8-4.1,2.3-5.5c1.5-1.5,3.4-2.3,5.5-2.3c2.1,0,4.1,0.8,5.5,2.3
		C502.3-501.2,502.3-496.2,499.3-493.2z"/>
</g>
<g>
	<path class="st0" d="M204.3,170.9l9.4,9.4c-3.3,4-5.1,8.9-5.1,14.2c0,5.9,2.3,11.5,6.5,15.7l0.4,0.4c4.2,4.2,9.8,6.5,15.7,6.5
		c5.9,0,11.5-2.3,15.7-6.5l31-31c4.2-4.2,6.5-9.8,6.5-15.7s-2.3-11.5-6.5-15.7l-0.4-0.3c-4.2-4.2-9.8-6.5-15.7-6.5
		c-5.2,0-10.2,1.8-14.2,5.1l-37.7-37.7c7.2-8.7,6.8-21.7-1.3-29.8l-0.4-0.4c-4.2-4.2-9.8-6.5-15.7-6.5c-5.9,0-11.5,2.3-15.7,6.5
		l-31,31c-4.2,4.2-6.5,9.8-6.5,15.7c0,5.9,2.3,11.5,6.5,15.7l0.3,0.4c4.2,4.2,9.8,6.5,15.7,6.5c5.2,0,10.2-1.8,14.2-5.1l9.4,9.4
		l-36.2,36.2c-0.5,0-1-0.1-1.6-0.1c-5.5,0-10.7,2.2-14.6,6l-45,45l0,0c0,0,0,0,0,0l-13.7,13.7l0,0c-3.9,3.9-6,9.1-6,14.6
		s2.2,10.7,6,14.6c4,4,9.3,6,14.6,6c5.3,0,10.6-2,14.6-6l58.7-58.7c4.4-4.4,6.4-10.4,5.9-16.1L204.3,170.9z M252.6,154.3
		c2.4-2.4,5.7-3.7,9.1-3.7s6.7,1.3,9.1,3.8l0.3,0.3c2.5,2.4,3.8,5.7,3.8,9.1c0,3.4-1.3,6.7-3.8,9.1l-31,31c-2.4,2.4-5.7,3.8-9.1,3.8
		c-3.4,0-6.7-1.3-9.1-3.8l-0.3-0.4c-2.5-2.4-3.8-5.7-3.8-9.1c0-3.5,1.3-6.7,3.8-9.1l15.5-15.5L252.6,154.3z M240.9,152.9l-7.1,7.1
		l-37.5-37.5l1.2-1.1l5.9-5.9L240.9,152.9z M170.9,134.7c-2.4,2.4-5.7,3.8-9.1,3.8c-3.4,0-6.7-1.3-9.1-3.8l-0.4-0.4
		c-2.4-2.4-3.8-5.7-3.8-9.1s1.3-6.7,3.8-9.1l31-31c2.4-2.4,5.7-3.8,9.1-3.8c3.5,0,6.7,1.3,9.1,3.8l0.4,0.4c5,5,5,13.2,0,18.2
		l-18.8,18.8L170.9,134.7z M182.6,136.1l7.1-7.1l37.5,37.5l-7.1,7.1l-9.3-9.3l0,0l-17.1-17.1L182.6,136.1z M96.9,275.4
		c-4.4,4.4-11.6,4.4-16,0c-2.1-2.2-3.3-5-3.3-8s1.2-5.9,3.3-8l0,0l5.6-5.6c1.3,3.3,3.6,6.6,6.5,9.6c2.9,2.9,6.2,5.1,9.6,6.5
		L96.9,275.4z M155.6,216.7l-45,45c-0.3,0.3-1.4,0.5-3.3,0c-2.6-0.7-5.4-2.5-7.8-4.9c-2.4-2.4-4.2-5.3-4.9-7.8c-0.5-1.9-0.3-3,0-3.3
		l0,0l45-45c4.3-4.3,11.8-4.3,16,0C160,205.1,160,212.3,155.6,216.7z M162.2,194.1c-1-1-2.1-1.9-3.2-2.6l33-33l2.9,2.9l2.9,2.9
		l-33,33C164,196.2,163.1,195.1,162.2,194.1z"/>
	<path class="st0" d="M291.5,264.5c-0.1-0.2-0.2-0.5-0.3-0.7c0-0.1-0.1-0.2-0.2-0.3c-0.1-0.2-0.2-0.4-0.4-0.6
		c-0.1-0.1-0.1-0.2-0.2-0.3c-0.2-0.2-0.4-0.4-0.7-0.6c0,0,0,0,0-0.1c-0.1,0-6.7-4.9-6.7-13.7c0-2.6-2.1-4.6-4.6-4.6H217
		c-2.6,0-4.6,2.1-4.6,4.6c0,8.8-6.5,13.5-6.7,13.7c0,0-0.1,0.1-0.1,0.1c-0.2,0.2-0.5,0.4-0.7,0.6c-0.1,0.1-0.1,0.2-0.2,0.3
		c-0.1,0.2-0.3,0.4-0.4,0.6c-0.1,0.1-0.1,0.2-0.2,0.3c-0.1,0.2-0.2,0.5-0.3,0.7c0,0.1-0.1,0.2-0.1,0.3c-0.1,0.3-0.1,0.7-0.1,1h0
		v17.5c0,2.6,2.1,4.6,4.6,4.6h78.9c2.6,0,4.6-2.1,4.6-4.6v-17.5c0-0.4-0.1-0.7-0.1-1C291.6,264.7,291.5,264.6,291.5,264.5z
		 M221.1,252.9h53c0.6,3.2,1.7,6,2.9,8.2h-58.9C219.5,258.9,220.6,256.1,221.1,252.9z M282.4,278.7h-69.6v-8.2h69.6V278.7z"/>
</g>
<g>
	<path class="st0" d="M-329.1,270c-21.7,0-50.4-3.6-50.4-34.9c0-26.8,22-57.9,50.4-57.9c28.4,0,50.4,31.1,50.4,57.9
		C-278.7,266.4-307.4,270-329.1,270z M-329.1,186.6c-22.7,0-41.1,26.6-41.1,48.5c0,18.1,11.9,25.5,41.1,25.5
		c29.2,0,41.1-7.4,41.1-25.5C-288,213.2-306.3,186.6-329.1,186.6z"/>
	<path class="st0" d="M-329.1,187c-17.5,0-32.8-18-32.8-38.5c0-19.5,14.7-35.4,32.8-35.4c18.1,0,32.8,15.9,32.8,35.4
		C-296.2,169-311.6,187-329.1,187z M-329.1,122.5c-12.9,0-23.5,11.6-23.5,26c0,15.2,11.2,29.2,23.5,29.2c12.3,0,23.4-13.9,23.4-29.2
		C-305.6,134.1-316.1,122.5-329.1,122.5z"/>
	<path class="st0" d="M-237.6,248.2c-21.7,0-50.4-3.6-50.4-34.9c0-26.8,22-57.9,50.4-57.9c28.4,0,50.4,31.1,50.4,57.9
		C-187.1,244.6-215.9,248.2-237.6,248.2z M-237.6,164.8c-22.7,0-41.1,26.5-41.1,48.5c0,18.1,11.9,25.6,41.1,25.6
		c29.2,0,41.1-7.4,41.1-25.6C-196.5,191.4-214.8,164.8-237.6,164.8z"/>
	<path class="st0" d="M-237.6,165.2c-17.5,0-32.8-18-32.8-38.5c0-19.5,14.7-35.4,32.8-35.4c18.1,0,32.8,15.9,32.8,35.4
		C-204.7,147.2-220.1,165.2-237.6,165.2z M-237.6,100.7c-12.9,0-23.5,11.7-23.5,26c0,15.3,11.2,29.2,23.5,29.2
		c12.3,0,23.5-13.9,23.5-29.2C-214.1,112.4-224.6,100.7-237.6,100.7z"/>
	<path class="st0" d="M-420.6,248.2c-21.7,0-50.4-3.6-50.4-34.9c0-26.8,22-57.9,50.4-57.9s50.4,31.1,50.4,57.9
		C-370.1,244.6-398.9,248.2-420.6,248.2z M-420.6,164.8c-22.7,0-41.1,26.5-41.1,48.5c0,18.1,11.9,25.6,41.1,25.6s41.1-7.4,41.1-25.6
		C-379.5,191.4-397.8,164.8-420.6,164.8z"/>
	<path class="st0" d="M-420.6,165.2c-17.5,0-32.8-18-32.8-38.5c0-19.5,14.7-35.4,32.8-35.4s32.8,15.9,32.8,35.4
		C-387.7,147.2-403.1,165.2-420.6,165.2z M-420.6,100.7c-12.9,0-23.5,11.7-23.5,26c0,15.3,11.2,29.2,23.5,29.2
		c12.3,0,23.5-13.9,23.5-29.2C-397.1,112.4-407.6,100.7-420.6,100.7z"/>
	<path class="st0" d="M-329.1,107.7c-4.1,0-5.9-3.3-13-17.3c-1.9-3.7-4.6-9-6-11.2c-2.2-0.2-4.5-0.4-6.6-0.6l-0.8-0.1
		c-2.5-0.2-4.9-0.6-7.3-0.9l-1.5-0.2c-2.4-0.3-4.8-0.7-7.1-1.1l-0.8-0.1c-2.2-0.4-4.3-0.8-6.4-1.3l-1.1-0.2c-2.2-0.5-4.3-1-6.5-1.5
		l-1.2-0.3c-2-0.5-4-1.1-5.8-1.6c-1.8,0.6-6.7,5.1-9.6,7.8c-6.5,5.9-10.6,9.5-14.8,9.5c-1,0-1.9-0.2-2.7-0.6
		c-5.5-2.5-4.9-10.6-4.1-20.8c0.3-3.3,0.6-8.3,0.3-10.3c-0.7-0.5-1.3-1-1.9-1.5l-0.3-0.2l-0.7-0.6c-1-0.8-1.9-1.6-2.8-2.5
		c0-0.1-0.3-0.3-0.3-0.3c-0.8-0.8-1.5-1.6-2.2-2.3l-0.6-0.7c-0.7-0.8-1.2-1.5-1.7-2.2c-0.3-0.4-0.4-0.6-0.6-0.9
		c-0.6-0.9-1.2-1.9-1.7-2.9c0-0.1-0.1-0.2-0.2-0.3c-0.4-0.9-0.8-1.9-1.1-2.8c-0.1-0.2-0.2-0.5-0.3-0.8c-0.3-1-0.5-1.7-0.6-2.5
		c-0.1-0.4-0.1-0.7-0.2-1c-0.2-1.2-0.3-2.3-0.3-3.4c0-26.8,48.5-47.9,110.5-47.9c62,0,110.5,21,110.5,47.9c0,1.1-0.1,2.1-0.3,3.4
		c0,0.3-0.1,0.6-0.2,0.9c-0.2,0.9-0.4,1.7-0.6,2.5l-0.3,0.9c-0.3,1-0.7,1.9-1.2,2.8c0,0.1-0.1,0.2-0.1,0.2c-0.5,1.1-1.1,2.1-1.8,3.1
		c-0.2,0.2-0.3,0.5-0.5,0.7c-0.6,0.8-1.1,1.5-1.7,2.2l-0.7,0.9c-0.7,0.8-1.4,1.6-2.2,2.3c-0.1,0.1-0.2,0.3-0.4,0.4
		c-0.8,0.8-1.8,1.6-2.7,2.4l-0.7,0.6l-0.2,0.2c-0.6,0.5-1.3,1-1.9,1.5c-0.3,2,0.1,6.9,0.4,10.3c0.8,10.2,1.4,18.3-4.1,20.8
		c-0.8,0.4-1.8,0.6-2.7,0.6l0,0c-4.1,0-8.3-3.6-14.8-9.5c-2.9-2.7-7.7-7-9.7-7.8c-1.9,0.6-3.8,1.1-5.7,1.6l-1.2,0.3
		c-2.1,0.6-4.3,1.1-6.5,1.5l-1.1,0.2c-2.1,0.4-4.3,0.9-6.4,1.3l-0.8,0.1c-2.3,0.4-4.7,0.8-7.1,1.1l-1.5,0.2
		c-2.4,0.3-4.8,0.6-7.3,0.9l-0.8,0.1c-2.2,0.2-4.4,0.4-6.7,0.6c-1.4,2.2-4.1,7.6-6,11.2C-323.1,104.4-325,107.7-329.1,107.7z
		 M-391.1,62c0,0,0.1,0,0.1,0c1.9,0.6,3.9,1.1,5.9,1.7l1.2,0.3c2,0.5,4,1,6.1,1.4l1.1,0.2c2,0.4,4,0.8,6.1,1.2l0.8,0.1
		c2.2,0.4,4.5,0.7,6.8,1.1l1.4,0.2c2.3,0.3,4.7,0.6,7.1,0.8l0.8,0.1c2.2,0.2,4.5,0.4,6.8,0.6l1.3,0.1c3.7,0.2,5.3,3,12,16.2
		c1.4,2.7,3.2,6.3,4.7,9c1.5-2.7,3.3-6.3,4.7-9c6.7-13.2,8.3-16,12-16.2l1.3-0.1c2.3-0.2,4.6-0.4,6.8-0.6l0.8-0.1
		c2.4-0.2,4.7-0.5,7.1-0.8l1.4-0.2c2.3-0.3,4.6-0.7,6.8-1.1l0.7-0.1c2.1-0.4,4.1-0.8,6.1-1.2l1-0.2c2.1-0.4,4.1-0.9,6.1-1.4l1.2-0.3
		c2-0.6,4-1.1,5.9-1.7c0,0,0.1,0,0.1,0c0.6-0.2,1.3-0.3,2-0.3c4.5,0,9.1,3.9,16.1,10.3c1.8,1.6,4.4,4,6.4,5.6c0.1-2.9-0.3-7-0.5-9.8
		c-0.7-9.2-1.2-15.3,2.7-18l0.5-0.4c0.6-0.4,1.3-0.9,1.9-1.4l0.8-0.6c0.8-0.7,1.6-1.3,2.3-2l0.2-0.2c0.6-0.6,1.2-1.2,1.7-1.8
		l0.4-0.5c0.5-0.7,0.9-1.1,1.2-1.6l0.5-0.6c0.4-0.6,0.8-1.3,1.1-1.9c0-0.1,0.1-0.2,0.1-0.3c0.3-0.6,0.6-1.2,0.8-1.9l0.1-0.4
		c0.2-0.7,0.3-1.2,0.4-1.7l0.1-0.6c0.1-0.6,0.2-1.3,0.2-2c0-18.6-40.6-38.5-101.1-38.5c-60.5,0-101.1,19.9-101.1,38.5
		c0,0.7,0.1,1.3,0.2,2l0.1,0.4c0.1,0.7,0.2,1.1,0.4,1.6l0.2,0.6c0.2,0.6,0.5,1.3,0.8,1.9c0,0.1,0.1,0.1,0.1,0.2
		c0.3,0.6,0.7,1.3,1.1,1.9l0.3,0.4c0.5,0.7,0.9,1.2,1.3,1.7l0.5,0.7c0.5,0.6,1.1,1.2,1.7,1.8c0,0,0.2,0.2,0.2,0.2
		c0.7,0.7,1.5,1.4,2.3,2l0.8,0.7c0.6,0.5,1.2,1,1.9,1.4l0.4,0.3c4,2.8,3.5,8.9,2.8,18.1c-0.2,2.8-0.5,6.9-0.5,9.8
		c2-1.6,4.6-3.9,6.4-5.6c7-6.4,11.6-10.3,16.1-10.3C-392.5,61.8-391.8,61.9-391.1,62z"/>
	<g>
		<path class="st0" d="M-321.3,53.7h-15.4c-2.6,0-4.7-2.1-4.7-4.7v-9.3c-5.2-3.6-8.2-9.3-8.2-15.5c0-10.7,9.2-19.4,20.6-19.4
			c11.4,0,20.6,8.7,20.6,19.4c0,6.2-3.1,11.9-8.3,15.5V49C-316.6,51.6-318.7,53.7-321.3,53.7z M-332,44.3h6v-7.3
			c0-1.8,1-3.4,2.6-4.2c3.5-1.8,5.7-5.1,5.7-8.7c0-5.5-5-10-11.2-10c-6.2,0-11.2,4.5-11.2,10c0,3.6,2.2,6.9,5.7,8.7
			c1.6,0.8,2.6,2.4,2.6,4.2V44.3z"/>
		<path class="st0" d="M-321.9,67.5h-14.2c-2.6,0-4.7-2.1-4.7-4.7c0-2.6,2.1-4.7,4.7-4.7h14.2c2.6,0,4.7,2.1,4.7,4.7
			C-317.2,65.4-319.3,67.5-321.9,67.5z"/>
		<path class="st0" d="M-291,29h-6.8c-2.6,0-4.7-2.1-4.7-4.7c0-2.6,2.1-4.7,4.7-4.7h6.8c2.6,0,4.7,2.1,4.7,4.7
			C-286.3,26.9-288.4,29-291,29z"/>
		<path class="st0" d="M-295.8,46.7c-1,0-1.9-0.3-2.8-0.9l-5.5-4c-2.1-1.5-2.6-4.5-1-6.5c1.5-2.1,4.4-2.6,6.5-1l5.5,4
			c2.1,1.5,2.6,4.5,1,6.6C-292.9,46-294.4,46.7-295.8,46.7z"/>
		<path class="st0" d="M-301.3,15.3c-1.4,0-2.9-0.7-3.8-1.9c-1.5-2.1-1.1-5,1-6.6l5.5-4c2.1-1.5,5-1.1,6.5,1c1.5,2.1,1.1,5-1,6.5
			l-5.5,4C-299.4,15-300.3,15.3-301.3,15.3z"/>
		<path class="st0" d="M-360.2,29h-6.8c-2.6,0-4.7-2.1-4.7-4.7c0-2.6,2.1-4.7,4.7-4.7h6.8c2.6,0,4.7,2.1,4.7,4.7
			C-355.5,26.9-357.6,29-360.2,29z"/>
		<path class="st0" d="M-362.1,46.7c-1.5,0-2.9-0.7-3.8-1.9c-1.5-2.1-1.1-5,1-6.6l5.5-4c2.1-1.5,5-1.1,6.5,1c1.5,2.1,1.1,5-1,6.5
			l-5.5,4C-360.2,46.4-361.2,46.7-362.1,46.7z"/>
		<path class="st0" d="M-356.7,15.3c-0.9,0-1.9-0.3-2.7-0.9l-5.5-4c-2.1-1.5-2.6-4.5-1-6.5c1.5-2.1,4.5-2.6,6.6-1l5.5,4
			c2.1,1.5,2.6,4.5,1,6.6C-353.8,14.7-355.2,15.3-356.7,15.3z"/>
	</g>
</g>
</svg>
