<?xml version="1.0" encoding="utf-8"?>
<!-- Generator: Adobe Illustrator 22.1.0, SVG Export Plug-In . SVG Version: 6.00 Build 0)  -->
<svg version="1.1" id="圖層_1" xmlns="http://www.w3.org/2000/svg" xmlns:xlink="http://www.w3.org/1999/xlink" x="0px" y="0px"
	 viewBox="0 0 360 360" style="enable-background:new 0 0 360 360;" xml:space="preserve">
<style type="text/css">
	.st0{fill:#FFFFFF;}
	.st1{fill:#474F58;}
</style>
<g>
	<path class="st0" d="M2265.8,920.4L2126,888h-2l-139.8,32.4c-2,0-4.1,2-4.1,4.1s2,4.1,4.1,4.1l54.7,12.2V965
		c0,22.3,44.6,32.4,87.1,32.4s87.1-12.2,87.1-32.4l0,0v-24.3l52.7-12.2c2,0,4.1-2,4.1-4.1S2267.8,920.4,2265.8,920.4z M2203,965
		L2203,965c0,10.1-30.4,24.3-77,24.3c-48.6,0-79-14.2-79-24.3v-22.3l77,18.2c0,0,0,0,2,0c0,0,0,0,2,0l79-18.2h-2V965
		C2203,965,2203,965,2203,965z M2126,950.8l-119.5-26.3l119.5-26.3l117.5,26.3L2126,950.8z"/>
	<path class="st0" d="M2211.1,967c0,4.1-2,8.1-4.1,10.1c6.1,10.1,8.1,22.3,8.1,34.4h-30.4c0-8.1-2-14.2-4.1-22.3c-2,0-6.1,2-8.1,2
		c2,6.1,2,12.2,2,18.2h-44.6v-10.1c-2,0-4.1,0-4.1,0c-2,0-4.1,0-4.1,0v14.2h-46.6c0-6.1,2-12.2,2-18.2c-4.1,0-6.1-2-8.1-2
		c-2,4.1-4.1,12.2-4.1,18.2h-30.4c0-12.2,4.1-24.3,8.1-34.4c-2-4.1-4.1-6.1-4.1-10.1c-8.1,14.2-14.2,32.4-14.2,50.6l0,0l0,0
		c0,54.7,44.6,99.3,99.3,99.3l0,0l0,0l0,0c54.7,0,99.3-44.6,99.3-99.3l0,0l0,0C2225.3,999.4,2221.2,981.2,2211.1,967z
		 M2034.9,1021.7h30.4c0,14.2,4.1,26.3,8.1,38.5H2045C2038.9,1050,2034.9,1035.9,2034.9,1021.7z M2051.1,1070.3h26.3
		c8.1,14.2,18.2,26.3,30.4,36.5C2085.5,1102.7,2065.2,1088.5,2051.1,1070.3z M2119.9,1102.7c-12.2-8.1-24.3-20.3-30.4-34.4h30.4
		V1102.7z M2119.9,1060.2h-36.5c-4.1-12.2-8.1-24.3-8.1-38.5h46.6v38.5H2119.9z M2130.1,1021.7h46.6c0,14.2-4.1,26.3-10.1,38.5
		h-36.5V1021.7z M2130.1,1104.7v-34.4h32.4C2154.4,1084.5,2142.2,1094.6,2130.1,1104.7z M2144.2,1104.7
		c12.2-8.1,20.3-20.3,28.4-34.4h26.3C2184.8,1088.5,2166.5,1100.7,2144.2,1104.7z M2205,1060.2h-28.4c4.1-12.2,8.1-26.3,8.1-38.5
		h30.4C2215.1,1035.9,2211.1,1050,2205,1060.2z"/>
	<path class="st0" d="M2154.4,1027.8l-2-77c0-2,0-2-2-2l-22.3-26.3c-2-2-4.1-4.1-6.1-2c-2,2-2,6.1,0,8.1l22.3,24.3l2,74.9
		c-6.1,2-10.1,6.1-10.1,12.2l0,0c0,8.1,6.1,14.2,14.2,14.2l0,0c6.1,0,12.2-6.1,12.2-12.2l0,0
		C2162.5,1033.8,2160.4,1029.8,2154.4,1027.8z M2154.4,1041.9c0,2-2,4.1-4.1,4.1l0,0c-2,0-4.1-2-4.1-4.1l0,0c0-2,2-4.1,4.1-4.1l0,0
		C2152.3,1035.9,2154.4,1037.9,2154.4,1041.9L2154.4,1041.9z"/>
</g>
<g>
	<path class="st0" d="M2230.8-399.1c-12.2,0-22.3-12.2-22.3-26.3c0-14.2,10.1-24.3,22.3-24.3c12.2,0,22.3,10.1,22.3,24.3
		S2243-399.1,2230.8-399.1z M2230.8-441.6c-8.1,0-14.2,6.1-14.2,16.2c0,8.1,6.1,18.2,14.2,18.2c8.1,0,14.2-8.1,14.2-18.2
		C2243-433.5,2236.9-441.6,2230.8-441.6z"/>
	<path class="st0" d="M2200.4-255.3c-2,0-4.1-2-4.1-4.1v-58.7c0-2,2-4.1,4.1-4.1s4.1,2,4.1,4.1v58.7
		C2204.5-257.3,2202.5-255.3,2200.4-255.3z"/>
	<path class="st0" d="M2421.2-255.3c-2,0-4.1-2-4.1-4.1v-58.7c0-2,2-4.1,4.1-4.1s4.1,2,4.1,4.1v58.7
		C2425.3-257.3,2423.3-255.3,2421.2-255.3z"/>
	<path class="st0" d="M2218.7-346.4l6.1-8.1c-18.2,0-20.3-8.1-20.3-14.2c0-14.2,12.2-30.4,26.3-30.4c8.1,0,16.2,6.1,20.3,14.2
		l6.1-8.1c-6.1-10.1-16.2-16.2-26.3-16.2c-20.3,0-34.4,20.3-34.4,40.5C2194.4-352.5,2206.5-348.5,2218.7-346.4z"/>
	<path class="st0" d="M2354.4-413.3h-87.1c-4.1,0-6.1-2-6.1-4.1v-74.9c0-2,2-4.1,6.1-4.1h87.1c2,0,4.1,2,4.1,4.1v72.9
		C2358.4-415.3,2356.4-413.3,2354.4-413.3z M2271.3-423.4h79v-62.8h-79V-423.4z"/>
	<path class="st0" d="M2340.2-295.8C2342.2-295.8,2342.2-295.8,2340.2-295.8L2340.2-295.8L2340.2-295.8z"/>
	<path class="st0" d="M2279.4-295.8L2279.4-295.8L2279.4-295.8L2279.4-295.8z"/>
	<path class="st0" d="M2445.5-295.8l-87.1-103.3c-2-2-2-2-4.1-2h-87.1c-2,0-2,0-4.1,2l-87.1,103.3c-2,2-2,4.1-2,6.1c0,2,2,2,4.1,2
		h36.5c0-4.1,2-6.1,4.1-10.1h-30.4l79-95.2h83.1l79,95.2h-30.4c2,2,2,6.1,4.1,10.1h36.5c2,0,4.1-2,4.1-2
		C2447.6-291.7,2445.5-293.8,2445.5-295.8z"/>
	<path class="st0" d="M2372.6-255.3c-8.1,0-34.4,0-34.4-24.3c0-18.2,14.2-40.5,34.4-40.5c20.3,0,34.4,20.3,34.4,40.5
		C2407-255.3,2380.7-255.3,2372.6-255.3z M2372.6-310c-14.2,0-26.3,16.2-26.3,30.4c0,8.1,4.1,16.2,26.3,16.2
		c22.3,0,26.3-8.1,26.3-16.2C2396.9-291.7,2386.8-310,2372.6-310z"/>
	<path class="st0" d="M2372.6-307.9c-12.2,0-24.3-12.2-24.3-26.3s10.1-24.3,22.3-24.3c12.2,0,22.3,10.1,22.3,24.3
		C2394.9-320.1,2384.8-307.9,2372.6-307.9z M2372.6-350.5c-8.1,0-14.2,6.1-14.2,16.2c0,8.1,6.1,18.2,14.2,18.2
		c6.1,0,14.2-8.1,14.2-18.2S2378.7-350.5,2372.6-350.5z"/>
	<path class="st0" d="M2309.8-255.3c-8.1,0-34.4,0-34.4-24.3c0-18.2,14.2-40.5,34.4-40.5c20.3,0,34.4,20.3,34.4,40.5
		C2344.3-255.3,2317.9-255.3,2309.8-255.3z M2309.8-310c-14.2,0-26.3,16.2-26.3,30.4c0,8.1,4.1,16.2,26.3,16.2
		c22.3,0,26.3-8.1,26.3-16.2C2336.2-291.7,2324-310,2309.8-310z"/>
	<path class="st0" d="M2309.8-307.9c-12.2,0-22.3-12.2-22.3-26.3s10.1-24.3,22.3-24.3c12.2,0,22.3,10.1,22.3,24.3
		C2334.1-320.1,2322-307.9,2309.8-307.9z M2309.8-350.5c-8.1,0-14.2,6.1-14.2,16.2c0,8.1,6.1,18.2,14.2,18.2
		c6.1,0,14.2-8.1,14.2-18.2S2317.9-350.5,2309.8-350.5z"/>
	<path class="st0" d="M2249.1-255.3c-8.1,0-34.4,0-34.4-24.3c0-18.2,14.2-40.5,34.4-40.5c20.3,0,34.4,20.3,34.4,40.5
		C2283.5-255.3,2257.2-255.3,2249.1-255.3z M2249.1-310c-14.2,0-26.3,16.2-26.3,30.4c0,8.1,4.1,16.2,26.3,16.2
		c22.3,0,26.3-8.1,26.3-16.2C2273.4-291.7,2263.2-310,2249.1-310z"/>
	<path class="st0" d="M2249.1-307.9c-12.2,0-24.3-12.2-24.3-26.3s10.1-24.3,22.3-24.3s22.3,10.1,22.3,24.3
		C2271.3-320.1,2261.2-307.9,2249.1-307.9z M2249.1-350.5c-8.1,0-14.2,6.1-14.2,16.2c0,8.1,6.1,18.2,14.2,18.2
		c6.1-2,12.2-10.1,12.2-18.2C2261.2-344.4,2255.1-350.5,2249.1-350.5z"/>
</g>
<g>
	<path class="st0" d="M2443.8-322.1h-271.4c-2,0-4.1-2-4.1-4.1V-472c0-8.1,6.1-16.2,16.2-16.2h249.2c8.1,0,16.2,6.1,16.2,16.2v145.8
		C2449.8-324.1,2447.8-322.1,2443.8-322.1z M2178.4-330.2h261.3V-472c0-4.1-2-6.1-6.1-6.1h-249.2c-4.1,0-6.1,2-6.1,6.1V-330.2z"/>
	<path class="st0" d="M2330.3-322.1C2330.3-322.1,2328.3-322.1,2330.3-322.1c-4.1,0-4.1-4.1-4.1-6.1l28.4-60.8c2-2,4.1-4.1,6.1-2
		c2,2,2,4.1,2,6.1l-28.4,60.8C2334.4-322.1,2332.4-322.1,2330.3-322.1z"/>
	<path class="st0" d="M2405.3-322.1c-2,0-4.1-2-4.1-2l-28.4-60.8c-2-2,0-6.1,2-6.1c2-2,6.1,0,6.1,2l28.4,60.8
		C2409.3-326.2,2409.3-322.1,2405.3-322.1L2405.3-322.1z"/>
	<path class="st0" d="M2417.4-358.6h-101.3c-2,0-4.1-2-4.1-4.1v-93.2c0-2,2-4.1,4.1-4.1h101.3c2,0,4.1,2,4.1,4.1v93.2
		C2423.5-360.6,2421.5-358.6,2417.4-358.6z M2322.2-368.7h91.2v-83.1h-91.2V-368.7z"/>
	<path class="st0" d="M2443.8-330.2h-271.4c-2,0-4.1,2-4.1,4.1v10.1c0,8.1,6.1,16.2,16.2,16.2h60.8v24.3h-24.3c-4.1,0-6.1,2-6.1,6.1
		s2,6.1,6.1,6.1h176.2c4.1,0,6.1-2,6.1-6.1s-2-6.1-6.1-6.1h-22.3v-24.3h60.8c8.1,0,16.2-6.1,16.2-16.2v-10.1
		C2449.8-328.2,2447.8-330.2,2443.8-330.2z M2253.4-299.8h12.2v24.3h-12.2V-299.8z M2342.5-299.8v24.3h-66.8v-24.3H2342.5z
		 M2364.8-275.5h-14.2v-24.3h12.2v24.3H2364.8z M2439.7-316c0,4.1-2,6.1-6.1,6.1h-64.8h-22.3h-74.9h-22.3h-64.8
		c-4.1,0-6.1-2-6.1-6.1v-6.1h261.3V-316z"/>
	<path class="st0" d="M2198.7-338.3h2c4.1-2,4.1-4.1,4.1-8.1c-6.1-10.1-6.1-20.3-6.1-26.3c-2-14.2,10.1-20.3,24.3-24.3
		c-8.1,10.1-14.2,26.3-14.2,54.7c0,4.1,0,6.1,0,10.1h10.1c0-4.1,0-8.1,0-10.1c0-34.4,10.1-52.7,26.3-56.7
		c12.2,30.4,8.1,54.7,4.1,68.9h10.1c4.1-16.2,6.1-40.5-4.1-68.9c18.2,2,28.4,22.3,28.4,56.7c0,4.1,0,6.1,0,10.1h10.1
		c0-4.1,0-8.1,0-10.1c0-28.4-6.1-44.6-14.2-54.7c10.1,2,16.2,6.1,22.3,10.1c10.1,8.1,20.3,14.2,50.6,8.1c2,0,4.1-2,4.1-6.1
		c-4.1,0-8.1-2-10.1-2c-26.3,6.1-32.4,0-42.5-6.1c-8.1-6.1-20.3-14.2-48.6-14.2v-6.1c12.2-2,20.3-12.2,20.3-26.3
		c0-14.2-12.2-26.3-26.3-26.3c-14.2,0-24.3,14.2-24.3,28.4c0,12.2,10.1,22.3,20.3,26.3v4.1c-36.5,0-56.7,14.2-56.7,36.5
		c0,8.1,0,18.2,8.1,30.4L2198.7-338.3z M2233.1-437.6c0-10.1,8.1-16.2,16.2-16.2s18.2,6.1,18.2,16.2s-8.1,16.2-16.2,16.2
		S2233.1-429.5,2233.1-437.6z"/>
	<path class="st0" d="M2366.8-322.1c-2,0-4.1-2-4.1-4.1v-38.5c0-2,2-4.1,4.1-4.1c2,0,4.1,2,4.1,4.1v38.5
		C2372.9-324.1,2370.8-322.1,2366.8-322.1z"/>
	<path class="st0" d="M2383-435.6h-30.4c-2,0-4.1-2-4.1-4.1c0-2,2-4.1,4.1-4.1h30.4c2,0,4.1,2,4.1,4.1
		C2387-437.6,2385-435.6,2383-435.6z"/>
	<path class="st0" d="M2399.2-413.3h-60.8c-2,0-4.1-2-4.1-4.1c0-2,2-4.1,4.1-4.1h60.8c2,0,4.1,2,4.1,4.1
		C2403.3-415.3,2401.2-413.3,2399.2-413.3z"/>
	<path class="st0" d="M2399.2-393h-60.8c-2,0-4.1-2-4.1-4.1c0-2,2-4.1,4.1-4.1h60.8c2,0,4.1,2,4.1,4.1
		C2403.3-395,2401.2-393,2399.2-393z"/>
</g>
<g>
	<path class="st0" d="M2326.3-276.5c-14.2,0-28.4-4.1-40.5-12.2c-2,0-2-2-2-4.1c0-6.1,0-10.1,0-14.2c0-60.8,30.4-66.8,42.5-66.8
		c12.2,0,42.5,6.1,42.5,66.8c0,4.1,0,8.1,0,14.2c0,2,0,2-2,4.1C2356.7-280.6,2340.5-276.5,2326.3-276.5z M2293.9-294.8
		c18.2,12.2,46.6,12.2,64.8,0c0-4.1,0-8.1,0-12.2c0-36.5-12.2-56.7-32.4-56.7c-20.3,0-32.4,20.3-32.4,56.7
		C2293.9-302.9,2293.9-298.8,2293.9-294.8z M2364.8-292.7L2364.8-292.7L2364.8-292.7z"/>
	<path class="st0" d="M2322.2-339.3c0,2-2,4.1-4.1,4.1s-4.1-2-4.1-4.1c0-2,2-4.1,4.1-4.1C2320.2-345.4,2322.2-343.4,2322.2-339.3z"
		/>
	<path class="st0" d="M2324.3-321.1c0,2-2,4.1-4.1,4.1s-4.1-2-4.1-4.1c0-2,2-4.1,4.1-4.1C2322.2-325.2,2324.3-323.1,2324.3-321.1z"
		/>
	<path class="st0" d="M2322.2-302.9c0,2-2,4.1-4.1,4.1s-4.1-2-4.1-4.1c0-2,2-4.1,4.1-4.1S2322.2-304.9,2322.2-302.9z"/>
	<polygon class="st0" points="2223,-341.4 2233.1,-341.4 2237.1,-359.6 2229,-359.6 	"/>
	<path class="st0" d="M2247.3-412.3l-6.1,16.2h10.1l0,0l6.1-16.2H2247.3L2247.3-412.3z"/>
	<path class="st0" d="M2302-481.1l20.3,10.1c0-4.1,2-6.1,4.1-8.1l-20.3-10.1C2306-487.2,2306-485.2,2302-481.1z"/>
	<path class="st0" d="M2210.8-412.3c-2,2-6.1,4.1-8.1,4.1l14.2,14.2c2-2,6.1-4.1,10.1-4.1L2210.8-412.3z"/>
	<path class="st0" d="M2229-434.5l-16.2,2c0,2,0,2,0,4.1v6.1l16.2-2c0-2,0-2,0-4.1V-434.5z"/>
	<path class="st0" d="M2389.1-430.5l-14.2-16.2c-2,2-6.1,4.1-10.1,4.1l0,0l14.2,16.2C2383-428.5,2385-430.5,2389.1-430.5z"/>
	<path class="st0" d="M2415.4-448.7l-6.1,18.2h8.1h2l6.1-18.2H2415.4C2417.4-448.7,2415.4-448.7,2415.4-448.7z"/>
	<path class="st0" d="M2403.3-473l-22.3,2c0,0,0,0,0,2v8.1l22.3-2l0,0V-473z"/>
	<path class="st0" d="M2281.7-477.1h-8.1l0,0l-6.1,18.2h10.1L2281.7-477.1z"/>
	<path class="st0" d="M2324.3-450.7c-2-2-2-4.1-2-8.1v-2l-30.4,10.1c2,2,2,6.1,2,8.1l0,0L2324.3-450.7z"/>
	<path class="st0" d="M2417.4-381.9h-24.3c-12.2,0-20.3-10.1-20.3-20.3v-8.1c0-12.2,10.1-20.3,20.3-20.3h24.3
		c12.2,0,20.3,10.1,20.3,20.3v6.1C2437.7-392,2429.6-381.9,2417.4-381.9z M2391.1-422.4c-6.1,0-12.2,6.1-12.2,12.2v6.1
		c0,6.1,6.1,12.2,12.2,12.2h24.3c6.1,0,12.2-6.1,12.2-12.2v-6.1c0-6.1-6.1-12.2-12.2-12.2H2391.1z"/>
	<path class="st0" d="M2364.8-442.6h-26.3c-8.1,0-16.2-6.1-16.2-16.2V-471c0-8.1,6.1-16.2,16.2-16.2h26.3c8.1,0,16.2,6.1,16.2,16.2
		v12.2C2381-450.7,2372.9-442.6,2364.8-442.6z M2338.4-477.1c-4.1,0-6.1,2-6.1,6.1v12.2c0,4.1,2,6.1,6.1,6.1h26.3
		c4.1,0,6.1-2,6.1-6.1V-471c0-4.1-2-6.1-6.1-6.1C2364.8-477.1,2338.4-477.1,2338.4-477.1z"/>
	<path class="st0" d="M2275.6-412.3h-28.4c-10.1,0-18.2-8.1-18.2-18.2v-10.1c0-10.1,8.1-18.2,18.2-18.2h28.4
		c10.1,0,18.2,8.1,18.2,18.2v12.2C2293.9-420.4,2285.8-412.3,2275.6-412.3z M2247.3-448.7c-4.1,0-8.1,4.1-8.1,8.1v12.2
		c0,4.1,4.1,8.1,8.1,8.1h28.4c4.1,0,8.1-4.1,8.1-8.1v-12.2c0-4.1-4.1-8.1-8.1-8.1H2247.3z"/>
	<path class="st0" d="M2251.3-359.6H2227c-8.1,0-14.2-6.1-14.2-14.2v-10.1c0-8.1,6.1-14.2,14.2-14.2h24.3c8.1,0,14.2,6.1,14.2,14.2
		v12.2C2263.5-365.7,2259.4-359.6,2251.3-359.6z M2227-388c-2,0-4.1,2-4.1,4.1v12.2c0,2,2,4.1,4.1,4.1h24.3c2,0,4.1-2,4.1-4.1v-12.2
		c0-2-2-4.1-4.1-4.1H2227z"/>
	<path class="st0" d="M2200.7-408.2h-20.3c-8.1,0-14.2-6.1-14.2-14.2v-6.1c0-8.1,6.1-14.2,14.2-14.2h20.3c8.1,0,14.2,6.1,14.2,14.2
		v8.1C2214.9-414.3,2208.8-408.2,2200.7-408.2z M2182.5-432.5c-2,0-4.1,2-4.1,4.1v8.1c0,2,2,4.1,4.1,4.1h20.3c2,0,4.1-2,4.1-4.1
		v-8.1c0-2-2-4.1-4.1-4.1C2202.7-432.5,2182.5-432.5,2182.5-432.5z"/>
	<path class="st0" d="M2237.1-298.8h-32.4c-8.1,0-14.2-6.1-14.2-14.2v-16.2c0-8.1,6.1-14.2,14.2-14.2h32.4c8.1,0,14.2,6.1,14.2,14.2
		v16.2C2251.3-304.9,2245.3-298.8,2237.1-298.8z M2204.7-333.3c-2,0-4.1,2-4.1,4.1v16.2c0,2,2,4.1,4.1,4.1h32.4c2,0,4.1-2,4.1-4.1
		v-16.2c0-2-2-4.1-4.1-4.1H2204.7z"/>
	<path class="st0" d="M2439.7-448.7h-22.3c-8.1,0-14.2-6.1-14.2-14.2v-14.2c0-8.1,6.1-14.2,14.2-14.2h22.3c8.1,0,14.2,6.1,14.2,14.2
		v12.2C2453.9-456.8,2447.8-448.7,2439.7-448.7z M2417.4-483.2c-4.1,0-6.1,2-6.1,6.1v12.2c0,4.1,2,6.1,6.1,6.1h22.3
		c4.1,0,6.1-2,6.1-6.1v-12.2c0-4.1-2-6.1-6.1-6.1C2439.7-483.2,2417.4-483.2,2417.4-483.2z"/>
	<path class="st0" d="M2291.8-477.1h-20.3c-8.1,0-14.2-6.1-14.2-14.2v-10.1c0-8.1,6.1-14.2,14.2-14.2h20.3c8.1,0,14.2,6.1,14.2,14.2
		v8.1C2308-485.2,2299.9-477.1,2291.8-477.1z M2271.6-505.4c-4.1,0-6.1,2-6.1,6.1v8.1c0,4.1,2,6.1,6.1,6.1h20.3c4.1,0,6.1-2,6.1-6.1
		v-10.1c0-4.1-2-6.1-6.1-6.1h-20.3V-505.4z"/>
	<path class="st0" d="M2429.6-363.6c-2-2-4.1-4.1-6.1-2c-28.4,14.2-34.4,10.1-44.6,4.1c-8.1-4.1-20.3-12.2-46.6-12.2v-4.1
		c12.2-2,20.3-12.2,20.3-26.3c0-14.2-12.2-26.3-26.3-26.3c-14.2,0-26.3,12.2-26.3,26.3c0,12.2,10.1,22.3,20.3,26.3v4.1
		c-36.5,0-58.7,14.2-58.7,36.5c0,8.1,2,22.3,12.2,38.5c0,2,2,2,4.1,2h2l2-2c0,2,0,4.1,0,6.1l0,0l0,0c0,16.2,2,36.5,6.1,48.6h-6.1
		c-2,0-4.1,2-4.1,4.1c0,2,2,4.1,4.1,4.1h12.2c2,0,2,0,4.1-2c0-2,2-2,0-4.1c-2-8.1-6.1-26.3-6.1-44.6c8.1,4.1,20.3,8.1,30.4,8.1l0,0
		l0,0l0,0c12.2,0,22.3-2,32.4-8.1c-2,16.2-4.1,34.4-6.1,44.6c0,2,0,2,0,4.1s2,2,4.1,2h12.2c2,0,4.1-2,4.1-4.1c0-2-2-4.1-4.1-4.1
		h-6.1c2-12.2,4.1-34.4,6.1-48.6l0,0l0,0c0-6.1,0-10.1,0-14.2c0-28.4-6.1-44.6-14.2-54.7c8.1,2,14.2,6.1,20.3,8.1
		c14.2,8.1,22.3,10.1,54.7-4.1C2429.6-357.6,2431.6-361.6,2429.6-363.6z M2322.2-284.6c-10.1,0-20.3-4.1-28.4-10.1
		c0-4.1,0-8.1,0-12.2c0-34.4,10.1-52.7,26.3-56.7C2336.4-325.2,2326.3-294.8,2322.2-284.6z M2310.1-402.1c0-10.1,8.1-16.2,16.2-16.2
		c10.1,0,16.2,8.1,16.2,16.2c0,10.1-8.1,16.2-16.2,16.2S2310.1-394,2310.1-402.1z M2283.7-302.9c-10.1-14.2-10.1-24.3-10.1-32.4
		c0-14.2,12.2-22.3,26.3-24.3c-8.1,10.1-14.2,26.3-14.2,54.7C2283.7-304.9,2283.7-302.9,2283.7-302.9L2283.7-302.9z M2358.7-294.8
		c-8.1,6.1-16.2,8.1-26.3,8.1c4.1-12.2,12.2-42.5-2-77c18.2,2,28.4,22.3,28.4,56.7C2360.7-302.9,2360.7-298.8,2358.7-294.8z"/>
</g>
<g>
	<path class="st0" d="M2217.8,1096.6C2217.8,1096.6,2217.8,1096.6,2217.8,1096.6l0-87.4l0,0l0,0c0-0.3,0-0.7-0.1-1
		c0-0.1,0-0.1-0.1-0.2c-0.1-0.2-0.1-0.5-0.2-0.7c0,0,0-0.1,0-0.1l-12.4-26.7c-0.8-1.6-2.4-2.7-4.2-2.7c-1.8,0-3.4,1-4.2,2.7
		l-12.3,26.7c0,0,0,0.1,0,0.1c-0.1,0.2-0.2,0.5-0.2,0.7c0,0.1,0,0.1-0.1,0.2c-0.1,0.3-0.1,0.6-0.1,1v0l0,0v87.3c0,0,0,0,0,0.1
		s0,0,0,0v16.7c0,1.2,0.4,3,2,4.6c3.9,3.9,12.5,4.2,15,4.2c8.2,0,17-2.3,17-8.9V1096.6C2217.8,1096.6,2217.8,1096.6,2217.8,1096.6z
		 M2193.1,1017.3c3.2,0.7,6.4,0.8,7.7,0.8c0,0,0,0,0,0c1.4,0,4.5-0.1,7.7-0.8v77.7c-1.2,0.5-3.9,1.2-7.7,1.2c0,0,0,0,0,0
		c-3.9,0-6.5-0.7-7.7-1.2V1017.3z M2200.8,993.6l6.7,14.4c-1.5,0.4-3.7,0.8-6.7,0.8h0c-3,0-5.2-0.4-6.7-0.8L2200.8,993.6z
		 M2200.8,1113c-3.8,0-6.4-0.7-7.7-1.2l0-7.1c2.4,0.5,5.1,0.8,7.7,0.8c0,0,0,0,0,0c2.8,0,5.4-0.3,7.7-0.8v7.1
		C2207.3,1112.4,2204.6,1113,2200.8,1113z"/>
	<path class="st0" d="M2014.7,1057.4c-2.6,0-4.6-2.1-4.6-4.6V905.9c0-12.8,10.4-23.3,23.3-23.3c2.6,0,4.6,2.1,4.6,4.6v146.8
		c0,2.6-2.1,4.6-4.6,4.6c-7.7,0-14,6.3-14,14C2019.3,1055.3,2017.3,1057.4,2014.7,1057.4z M2028.7,892.7c-5.5,1.9-9.4,7.1-9.4,13.2
		v128.2c2.7-2.1,5.9-3.5,9.4-4.2V892.7z"/>
	<path class="st0" d="M2158.2,1122.3h-96.8c-2.6,0-4.6-2.1-4.6-4.6V982.6c0-2.6,2.1-4.6,4.6-4.6h96.8c2.5,0,4.6,2.1,4.6,4.6v135.1
		C2162.8,1120.2,2160.7,1122.3,2158.2,1122.3z M2066.1,1113h87.5V987.2h-87.5V1113z"/>
	<path class="st0" d="M2142.1,1026.9h-64.5c-2.6,0-4.6-2.1-4.6-4.6V998c0-2.6,2.1-4.7,4.6-4.7h64.5c2.6,0,4.6,2.1,4.6,4.7v24.2
		C2146.7,1024.8,2144.6,1026.9,2142.1,1026.9z M2082.2,1017.6h55.2v-14.9h-55.2V1017.6z"/>
	<path class="st0" d="M2090.1,1066.6c-9.5,0-17.3-7.7-17.3-17.2c0-9.5,7.8-17.3,17.3-17.3c9.5,0,17.3,7.7,17.3,17.3
		C2107.4,1058.9,2099.7,1066.6,2090.1,1066.6z M2090.1,1041.4c-4.4,0-8,3.6-8,8c0,4.4,3.6,8,8,8c4.4,0,8-3.6,8-8
		C2098.1,1045,2094.6,1041.4,2090.1,1041.4z"/>
	<path class="st0" d="M2129.5,1066.6c-9.5,0-17.2-7.7-17.2-17.2c0-9.5,7.8-17.3,17.2-17.3c9.5,0,17.3,7.7,17.3,17.3
		C2146.7,1058.9,2139,1066.6,2129.5,1066.6z M2129.5,1041.4c-4.4,0-8,3.6-8,8c0,4.4,3.6,8,8,8c4.4,0,8-3.6,8-8
		C2137.4,1045,2133.9,1041.4,2129.5,1041.4z"/>
	<path class="st0" d="M2090.1,1106.5c-9.5,0-17.3-7.7-17.3-17.2c0-9.5,7.8-17.3,17.3-17.3c9.5,0,17.3,7.7,17.3,17.3
		C2107.4,1098.7,2099.7,1106.5,2090.1,1106.5z M2090.1,1081.2c-4.4,0-8,3.6-8,8c0,4.4,3.6,8,8,8c4.4,0,8-3.6,8-8
		C2098.1,1084.8,2094.6,1081.2,2090.1,1081.2z"/>
	<path class="st0" d="M2129.5,1106.5c-9.5,0-17.2-7.7-17.2-17.2c0-9.5,7.8-17.3,17.2-17.3c9.5,0,17.3,7.7,17.3,17.3
		C2146.7,1098.7,2139,1106.5,2129.5,1106.5z M2129.5,1081.2c-4.4,0-8,3.6-8,8c0,4.4,3.6,8,8,8c4.4,0,8-3.6,8-8
		C2137.4,1084.8,2133.9,1081.2,2129.5,1081.2z"/>
	<path class="st0" d="M2208.8,923.9h-17.4l0,0l0,0h-21.6l0,0h0h-21.6l0,0c0,0,0,0,0,0h-21.6l0,0l0,0h-21.6l0,0c0,0,0,0,0,0h-21.6h0
		l0,0h-17.4l0,0c-2.4,0-4.7,0.9-6.4,2.6c-1.7,1.7-2.7,4-2.7,6.4v21.4c0,5,4.1,9,9,9h143c2.4,0,4.7-0.9,6.4-2.7
		c1.7-1.7,2.7-3.9,2.6-6.4v-21.4C2217.8,928,2213.8,923.9,2208.8,923.9z M2208.6,954.1h-142.5v-20.9h12.5v10.4
		c0,2.6,2.1,4.6,4.6,4.6c2.6,0,4.6-2.1,4.6-4.6v-10.4h12.4v5.8c0,2.6,2.1,4.6,4.6,4.6c2.6,0,4.6-2.1,4.6-4.6v-5.8h12.4v10.4
		c0,2.6,2.1,4.6,4.6,4.6c2.6,0,4.6-2.1,4.6-4.6v-10.4h12.4v5.8c0,2.6,2.1,4.6,4.6,4.6c2.5,0,4.6-2.1,4.6-4.6v-5.8h12.4v10.4
		c0,2.6,2.1,4.6,4.6,4.6c2.6,0,4.6-2.1,4.6-4.6v-10.4h12.4v5.8c0,2.6,2.1,4.6,4.6,4.6c2.6,0,4.6-2.1,4.6-4.6v-5.8h12.5V954.1z"/>
	<path class="st0" d="M2235.3,901.3h-220.6c-2.6,0-4.6,2.1-4.6,4.6v146.8c0,12.8,10.4,23.3,23.3,23.3h23.5v-9.3h-23.5
		c-7.7,0-14-6.3-14-14V910.5h211.3v156.2h-12.8v9.3h17.5c2.6,0,4.6-2.1,4.6-4.6V905.9C2240,903.3,2237.9,901.3,2235.3,901.3z"/>
	<rect x="2162.8" y="1066.7" class="st0" width="21" height="9.3"/>
</g>
<g>
	<path class="st0" d="M2257.3-314h-29.4c-2.6,0-4.6-2.1-4.6-4.6c0-2.6,2.1-4.6,4.6-4.6h29.4c2.6,0,4.6,2.1,4.6,4.6
		C2262-316.1,2259.9-314,2257.3-314z"/>
	<path class="st0" d="M2261.2-293.7h-43.6c-2.6,0-4.6-2.1-4.6-4.7c0-2.6,2.1-4.6,4.6-4.6h43.6c2.5,0,4.6,2.1,4.6,4.6
		C2265.8-295.8,2263.7-293.7,2261.2-293.7z"/>
	<path class="st0" d="M2446.1-268.6c0-0.1,0-0.1,0-0.2c-0.1-0.4-0.2-0.7-0.3-1c0,0,0-0.1,0-0.1l-32.4-68.1v-163.3
		c0-2.6-2.1-4.6-4.6-4.6h-197.2c-2.6,0-4.6,2.1-4.6,4.6v163.3l-32.4,68.1c0,0,0,0,0,0.1c-0.1,0.3-0.3,0.7-0.3,1c0,0.1,0,0.1,0,0.2
		c-0.1,0.2-0.1,0.5-0.1,0.7v17.6c0,2.6,2.1,4.6,4.6,4.6h263c2.6,0,4.6-2.1,4.6-4.6v-17.6C2446.2-268.2,2446.1-268.4,2446.1-268.6z
		 M2216.1-496.6h188v155.1h-188V-496.6z M2214.4-332.3h191.4l28.4,59.7h-248.3L2214.4-332.3z M2436.9-255h-253.7v-8.3h253.7V-255z"
		/>
	<path class="st0" d="M2384.1-279.4h-109.9c-1.8,0-3.5-1.1-4.3-2.8c-0.7-1.7-0.4-3.6,0.8-5c7.6-8.3,7.6-21.8,0-30.2
		c-1.2-1.4-1.5-3.3-0.8-5c0.7-1.7,2.4-2.8,4.3-2.8h109.9c2.6,0,4.6,2.1,4.6,4.7v36.4C2388.7-281.5,2386.7-279.4,2384.1-279.4z
		 M2282.7-288.7h96.7v-27.1h-96.7C2286.6-307.3,2286.6-297.2,2282.7-288.7z"/>
	<path class="st0" d="M2364.4-297.6h-65.7c-2.6,0-4.6-2.1-4.6-4.6c0-2.6,2.1-4.6,4.6-4.6h65.7c2.6,0,4.6,2.1,4.6,4.6
		C2369-299.7,2367-297.6,2364.4-297.6z"/>
	<path class="st0" d="M2356.3-332.3h-109.9c-1.7,0-3.3-1-4.1-2.4c-0.8-1.5-0.7-3.3,0.2-4.8c8.1-12.1,8.1-32.5,0-44.6
		c-0.5-0.8-0.8-1.7-0.8-2.6c0-4.6,3.3-4.6,9.4-4.6h105.2c2.6,0,4.6,2.1,4.6,4.6v49.8C2360.9-334.3,2358.8-332.3,2356.3-332.3z
		 M2254-341.5h97.6v-40.5c-17,0-76.3,0-97.6,0C2259.2-369.6,2259.2-354,2254-341.5z"/>
	<path class="st0" d="M2392.2-489.5h-164.3c-2.6,0-4.6,2.1-4.6,4.6v131.5c0,2.6,2.1,4.6,4.6,4.6h18.8c0.9-2.9,1.4-6.1,1.7-9.3h-15.9
		v-122.2h155.1V-358h-26.7v9.3h31.3c2.6,0,4.6-2.1,4.6-4.6v-131.5C2396.9-487.4,2394.8-489.5,2392.2-489.5z"/>
	<path class="st0" d="M2388.4-322.2l-17-42.2c-0.7-1.8-2.4-2.9-4.3-2.9h-6.2v9.3h3.1l13.3,32.9h-96.2l2.9-7.2h-10l-4.1,10.1
		c-0.6,1.4-0.4,3,0.5,4.3c0.9,1.3,2.3,2.1,3.9,2.1h109.9c1.5,0,3-0.8,3.8-2.1C2388.8-319.1,2389-320.7,2388.4-322.2z"/>
	<path class="st0" d="M2338.9-348.6h-70.1c-2.6,0-4.6-2.1-4.6-4.6s2.1-4.6,4.6-4.6h70.1c2.5,0,4.6,2.1,4.6,4.6
		S2341.4-348.6,2338.9-348.6z"/>
	<path class="st0" d="M2338.9-365.7h-70.1c-2.6,0-4.6-2.1-4.6-4.6s2.1-4.6,4.6-4.6h70.1c2.5,0,4.6,2.1,4.6,4.6
		S2341.4-365.7,2338.9-365.7z"/>
	<path class="st0" d="M2356.3-382.1h-109.9c-1.5,0-3-0.8-3.9-2c-0.9-1.3-1-2.9-0.5-4.3l17-42.2c0.7-1.8,2.4-2.9,4.3-2.9h75.9
		c1.9,0,3.6,1.1,4.3,2.9l17,42.2c0.6,1.4,0.4,3-0.5,4.3C2359.2-382.8,2357.8-382.1,2356.3-382.1z M2253.2-391.3h96.2l-13.2-32.9
		h-69.7L2253.2-391.3z"/>
</g>
<g>
	<path class="st0" d="M2094.2,1109.3c-0.4,0-0.9-0.1-1.3-0.2c-44.8-13.5-76.2-55.6-76.2-102.5c0-46.8,31.3-88.9,76-102.4
		c2.5-0.7,5,0.7,5.8,3.1c0.7,2.4-0.7,5-3.1,5.8c-40.9,12.3-69.4,50.8-69.4,93.5c0,42.8,28.6,81.3,69.6,93.6c2.5,0.7,3.8,3.3,3.1,5.8
		C2098,1108,2096.2,1109.3,2094.2,1109.3z"/>
	<path class="st0" d="M2085,915.4c-4.8,0-9.9-1.5-15.1-4.5c-1.4-0.8-2.3-2.2-2.3-3.8c-0.4-9.9,2.5-17.5,8.6-22.5
		c12.5-10.3,33.8-5.3,34.7-5c1.2,0.3,2.2,1,2.9,2.1c0.7,1,0.8,2.3,0.5,3.5c-0.2,0.9-5.5,22.1-20.4,28.5
		C2091,914.8,2088,915.4,2085,915.4z M2076.8,904c5,2.4,9.4,2.7,13.4,1c6.7-2.9,11.2-11.3,13.5-17.4c-6.4-0.7-16-0.6-21.6,4
		C2078.7,894.4,2077,898.5,2076.8,904z"/>
	<path class="st0" d="M2018.5,983.5c-0.6,0-1.2-0.1-1.7-0.3c-9.2-3.7-14.9-9.5-16.9-17.2c-4.2-15.6,9.2-32.9,9.8-33.6
		c0.8-1,1.9-1.6,3.1-1.7c1.2-0.1,2.5,0.2,3.4,1c0.7,0.6,17.8,14.2,17.5,30.4c-0.2,8-4.4,14.9-12.4,20.7
		C2020.4,983.2,2019.4,983.5,2018.5,983.5z M2014.1,942.2c-3.3,5.6-7.2,14.4-5.3,21.4c1.1,4.1,4.1,7.4,9.1,9.9
		c4.3-3.6,6.4-7.5,6.5-11.8C2024.4,954.4,2018.6,946.8,2014.1,942.2z"/>
	<path class="st0" d="M2019.9,1063.2c-3.7,0-7.3-0.9-10.6-2.6c-14.3-7.6-17.9-29.1-18.1-30c-0.2-1.2,0.1-2.5,0.8-3.5
		c0.7-1,1.8-1.6,3-1.9c0.9-0.1,22.5-3.4,34.2,7.8c5.7,5.5,8,13.3,6.8,23.1c-0.2,1.6-1.2,3-2.6,3.6
		C2028.7,1062.1,2024.1,1063.2,2019.9,1063.2z M2031.5,1055.6L2031.5,1055.6L2031.5,1055.6z M2001.6,1034c1.8,6.2,5.7,15,12.1,18.4
		c3.8,2,8.2,2,13.4,0.1c0.3-5.6-1.1-9.8-4.2-12.7C2017.6,1034.7,2008,1033.8,2001.6,1034z"/>
	<path class="st0" d="M2071.4,1126.9c-14.2,0-27.6-11.8-28.2-12.3c-0.9-0.8-1.5-2-1.5-3.2c-0.1-1.2,0.4-2.4,1.2-3.3
		c0.6-0.7,15.3-16.8,31.4-15.5c7.9,0.7,14.6,5.3,19.9,13.7c0.8,1.3,0.9,3,0.2,4.5c-4.3,8.9-10.4,14.3-18.2,15.8
		C2074.5,1126.7,2073,1126.9,2071.4,1126.9z M2053.3,1110.6c5.3,3.7,13.9,8.1,21,6.6c4.2-0.8,7.6-3.6,10.4-8.4
		c-3.3-4.5-7-6.8-11.3-7.2C2066.1,1101.1,2058.1,1106.4,2053.3,1110.6z"/>
	<path class="st0" d="M2153.1,1109.3c-2,0-3.8-1.3-4.4-3.3c-0.8-2.5,0.6-5,3.1-5.8c41-12.3,69.6-50.8,69.6-93.6
		c0-42.7-28.5-81.2-69.4-93.5c-2.5-0.8-3.9-3.3-3.1-5.8c0.8-2.5,3.3-3.8,5.8-3.1c44.7,13.5,76,55.6,76,102.4
		c0,46.9-31.3,89-76.2,102.5C2154,1109.3,2153.5,1109.3,2153.1,1109.3z"/>
	<path class="st0" d="M2162.3,915.4c-3.1,0-6-0.6-8.8-1.8c-14.9-6.4-20.2-27.6-20.4-28.5c-0.3-1.2-0.1-2.5,0.6-3.5
		c0.6-1,1.7-1.8,2.9-2.1c0.9-0.2,22.1-5.2,34.7,5c6.1,5,9,12.6,8.6,22.5c-0.1,1.6-0.9,3-2.3,3.8
		C2172.2,913.9,2167.1,915.4,2162.3,915.4z M2175.1,906.8L2175.1,906.8L2175.1,906.8z M2143.6,887.6c2.3,6.1,6.8,14.5,13.5,17.4
		c4,1.7,8.3,1.3,13.4-1c-0.2-5.6-1.9-9.6-5.3-12.3C2159.6,887,2150,886.9,2143.6,887.6z"/>
	<path class="st0" d="M2228.8,983.5c-1,0-1.9-0.3-2.7-0.9c-8-5.8-12.2-12.8-12.4-20.7c-0.3-16.2,16.8-29.8,17.5-30.4
		c1-0.8,2.2-1.1,3.4-1c1.2,0.2,2.3,0.8,3.1,1.7c0.6,0.7,13.9,18,9.8,33.6c-2,7.7-7.7,13.5-16.9,17.2
		C2230,983.4,2229.4,983.5,2228.8,983.5z M2233.2,942.2c-4.5,4.6-10.4,12.2-10.2,19.5c0.1,4.3,2.2,8.1,6.4,11.7c5-2.5,8-5.7,9.1-9.9
		C2240.4,956.6,2236.5,947.8,2233.2,942.2z"/>
	<path class="st0" d="M2230.1,1063.2c-4.3,0-8.8-1.1-13.6-3.4c-1.4-0.7-2.5-2.1-2.6-3.6c-1.2-9.8,1.1-17.6,6.8-23.1
		c11.7-11.2,33.3-7.9,34.2-7.8c1.2,0.2,2.3,0.9,3,1.9c0.7,1,1,2.3,0.8,3.5c-0.1,0.9-3.8,22.5-18.1,30
		C2237.4,1062.3,2233.9,1063.2,2230.1,1063.2z M2222.9,1052.5c5.2,2,9.6,1.9,13.4-0.1c6.4-3.4,10.3-12.2,12.1-18.4
		c-6.5-0.2-16,0.7-21.3,5.7C2224.1,1042.7,2222.7,1046.9,2222.9,1052.5z"/>
	<path class="st0" d="M2175.9,1126.9c-1.6,0-3.1-0.1-4.7-0.5c-7.8-1.5-13.9-6.9-18.2-15.8c-0.7-1.4-0.6-3.1,0.3-4.5
		c5.3-8.4,11.9-13,19.9-13.7c16.1-1.3,30.8,14.8,31.4,15.5c0.8,0.9,1.2,2.1,1.2,3.3c-0.1,1.2-0.6,2.4-1.5,3.2
		C2203.5,1115.1,2190.2,1126.9,2175.9,1126.9z M2162.5,1108.9c2.8,4.8,6.2,7.6,10.4,8.4c7.1,1.4,15.6-3,21-6.6
		c-4.9-4.2-12.9-9.6-20.1-8.9C2169.6,1102.1,2165.9,1104.4,2162.5,1108.9z"/>
	<path class="st0" d="M2175.9,1126.9c-6.9,0-16.5-2.8-23-16.3c-0.7-1.4-0.6-3.1,0.3-4.5c7.1-11.4,15.8-13.7,21.8-13.7
		c15.3,0,28.9,15,29.4,15.6c0.8,0.9,1.2,2.1,1.2,3.3c-0.1,1.2-0.6,2.4-1.5,3.2C2203.6,1115,2190.2,1126.9,2175.9,1126.9z
		 M2162.6,1108.9c3.4,5.9,7.8,8.7,13.4,8.7c6.8,0,13.8-4,18-6.9c-4.2-3.7-11.6-9-18.9-9C2170.3,1101.6,2166.2,1104,2162.6,1108.9z"
		/>
	<path class="st0" d="M2238.9,994.6l-114-31.8c-0.8-0.2-1.7-0.2-2.5,0l-114,31.8c-2,0.6-3.4,2.4-3.4,4.5c0,2.1,1.4,3.9,3.4,4.5
		l114,31.9c0.4,0.1,0.8,0.2,1.2,0.2c0.4,0,0.8,0,1.2-0.2l37.8-10.6l0.6,47.6c-0.9,1-1.4,2.4-1.4,3.9c0,3.3,2.7,6.1,6.1,6.1
		s6.1-2.7,6.1-6.1c0-1.5-0.6-2.9-1.5-4l-0.6-50.1l66.9-18.7c2-0.6,3.4-2.4,3.4-4.5C2242.2,997,2240.9,995.2,2238.9,994.6z
		 M2167.7,1013.8l-42.1-19c-2.3-1-5.1,0-6.1,2.3c-1,2.3,0,5.1,2.3,6.1l32,14.4l-30.1,8.4l-96.7-27l96.7-27.1l96.7,27.1
		L2167.7,1013.8z"/>
	<path class="st0" d="M2194.9,1015.8l-9.3,2.6v14.9c0,0.1,0,0.1,0,0.1l0,0.2c0,4.9-4.8,10.1-13.4,14.4l0.1,10.2
		c14-6,22.5-14.7,22.5-24.6c0-0.1,0-0.3,0-0.5V1015.8z"/>
	<path class="st0" d="M2163.1,1051.8c-10.4,3.5-23.9,5.8-39.4,5.8c-36.5,0-62-12.6-62-23.9v-15.3l-9.3-2.6v17.8
		c0,18.9,30.7,33.2,71.3,33.2c14.9,0,28.4-1.9,39.6-5.3L2163.1,1051.8z"/>
</g>
<g>
	<path class="st0" d="M2081.9,992c-0.7,0-1.5-0.2-2.1-0.5l-32.3-16.9c-4.9,0.8-10,1.3-15.1,1.3c-36.7,0-66.6-22-66.6-49.1
		c0-27.1,29.9-49.1,66.6-49.1c36.7,0,66.6,22,66.6,49.1c0,12.4-6.1,24.1-17.3,33.1l4.8,26.7c0.3,1.7-0.4,3.5-1.8,4.5
		C2083.9,991.7,2082.9,992,2081.9,992z M2048.2,965.1c0.8,0,1.5,0.2,2.1,0.5l25.3,13.2l-3.7-20.2c-0.3-1.7,0.4-3.5,1.8-4.6
		c10.2-7.5,15.9-17.2,15.9-27.4c0-22-25.7-39.8-57.3-39.8c-31.6,0-57.3,17.9-57.3,39.8c0,22,25.7,39.9,57.3,39.9
		c5.1,0,10.1-0.5,15-1.4C2047.6,965.2,2047.9,965.1,2048.2,965.1z"/>
	<path class="st0" d="M2009.5,954.2c-1.2,0-2.4-0.5-3.3-1.4c-1.8-1.8-1.8-4.7,0-6.6l45.8-45.8c1.8-1.8,4.7-1.8,6.6,0
		c1.8,1.8,1.8,4.7,0,6.6l-45.8,45.8C2011.8,953.7,2010.6,954.2,2009.5,954.2z"/>
	<path class="st0" d="M2017,924.1L2017,924.1c-3.3,0-6.5-1.3-8.8-3.7c-4.8-4.8-4.8-12.8,0-17.6c4.9-4.9,12.8-4.9,17.7,0
		c2.4,2.3,3.6,5.5,3.6,8.8c0,3.3-1.3,6.5-3.6,8.8l0,0C2023.5,922.8,2020.3,924.1,2017,924.1z M2017,908.4c-0.8,0-1.6,0.3-2.3,0.9
		c-1.2,1.2-1.2,3.3,0,4.5c0.6,0.6,1.4,0.9,2.3,0.9l0,0c0.9,0,1.7-0.3,2.3-0.9l0,0c0.6-0.6,0.9-1.4,0.9-2.3c0-0.9-0.4-1.6-0.9-2.3
		C2018.6,908.7,2017.8,908.4,2017,908.4z"/>
	<path class="st0" d="M2047.4,954.2c-6.9,0-12.5-5.6-12.5-12.5c0-6.9,5.6-12.5,12.5-12.5c3.3,0,6.4,1.3,8.8,3.7
		c2.4,2.4,3.7,5.5,3.7,8.8l0,0l0,0c0,3.3-1.3,6.5-3.7,8.8S2050.7,954.2,2047.4,954.2z M2047.4,938.5c-1.8,0-3.2,1.4-3.2,3.2
		c0,1.8,1.4,3.2,3.2,3.2c0.9,0,1.6-0.3,2.3-1c0.6-0.6,0.9-1.4,0.9-2.3l0,0c0-0.9-0.3-1.7-0.9-2.3
		C2049,938.8,2048.2,938.5,2047.4,938.5z"/>
	<path class="st0" d="M2168.1,1055c-1,0-1.9-0.3-2.7-0.9c-1.4-1-2.1-2.8-1.8-4.6l4.8-26.7c-11.2-9-17.3-20.7-17.3-33.1
		c0-27.1,29.9-49.1,66.6-49.1c36.7,0,66.6,22,66.6,49.1s-29.9,49.1-66.6,49.1c-5.1,0-10.2-0.4-15.1-1.3l-32.3,16.9
		C2169.6,1054.8,2168.8,1055,2168.1,1055z M2217.7,949.9c-31.6,0-57.3,17.9-57.3,39.8c0,10.2,5.6,19.9,15.8,27.4
		c1.4,1,2.1,2.8,1.8,4.6l-3.6,20.1l25.3-13.2c0.9-0.5,2-0.6,3-0.5c4.9,0.9,9.9,1.4,15,1.4c31.6,0,57.3-17.9,57.3-39.9
		C2275,967.8,2249.3,949.9,2217.7,949.9z"/>
	<path class="st0" d="M2195.1,1017.1c-1.2,0-2.4-0.5-3.3-1.4c-1.8-1.8-1.8-4.7,0-6.6l45.8-45.8c1.8-1.8,4.7-1.8,6.5,0
		c1.8,1.8,1.8,4.7,0,6.6l-45.8,45.8C2197.5,1016.7,2196.3,1017.1,2195.1,1017.1z"/>
	<path class="st0" d="M2202.6,987L2202.6,987c-3.4,0-6.5-1.3-8.8-3.7c-4.9-4.9-4.9-12.8,0-17.6c4.8-4.9,12.8-4.9,17.6,0
		c2.4,2.4,3.7,5.5,3.7,8.8c0,3.3-1.3,6.5-3.7,8.8l0,0C2209.1,985.7,2205.9,987,2202.6,987z M2202.6,971.4c-0.8,0-1.6,0.3-2.3,0.9
		c-1.2,1.3-1.2,3.3,0,4.5c0.6,0.6,1.4,0.9,2.3,0.9l0,0c0.9,0,1.6-0.3,2.3-0.9l0,0c0.6-0.6,0.9-1.4,0.9-2.3c0-0.9-0.3-1.6-0.9-2.3
		C2204.3,971.7,2203.4,971.4,2202.6,971.4z"/>
	<path class="st0" d="M2233,1017.1c-6.9,0-12.5-5.6-12.5-12.5c0-6.9,5.6-12.5,12.5-12.5c3.3,0,6.5,1.3,8.8,3.6
		c2.4,2.4,3.7,5.5,3.7,8.8l0,0l0,0c0,3.3-1.3,6.5-3.7,8.8C2239.5,1015.8,2236.3,1017.1,2233,1017.1z M2233,1001.4
		c-1.7,0-3.2,1.4-3.2,3.2c0,1.8,1.4,3.2,3.2,3.2c0.9,0,1.7-0.3,2.3-0.9c0.6-0.6,0.9-1.4,0.9-2.3l0,0c0-0.9-0.3-1.7-0.9-2.3
		C2234.7,1001.8,2233.9,1001.4,2233,1001.4z"/>
	<path class="st0" d="M2202.5,1037.6l-5.4,2.8c-0.8,12.6-4.5,24.8-10.8,35.8c-5.5,9.5-12.5,17.6-21.1,24.2c-0.1-0.1-0.1-0.2-0.2-0.3
		c-0.1-0.1-0.1-0.2-0.1-0.3c-0.3-0.5-0.6-1.1-0.9-1.6c-0.1-0.1-0.1-0.2-0.2-0.3c-0.4-0.5-0.8-1.1-1.3-1.6c-0.1-0.1-0.2-0.1-0.2-0.2
		c-0.5-0.6-1.1-1.1-1.8-1.6c0,0-0.1-0.1-0.1-0.1c-0.7-0.6-1.5-1.1-2.4-1.6c-2-1.1-2.8-2-3.1-2.3c-0.1-0.1-0.1-0.2-0.1-0.2
		c0.1-0.9,2.2-3.3,3.5-4.6c2.6-2.8,5.5-6.1,6.6-10.2c2.5-8.8-2.9-19.8-11-22.3c-3.9-1.2-8.8-0.3-12.1,5.1c-0.8,1.2-1.5,2.7-2.1,4.5
		c-2.7,8.3-6.2,10.1-7.6,9.9c-2.6-1.3-11.5-5.1-18-2.7c-5.1,1.9-8,3.8-10.6,5.5c-1.3,0.9-2.6,1.7-4.1,2.5c-2,1-4.2,1.4-5.3,0.8
		c-0.9-0.5-1.6-2.3-1.7-4.8c-0.2-2.8,1-5.6,3.4-8.2c3.6-4,8.7-6.1,10.5-6.2c0.2,0,0.4,0,0.6-0.1c3.5-0.6,6.5-3.6,8.1-8.1
		c1.6-4.6,1.8-11.3-2.5-16.2c-1.8-2-2.2-4-1.4-5.9c1.1-2.5,4.2-4.1,8.1-4.1c6.7,0,8.1,2.5,12.1,9.6c0.7,1.2,1.5,2.6,2.3,4
		c2.7,4.5,7.7,7.1,13,6.5c4.9-0.5,8.8-3.4,10.2-7.5c0.9-2.7,1.5-8.3-5.2-14.8c-1.3-1.3-1.6-2-1.6-2c0.5-1.1,4.2-3.3,6.2-4.5
		c1.2-0.7,2.5-1.5,3.8-2.3c-2-2.5-3.6-5.1-4.9-7.9c-1.1,0.7-2.3,1.4-3.5,2.2c-4.7,2.8-10,5.9-10.7,11.3c-0.4,3.3,1.1,6.6,4.4,9.8
		c2.7,2.7,3.1,4.5,2.9,5.1c-0.2,0.5-1.1,1.2-2.4,1.3c-0.8,0.1-2.9,0-4.1-2c-0.8-1.4-1.5-2.6-2.2-3.8c-4.3-7.6-8-14.2-20.2-14.3
		c-0.1,0-0.1,0-0.2,0c-2.7,0-5.3,0.5-7.7,1.5h0c-0.5,0.2-1,0.5-1.5,0.7c-0.3,0.1-0.6,0.2-0.8,0.4c-0.2,0.1-0.3,0.2-0.5,0.3
		c-2.7,1.7-4.8,3.9-6,6.7c-2.4,5.3-1.3,11.2,2.9,15.9c1.4,1.6,1.3,4,1.2,4.9c-0.2,2.1-1.1,3.6-1.6,4.1c-4.5,0.5-11.3,3.8-16.2,9.2
		c-4.1,4.5-6,9.7-5.7,15c0.4,7.5,3.7,10.9,6.4,12.4c3.9,2.2,9.2,1.9,14.1-0.7c1.9-1,3.4-2,4.9-2.9c2.4-1.6,4.6-3,8.8-4.6
		c2.3-0.8,7.8,0.9,11,2.5c0.2,0.1,0.4,0.2,0.6,0.2c0.7,0.2,4.3,1.3,8.7-0.9c4.7-2.3,8.3-7.3,10.8-14.9c0.1-0.4,1.3-4.1,2.7-3.6
		c2.6,0.8,6,6.5,4.7,10.9c-0.6,2.1-2.6,4.4-4.6,6.6c-3.1,3.4-6.5,7.3-5.7,12.3c0.1,0.9,0.4,1.7,0.8,2.5c0.7,1.3,1.7,2.6,3,3.8
		c1.1,1,2.4,1.9,4,2.8c0.4,0.2,0.7,0.5,1.1,0.7c0.1,0.1,0.2,0.1,0.3,0.2c0.2,0.2,0.4,0.3,0.6,0.5c0.1,0.1,0.2,0.2,0.2,0.2
		c0.2,0.2,0.3,0.4,0.5,0.5c0,0,0.1,0.1,0.2,0.2c0.2,0.2,0.3,0.5,0.4,0.7c0,0.1,0,0.1,0.1,0.2c0.1,0.2,0.2,0.4,0.2,0.6
		c0,0.1,0.1,0.2,0.1,0.3c0,0.2,0.1,0.4,0.1,0.5c0,0.1,0.1,0.2,0.1,0.3c0,0,0,0.1,0,0.1c-25.9,15.6-57.9,16.1-84.3,0.9
		c-17-9.8-29.8-25-36.5-43.3c0.1,0,0.2,0,0.3,0c0.6,0,1.2,0,1.8,0c0.2,0,0.3,0,0.5,0.1c0.7,0.1,1.3,0.2,1.9,0.4
		c0.1,0,0.2,0.1,0.3,0.1c0.5,0.2,0.9,0.4,1.3,0.7c0.1,0.1,0.3,0.2,0.4,0.3c0.5,0.4,0.9,0.8,1.2,1.2c0.6,0.8,1.3,1.5,2,2.1
		c0.2,0.2,0.4,0.3,0.6,0.5c0.6,0.4,1.1,0.8,1.8,1.1c0.2,0.1,0.4,0.3,0.6,0.4c0.8,0.4,1.7,0.7,2.6,0.9c0.2,0,0.3,0,0.5,0.1
		c0.7,0.1,1.5,0.2,2.3,0.3c0.2,0,0.3,0,0.4,0c0.2,0,0.3,0,0.5-0.1c0.6,0,1.3-0.1,1.9-0.2c0.3-0.1,0.6-0.1,0.9-0.2
		c0.9-0.2,1.9-0.4,2.8-0.8c9.1-3.3,18.9-14.2,18.5-23.7c-0.2-5.3-3.5-9.2-9-10.7c-3.8-1.1-4.4-2.1-4.4-2.1c-0.3-0.7,0.6-3.1,1.2-4.5
		c1.7-4.5,5.3-13.8-7-18.8c-4.8-2-5.8-4-5.6-4.4c0.5-1.2,4.5-3.2,11.2-0.8c4.9,1.8,19.8,7.3,30-6.1c5-6.5,7.7-13.6,9.2-19.1
		c6.8,5.9,17.8,13.9,27.2,13.4c4.3-0.2,7.9-2.2,10.4-5.6c5.2-6.9,4.4-12.2,2.7-15.4c-2.3-4.5-7.3-6.9-11-8c0-0.2,0-0.5,0-0.8
		c0-0.2,0-0.3,0-0.5c0-0.2,0-0.3,0-0.4c0-0.2,0-0.4,0-0.7c0-0.2,0-0.3,0-0.5c0-0.9,0-2,0-3.2c0-0.2,0-0.4,0-0.7c0-0.4,0-0.7,0-1.1
		c0-0.3,0-0.7,0-1.1c0-0.3,0-0.7,0-1c0-0.1,0-0.1,0-0.2c7.4,1.9,14.5,4.7,21.1,8.6c1.4,0.8,2.7,1.6,4.1,2.5c1.9-2.4,4-4.7,6.4-6.9
		c-1.9-1.3-3.9-2.6-5.9-3.7c-9.1-5.2-19-8.9-29.3-10.8c-12.4-2.3-24.9-1.9-36.8,0.8c-2.5,4.6-5.9,8.8-10.1,12.7
		c12.9-5,27-6.9,41.2-5c0,0.5,0,1-0.1,1.5c0,0.4,0,0.8-0.1,1.2c0,0.7,0,1.4-0.1,2c0,0.2,0,0.5,0,0.7c0,0.8,0,1.6,0,2.4
		c0,0.1,0,0.2,0,0.3c0,0.6,0,1.2,0,1.8c0,0.2,0,0.3,0,0.5c0,0.4,0,0.8,0,1.2c0,0.2,0,0.4,0,0.5c0,0.3,0,0.7,0.1,1c0,0.2,0,0.3,0,0.5
		c0,0.3,0.1,0.6,0.1,0.8c0,0.2,0,0.3,0.1,0.4c0,0.2,0,0.5,0.1,0.6c0,0.1,0,0.2,0.1,0.4c0,0.2,0.1,0.4,0.1,0.5c0,0.1,0.1,0.2,0.1,0.3
		c0.1,0.2,0.1,0.3,0.1,0.4c0,0.1,0.1,0.2,0.1,0.2c0,0.1,0.1,0.2,0.1,0.3c0,0.1,0.1,0.1,0.1,0.2c0,0.1,0.1,0.2,0.1,0.3
		c0,0.1,0.1,0.1,0.1,0.2c0.1,0.1,0.1,0.2,0.2,0.3c0,0,0.1,0.1,0.1,0.1c0.1,0.1,0.1,0.2,0.2,0.2c0,0,0,0,0,0.1
		c0.1,0.1,0.2,0.2,0.3,0.3c1,1,2.5,1.6,3.7,1.5c1.2,0.1,5.3,1.4,6.3,3.6c0.7,1.6-0.9,4.1-1.9,5.4c-0.9,1.2-2,1.8-3.6,1.9
		c-7.3,0.5-19.9-9.9-26.2-16.5c-1.3-1.3-3.2-1.8-4.9-1.2c-1.7,0.6-2.9,2.1-3.1,4c0,0.1-1.3,12.8-9.1,23c-5.3,7-12.5,5.6-19.6,3
		c-11.3-4.2-20.5-0.1-22.9,6.2c-1.9,4.8-0.1,11.9,10.8,16.4c3.9,1.6,3.7,2,1.8,6.9c-1.3,3.4-3,7.7-0.8,12c1.6,3.2,4.9,5.4,10.2,6.9
		c2.2,0.6,2.3,1.5,2.3,2.2c0.2,4.3-6,12.3-12.4,14.7c-2.1,0.8-3.6,0.7-4.5,0.3c-1-0.4-1.5-1.1-1.8-1.5c-0.6-0.7-1.2-1.3-1.8-2
		c-0.2-0.2-0.4-0.3-0.6-0.5c-0.5-0.4-0.9-0.8-1.4-1.1c-0.3-0.2-0.6-0.3-0.8-0.5c-0.5-0.3-1-0.5-1.5-0.8c-0.3-0.1-0.6-0.3-0.9-0.4
		c-0.6-0.2-1.2-0.4-1.8-0.5c-0.3-0.1-0.6-0.2-0.8-0.2c-1.8-0.4-3.7-0.5-5.7-0.4c-0.3,0-0.6,0.1-0.9,0.1c-0.5,0.1-1,0.1-1.6,0.2
		c-5.1-20.8-2.1-42.3,8.7-61c3.3-5.7,7.2-10.9,11.6-15.5l-6.5-3.4c-1.1,0.2-2.2,0.3-3.3,0.5c-3.6,4.2-6.9,8.8-9.8,13.8
		c-12.8,22.2-15.7,47.9-8.4,72.4c0,0,0,0,0,0c6.8,22.7,21.8,41.7,42.4,53.5c14.3,8.3,30.2,12.3,46,12.3c17.5,0,35-5,50.4-15.1
		c0,0,0,0,0,0c12.3-8,22.2-18.5,29.6-31.3c7.5-13.1,11.7-27.8,12.2-42.7C2205.2,1038,2203.9,1037.8,2202.5,1037.6z M2130.9,964
		c0,0,0.1,0,0.2,0c0,0,0,0,0.1,0C2131.1,964,2131,964,2130.9,964z"/>
</g>
<g>
	<path class="st0" d="M2375.8-288.2c-11.7,0-21.3-9.6-21.3-21.3c0-11.7,9.6-21.3,21.3-21.3c11.7,0,21.3,9.5,21.3,21.3
		C2397.1-297.8,2387.6-288.2,2375.8-288.2z M2375.8-321.5c-6.6,0-12,5.4-12,12c0,6.6,5.4,12,12,12c6.6,0,12-5.4,12-12
		C2387.8-316.1,2382.4-321.5,2375.8-321.5z"/>
	<path class="st0" d="M2257-282.3c-17.3,0-34.7-4-42.6-11.9c-1.1-1.1-1.6-2.8-1.2-4.4c0.1-0.5,5.5-24.1-4.1-45.3
		c-1.8-4-4.5-7.3-7.7-11.2c-9.3-11.3-20.8-25.4-20.8-66c0-0.1,0-0.3,0-0.4c0.3-68.5,69-70.5,76.8-70.5c0.3,0,0.8,0,1.3,0
		c1,0,2.2-0.1,3.6-0.1c32.3,0,69,18.1,75,69c0.1,0.4,1.3,7.6,17.2,32.5c0.2,0.3,2.9,4.2,1.8,9.1c-0.5,2.2-1.9,5.3-6.2,7.8
		c-4.6,2.7-9.8,5-13,6.4c0.6,6.6,1.5,20.9-0.1,29.5c-2.1,10.9-18.1,13.1-31.2,13.1c-1.7,0-2.7-0.1-2.7-0.1h-0.5
		c-0.8,0-1.3,0.1-1.7,0.2v27.1c0,1.2-0.5,2.4-1.4,3.3C2291.6-286.3,2274.3-282.3,2257-282.3z M2222.7-299.3
		c13.9,10.2,55.6,10.1,68.9-0.3v-26c0-3.9,2.9-8.5,11-8.5c0.6,0,1,0,1.1,0c0,0,0.8,0,2.1,0c13.6,0,21.5-2.9,22-5.6
		c1.9-9.8-0.3-30-0.3-30.2c-0.2-2.1,1-4.1,2.9-4.8c0.1,0,8.3-3.2,15-7.1c0.6-0.4,1.6-1,1.7-1.8c0.2-0.8-0.5-1.9-0.5-1.9
		c-17.1-26.6-18.7-34.9-18.8-36.9c-6.6-56.1-52-60.5-65.8-60.5c-1.3,0-2.5,0-3.4,0.1c-0.7,0-1.2,0-1.5,0c-11.2,0-67.3,3-67.5,61.2
		c0,0.1,0,0.3,0,0.4c0,37.2,9.9,49.4,18.7,60.1c3.4,4.2,6.7,8.2,9,13.2C2226.5-327.8,2224-306.8,2222.7-299.3z"/>
	<path class="st0" d="M2375.8-297.5c-2.6,0-4.6,2.1-4.6,4.6v5c0,16.6-13.5,30.1-30.1,30.1h-49.7c-16.6,0-30.1-13.5-30.1-30.1v-81.7
		c23.4-2.3,41.7-22.1,41.7-46.1c0-20.3-13.2-37.6-31.4-43.8v-39c0-2.6-2.1-4.6-4.6-4.6c-2.6,0-4.6,2.1-4.6,4.6v36.9
		c-1.9-0.2-3.7-0.4-5.7-0.4c-1.9,0-3.8,0.2-5.7,0.4v-36.9c0-2.6-2.1-4.6-4.6-4.6c-2.6,0-4.6,2.1-4.6,4.6v39
		c-18.3,6.3-31.4,23.5-31.4,43.8c0,24,18.3,43.8,41.7,46.1v81.7c0,21.7,17.7,39.4,39.4,39.4h49.7c21.7,0,39.4-17.7,39.4-39.4v-5
		C2380.5-295.4,2378.4-297.5,2375.8-297.5z M2256.6-452.7c1.9,0,3.8,0.2,5.7,0.5v9.6c-1.8-0.4-3.7-0.6-5.7-0.6c-2,0-3.8,0.2-5.7,0.6
		v-9.6C2252.8-452.5,2254.7-452.7,2256.6-452.7z M2256.6-433.9c10.1,0,18.3,8.2,18.3,18.3c0,10.1-8.2,18.3-18.3,18.3
		c-10.1,0-18.3-8.2-18.3-18.3C2238.3-425.7,2246.5-433.9,2256.6-433.9z M2219.5-415.6c0-15.1,9.1-28.2,22.1-33.9v10.8
		c-7.6,4.9-12.6,13.5-12.6,23.1c0,15.2,12.4,27.6,27.6,27.6c15.2,0,27.6-12.4,27.6-27.6c0-9.7-5-18.2-12.7-23.1v-10.8
		c13,5.8,22.1,18.8,22.1,33.9c0,20.4-16.6,37.1-37.1,37.1S2219.5-395.2,2219.5-415.6z"/>
	<path class="st0" d="M2414.6-409.6h-54.1c-2.6,0-4.6-2.1-4.6-4.6c0-2.6,2.1-4.6,4.6-4.6h54.1c2.6,0,4.6,2.1,4.6,4.6
		C2419.2-411.6,2417.2-409.6,2414.6-409.6z"/>
	<path class="st0" d="M2388.7-434.3H2352c-2.6,0-4.6-2.1-4.6-4.6c0-2.6,2.1-4.6,4.6-4.6h36.7c2.6,0,4.6,2.1,4.6,4.6
		C2393.3-436.4,2391.3-434.3,2388.7-434.3z"/>
	<path class="st0" d="M2414.6-384.8h-42.8c-2.6,0-4.6-2.1-4.6-4.6c0-2.6,2.1-4.6,4.6-4.6h42.8c2.6,0,4.6,2.1,4.6,4.6
		C2419.2-386.9,2417.2-384.8,2414.6-384.8z"/>
	<path class="st0" d="M2414.6-360.1h-50.5c-2.6,0-4.6-2.1-4.6-4.6c0-2.6,2.1-4.6,4.6-4.6h50.5c2.6,0,4.6,2.1,4.6,4.6
		C2419.2-362.1,2417.2-360.1,2414.6-360.1z"/>
	<path class="st0" d="M2414.6-335.3h-61.4c-2.6,0-4.6-2.1-4.6-4.6c0-2.6,2.1-4.6,4.6-4.6h61.4c2.6,0,4.6,2.1,4.6,4.6
		C2419.2-337.4,2417.2-335.3,2414.6-335.3z"/>
	<path class="st0" d="M2354.5-309.5c0-1.6,0.2-3.1,0.5-4.6h-30.4V-327c-2.9,0.9-6.1,1.4-9.3,1.8v15.7c0,2.6,2.1,4.6,4.6,4.6h35
		C2354.7-306.4,2354.5-307.9,2354.5-309.5z"/>
	<path class="st0" d="M2439.5-437.5L2439.5-437.5c-0.1-0.4-0.2-0.8-0.4-1.1c0-0.1-0.1-0.2-0.1-0.3c-0.2-0.3-0.4-0.7-0.7-1
		l-26.2-26.2c-0.3-0.3-0.6-0.5-1-0.7c-0.1,0-0.2-0.1-0.3-0.1c-0.6-0.3-1.3-0.5-2-0.5h-88.7c-0.2,0-0.4,0-0.6,0
		c2.4,2.8,4.6,5.9,6.6,9.2h78.1v21.5c0,2.6,2.1,4.6,4.6,4.6h21.5v117.8h-33.7c0.3,1.5,0.5,3,0.5,4.6c0,1.6-0.2,3.1-0.5,4.6h38.4
		c2.6,0,4.6-2.1,4.6-4.6v-127.1C2439.6-436.9,2439.6-437.2,2439.5-437.5z M2413.4-441.2v-10.3l10.3,10.3H2413.4z"/>
</g>
<g>
	<path class="st0" d="M2182.8-411.1c-2.1,0-4.1,0.8-5.5,2.3c-1.5,1.5-2.3,3.4-2.3,5.5c0,2.1,0.8,4.1,2.3,5.5c3,2.9,8.1,2.9,11.1,0
		c3-3,3-8,0-11.1C2186.8-410.3,2184.9-411.1,2182.8-411.1z"/>
	<path class="st0" d="M2378.7-470.4c-2.1,0-4.1,0.8-5.5,2.3c-1.5,1.5-2.3,3.4-2.3,5.5s0.8,4.1,2.3,5.5c2.9,3,8.1,2.9,11.1,0
		c3.1-3,3.1-8,0-11.1C2382.8-469.5,2380.8-470.4,2378.7-470.4z"/>
	<path class="st0" d="M2388-498.9c-2.7-2.7-6.4-4.3-10.2-4.3c-3.9,0-7.5,1.5-10.2,4.3l-25.2,25.2c-5.6,5.6-5.6,14.8,0,20.4l0.4,0.4
		h-43.6c-1.2,0-2.4,0.5-3.3,1.3l-10.6,10.6l-9.6-9.6l2.2-2.2c2.7-2.7,4.2-6.4,4.2-10.2c0-3.9-1.5-7.5-4.2-10.2l-25.2-25.2
		c-2.7-2.7-6.4-4.2-10.2-4.2c-3.9,0-7.5,1.5-10.2,4.2l-86.4,86.5c-5.6,5.6-5.6,14.8,0,20.4l25.2,25.2c2.7,2.7,6.4,4.2,10.2,4.2
		s7.5-1.5,10.2-4.2l2.2-2.2l32.3,32.3c-2.2,3-3.5,6.7-3.5,10.5c0,4.8,1.9,9.3,5.3,12.7c2.3,2.3,5.1,3.8,8.1,4.6
		c-2.3,3.1-3.6,6.8-3.6,10.7c0,4.8,1.9,9.3,5.3,12.7c3.5,3.5,8.1,5.3,12.7,5.3c0.3,0,0.7-0.1,1-0.1c0,0.3-0.1,0.7-0.1,1
		c0,4.8,1.9,9.3,5.3,12.7c3.4,3.4,7.9,5.3,12.7,5.3l0,0c2.9,0,5.6-0.7,8.1-2c0.7,3.3,2.3,6.4,4.8,8.9c3.5,3.5,8.1,5.2,12.7,5.2
		c4.6,0,9.2-1.7,12.7-5.2l0.7-0.7c3,2,6.5,3,9.9,3c4.6,0,9.2-1.8,12.7-5.3c2.3-2.3,3.8-5,4.6-8.1c3.2,2.3,6.9,3.6,10.7,3.6
		c4.6,0,9.2-1.8,12.7-5.3c3.7-3.7,5.4-8.7,5.2-13.7c0.3,0,0.7,0.1,1,0.1c4.8,0,9.3-1.9,12.7-5.3c5.6-5.6,6.6-14,3.3-20.8
		c3.3-0.7,6.4-2.4,8.9-4.8c3.4-3.4,5.3-7.9,5.3-12.7c0-4.8-1.9-9.2-5.2-12.6l34.8-34.8l4.2,4.2c2.7,2.7,6.4,4.2,10.2,4.2
		c3.9,0,7.5-1.5,10.2-4.2l25.2-25.3c5.6-5.6,5.6-14.8,0-20.4L2388-498.9z M2190.3-378.2L2190.3-378.2
		C2190.3-378.2,2190.3-378.2,2190.3-378.2l-5.5,5.5c-2,2-5.4,2-7.3,0l-25.2-25.2c-2-2-2-5.3,0-7.3l86.4-86.4c1-1,2.3-1.5,3.7-1.5
		s2.7,0.6,3.7,1.5l25.3,25.2c0.9,1,1.5,2.3,1.5,3.7c0,1.4-0.6,2.7-1.5,3.7l-5.5,5.4v0c0,0,0,0,0,0L2190.3-378.2z M2234.2-319.3
		c-1.6-1.6-2.5-3.8-2.5-6.2c0-1.3,0.3-2.6,0.9-3.8l11.6,11.6C2240.9-316.1,2236.9-316.6,2234.2-319.3z M2256.3-291.3
		c-3.4,3.4-8.9,3.4-12.3,0c-1.6-1.6-2.6-3.9-2.6-6.2c0-2.3,0.9-4.5,2.6-6.2l0,0l7.1-7.1l12.3,12.3L2256.3-291.3L2256.3-291.3z
		 M2275.2-272.5L2275.2-272.5c-1.7,1.7-3.8,2.6-6.2,2.6l0,0c-2.3,0-4.5-0.9-6.2-2.5c-1.7-1.7-2.6-3.9-2.6-6.2c0-2.3,0.9-4.5,2.6-6.2
		l0,0l0,0l7.1-7.2l12.3,12.3L2275.2-272.5z M2300.7-260.3c-3.4,3.4-8.9,3.4-12.3,0c-3.4-3.4-3.4-8.9,0-12.3c0,0,0,0,0,0l0.4-0.4
		l12.3,12.3L2300.7-260.3z M2383.2-317.4c-1.6,1.6-3.8,2.5-6.2,2.5l0,0c-2.3,0-4.5-0.9-6.2-2.6c0,0,0,0,0,0l-43-43
		c-1.8-1.8-4.7-1.8-6.5,0c-1.8,1.8-1.8,4.7,0,6.6l49.7,49.7c3.4,3.4,3.4,9,0,12.3c-3.3,3.3-9,3.3-12.3,0l0,0v0l-49.7-49.7
		c-1.8-1.8-4.7-1.8-6.6,0c-1.8,1.8-1.8,4.7,0,6.6l49.7,49.7c3.4,3.4,3.4,8.9,0,12.3c-3.4,3.4-8.9,3.4-12.3,0l-49.7-49.7
		c-1.8-1.8-4.8-1.8-6.6,0c-1.8,1.8-1.8,4.7,0,6.5l40.6,40.6c0,0,0,0,0,0c1.6,1.6,2.6,3.8,2.6,6.2c0,2.3-0.9,4.5-2.6,6.2
		c-3.4,3.4-8.9,3.4-12.3,0l-0.7-0.8h0l0,0l-18.9-18.9l0,0l0,0l-18.9-18.9c0,0,0,0,0,0h0l-18.9-18.9l0,0l0,0l-54.3-54.3l69-69
		l9.6,9.6l-9.9,9.9c-4.1,4-6.3,9.4-6.3,15.1c0,5.7,2.2,11.1,6.3,15.1c4,4,9.4,6.3,15.1,6.3l0,0c5.7,0,11.1-2.2,15.1-6.3l9.9-9.9
		L2380-333l0,0l0,0l3.2,3.2C2386.6-326.4,2386.6-320.8,2383.2-317.4z M2383.3-342.8l-67.8-67.8l7-7h11.4l0,0c2.6,0,4.6-2.1,4.6-4.6
		c0-2.6-2.1-4.6-4.6-4.6h-13.3l0,0c-1.2,0-2.4,0.5-3.3,1.4l-24.9,24.8c-2.3,2.3-5.3,3.5-8.5,3.6l0,0c-3.2,0-6.3-1.3-8.5-3.5
		c-2.3-2.3-3.6-5.3-3.6-8.6c0-3.2,1.3-6.3,3.6-8.5l13.2-13.2l0,0l0,0l12.6-12.5h51l66,66L2383.3-342.8z M2467.9-398.6l-25.2,25.2
		c-2,2-5.4,2-7.3,0l-86.4-86.4c-2-2-2-5.3,0-7.3l25.3-25.2c1-1,2.3-1.5,3.6-1.5c1.4,0,2.7,0.5,3.7,1.5l86.4,86.4
		C2469.9-403.9,2469.9-400.6,2467.9-398.6z"/>
	<path class="st0" d="M2182.8-420.4c-4.6,0-8.9,1.8-12.1,5c-3.2,3.2-5,7.5-5,12.1c0,4.6,1.8,8.9,5,12.1c3.2,3.2,7.5,5,12.1,5
		c4.6,0,8.9-1.8,12.1-5c6.7-6.6,6.7-17.5,0-24.2C2191.7-418.6,2187.4-420.4,2182.8-420.4z M2188.3-397.7c-3,2.9-8.1,2.9-11.1,0
		c-1.5-1.5-2.3-3.4-2.3-5.5c0-2.1,0.8-4.1,2.3-5.5c1.5-1.5,3.4-2.3,5.5-2.3c2.1,0,4,0.8,5.5,2.3
		C2191.4-405.7,2191.4-400.8,2188.3-397.7z"/>
	<path class="st0" d="M2378.7-479.6c-4.6,0-8.9,1.8-12.1,5c-3.2,3.2-5,7.5-5,12.1c0,4.5,1.8,8.8,5,12.1c3.2,3.2,7.5,5,12.1,5
		c4.5,0,8.8-1.8,12.1-5c6.7-6.7,6.7-17.5,0-24.2C2387.6-477.9,2383.3-479.6,2378.7-479.6z M2384.3-457c-2.9,2.9-8.1,3-11.1,0
		c-1.5-1.5-2.3-3.4-2.3-5.5s0.8-4.1,2.3-5.5c1.5-1.5,3.4-2.3,5.5-2.3c2.1,0,4.1,0.8,5.5,2.3C2387.3-465,2387.3-460,2384.3-457z"/>
</g>
<g>
	<path class="st0" d="M2149.3,993.3l9.4,9.4c-3.3,4-5.1,8.9-5.1,14.2c0,5.9,2.3,11.5,6.5,15.7l0.4,0.4c4.2,4.2,9.8,6.5,15.7,6.5
		c5.9,0,11.5-2.3,15.7-6.5l31-31c4.2-4.2,6.5-9.8,6.5-15.7s-2.3-11.5-6.5-15.7l-0.4-0.3c-4.2-4.2-9.8-6.5-15.7-6.5
		c-5.2,0-10.2,1.8-14.2,5.1l-37.7-37.7c7.2-8.7,6.8-21.7-1.3-29.8l-0.4-0.4c-4.2-4.2-9.8-6.5-15.7-6.5c-5.9,0-11.5,2.3-15.7,6.5
		l-31,31c-4.2,4.2-6.5,9.8-6.5,15.7c0,5.9,2.3,11.5,6.5,15.7l0.3,0.4c4.2,4.2,9.8,6.5,15.7,6.5c5.2,0,10.2-1.8,14.2-5.1l9.4,9.4
		l-36.2,36.2c-0.5,0-1-0.1-1.6-0.1c-5.5,0-10.7,2.2-14.6,6l-45,45l0,0c0,0,0,0,0,0l-13.7,13.7l0,0c-3.9,3.9-6,9.1-6,14.6
		c0,5.5,2.2,10.7,6,14.6c4,4,9.3,6,14.6,6c5.3,0,10.6-2,14.6-6l58.7-58.7c4.4-4.4,6.4-10.4,5.9-16.1L2149.3,993.3z M2197.6,976.8
		c2.4-2.4,5.7-3.7,9.1-3.7c3.4,0,6.7,1.3,9.1,3.8l0.3,0.3c2.5,2.4,3.8,5.7,3.8,9.1c0,3.4-1.3,6.7-3.8,9.1l-31,31
		c-2.4,2.4-5.7,3.8-9.1,3.8c-3.4,0-6.7-1.3-9.1-3.8l-0.3-0.4c-2.5-2.4-3.8-5.7-3.8-9.1c0-3.5,1.3-6.7,3.8-9.1l15.5-15.5
		L2197.6,976.8z M2185.9,975.4l-7.1,7.1l-37.5-37.5l1.2-1.1l5.9-5.9L2185.9,975.4z M2115.9,957.1c-2.4,2.4-5.7,3.8-9.1,3.8
		c-3.4,0-6.7-1.3-9.1-3.8l-0.4-0.4c-2.4-2.4-3.8-5.7-3.8-9.1s1.3-6.7,3.8-9.1l31-31c2.4-2.4,5.7-3.8,9.1-3.8c3.5,0,6.7,1.3,9.1,3.8
		l0.4,0.4c5,5,5,13.2,0,18.2l-18.8,18.8L2115.9,957.1z M2127.6,958.5l7.1-7.1l37.5,37.5l-7.1,7.1l-9.3-9.3l0,0l-17.1-17.1
		L2127.6,958.5z M2041.9,1097.8c-4.4,4.4-11.6,4.4-16,0c-2.1-2.2-3.3-5-3.3-8s1.2-5.9,3.3-8l0,0l5.6-5.6c1.3,3.3,3.6,6.6,6.5,9.6
		c2.9,2.9,6.2,5.1,9.6,6.5L2041.9,1097.8z M2100.6,1039.2l-45,45c-0.3,0.3-1.4,0.5-3.3,0c-2.6-0.7-5.4-2.5-7.8-4.9
		c-2.4-2.4-4.2-5.3-4.9-7.8c-0.5-1.9-0.3-3,0-3.3l0,0l45-45c4.3-4.3,11.8-4.3,16,0C2105,1027.5,2105,1034.7,2100.6,1039.2z
		 M2107.2,1016.5c-1-1-2.1-1.9-3.2-2.6l33-33l2.9,2.9l2.9,2.9l-33,33C2109,1018.6,2108.1,1017.6,2107.2,1016.5z"/>
	<path class="st0" d="M2236.5,1086.9c-0.1-0.2-0.2-0.5-0.3-0.7c0-0.1-0.1-0.2-0.2-0.3c-0.1-0.2-0.2-0.4-0.4-0.6
		c-0.1-0.1-0.1-0.2-0.2-0.3c-0.2-0.2-0.4-0.4-0.7-0.6c0,0,0,0,0-0.1c-0.1,0-6.7-4.9-6.7-13.7c0-2.6-2.1-4.6-4.6-4.6H2162
		c-2.6,0-4.6,2.1-4.6,4.6c0,8.8-6.5,13.5-6.7,13.7c0,0-0.1,0.1-0.1,0.1c-0.2,0.2-0.5,0.4-0.7,0.6c-0.1,0.1-0.1,0.2-0.2,0.3
		c-0.1,0.2-0.3,0.4-0.4,0.6c-0.1,0.1-0.1,0.2-0.2,0.3c-0.1,0.2-0.2,0.5-0.3,0.7c0,0.1-0.1,0.2-0.1,0.3c-0.1,0.3-0.1,0.7-0.1,1h0
		v17.5c0,2.6,2.1,4.6,4.6,4.6h78.9c2.6,0,4.6-2.1,4.6-4.6v-17.5c0-0.4-0.1-0.7-0.1-1C2236.6,1087.1,2236.5,1087,2236.5,1086.9z
		 M2166.1,1075.4h53c0.6,3.2,1.7,6,2.9,8.2h-58.9C2164.5,1081.3,2165.6,1078.6,2166.1,1075.4z M2227.4,1101.1h-69.6v-8.2h69.6
		V1101.1z"/>
</g>
<g>
	<path class="st0" d="M2125,1145.4c-21.7,0-50.4-3.6-50.4-34.9c0-26.8,22-57.9,50.4-57.9c28.4,0,50.4,31.1,50.4,57.9
		C2175.4,1141.8,2146.6,1145.4,2125,1145.4z M2125,1062c-22.7,0-41.1,26.6-41.1,48.5c0,18.1,11.9,25.5,41.1,25.5
		c29.2,0,41.1-7.4,41.1-25.5C2166.1,1088.5,2147.8,1062,2125,1062z"/>
	<path class="st0" d="M2125,1062.4c-17.5,0-32.8-18-32.8-38.5c0-19.5,14.7-35.4,32.8-35.4c18.1,0,32.8,15.9,32.8,35.4
		C2157.8,1044.4,2142.5,1062.4,2125,1062.4z M2125,997.9c-12.9,0-23.5,11.6-23.5,26c0,15.2,11.2,29.2,23.5,29.2
		c12.3,0,23.4-13.9,23.4-29.2C2148.4,1009.5,2137.9,997.9,2125,997.9z"/>
	<path class="st0" d="M2216.5,1123.6c-21.7,0-50.4-3.6-50.4-34.9c0-26.8,22-57.9,50.4-57.9c28.4,0,50.4,31.1,50.4,57.9
		C2266.9,1120,2238.2,1123.6,2216.5,1123.6z M2216.5,1040.2c-22.7,0-41.1,26.5-41.1,48.5c0,18.1,11.9,25.6,41.1,25.6
		c29.2,0,41.1-7.4,41.1-25.6C2257.6,1066.7,2239.2,1040.2,2216.5,1040.2z"/>
	<path class="st0" d="M2216.5,1040.6c-17.5,0-32.8-18-32.8-38.5c0-19.5,14.7-35.4,32.8-35.4c18.1,0,32.8,15.9,32.8,35.4
		C2249.3,1022.6,2234,1040.6,2216.5,1040.6z M2216.5,976.1c-12.9,0-23.5,11.7-23.5,26c0,15.3,11.2,29.2,23.5,29.2
		c12.3,0,23.5-13.9,23.5-29.2C2240,987.7,2229.4,976.1,2216.5,976.1z"/>
	<path class="st0" d="M2033.5,1123.6c-21.7,0-50.4-3.6-50.4-34.9c0-26.8,22-57.9,50.4-57.9s50.4,31.1,50.4,57.9
		C2083.9,1120,2055.2,1123.6,2033.5,1123.6z M2033.5,1040.2c-22.7,0-41.1,26.5-41.1,48.5c0,18.1,11.9,25.6,41.1,25.6
		c29.2,0,41.1-7.4,41.1-25.6C2074.6,1066.7,2056.2,1040.2,2033.5,1040.2z"/>
	<path class="st0" d="M2033.5,1040.6c-17.5,0-32.8-18-32.8-38.5c0-19.5,14.7-35.4,32.8-35.4c18.1,0,32.8,15.9,32.8,35.4
		C2066.3,1022.6,2051,1040.6,2033.5,1040.6z M2033.5,976.1c-12.9,0-23.5,11.7-23.5,26c0,15.3,11.2,29.2,23.5,29.2
		c12.3,0,23.5-13.9,23.5-29.2C2057,987.7,2046.4,976.1,2033.5,976.1z"/>
	<path class="st0" d="M2125,983c-4.1,0-5.9-3.3-13-17.3c-1.9-3.7-4.6-9-6-11.2c-2.2-0.2-4.5-0.4-6.6-0.6l-0.8-0.1
		c-2.5-0.2-4.9-0.6-7.3-0.9l-1.5-0.2c-2.4-0.3-4.8-0.7-7.1-1.1l-0.8-0.1c-2.2-0.4-4.3-0.8-6.4-1.3l-1.1-0.2c-2.2-0.5-4.3-1-6.5-1.5
		l-1.2-0.3c-2-0.5-4-1.1-5.8-1.6c-1.8,0.6-6.7,5.1-9.6,7.8c-6.5,5.9-10.6,9.5-14.8,9.5c-1,0-1.9-0.2-2.7-0.6
		c-5.5-2.5-4.9-10.6-4.1-20.8c0.3-3.3,0.6-8.3,0.3-10.3c-0.7-0.5-1.3-1-1.9-1.5l-0.3-0.2l-0.7-0.6c-1-0.8-1.9-1.6-2.8-2.5
		c0-0.1-0.3-0.3-0.3-0.3c-0.8-0.8-1.5-1.6-2.2-2.3l-0.6-0.7c-0.7-0.8-1.2-1.5-1.7-2.2c-0.3-0.4-0.4-0.6-0.6-0.9
		c-0.6-0.9-1.2-1.9-1.7-2.9c0-0.1-0.1-0.2-0.2-0.3c-0.4-0.9-0.8-1.9-1.1-2.8c-0.1-0.2-0.2-0.5-0.3-0.8c-0.3-1-0.5-1.7-0.6-2.5
		c-0.1-0.4-0.1-0.7-0.2-1c-0.2-1.2-0.3-2.3-0.3-3.4c0-26.8,48.5-47.9,110.5-47.9c62,0,110.5,21,110.5,47.9c0,1.1-0.1,2.1-0.3,3.4
		c0,0.3-0.1,0.6-0.2,0.9c-0.2,0.9-0.4,1.7-0.6,2.5l-0.3,0.9c-0.3,1-0.7,1.9-1.2,2.8c0,0.1-0.1,0.2-0.1,0.2c-0.5,1.1-1.1,2.1-1.8,3.1
		c-0.2,0.2-0.3,0.5-0.5,0.7c-0.6,0.8-1.1,1.5-1.7,2.2l-0.7,0.9c-0.7,0.8-1.4,1.6-2.2,2.3c-0.1,0.1-0.2,0.3-0.4,0.4
		c-0.8,0.8-1.8,1.6-2.7,2.4l-0.7,0.6l-0.2,0.2c-0.6,0.5-1.3,1-1.9,1.5c-0.3,2,0.1,6.9,0.4,10.3c0.8,10.2,1.4,18.3-4.1,20.8
		c-0.8,0.4-1.8,0.6-2.7,0.6l0,0c-4.1,0-8.3-3.6-14.8-9.5c-2.9-2.7-7.7-7-9.7-7.8c-1.9,0.6-3.8,1.1-5.7,1.6l-1.2,0.3
		c-2.1,0.6-4.3,1.1-6.5,1.5l-1.1,0.2c-2.1,0.4-4.3,0.9-6.4,1.3l-0.8,0.1c-2.3,0.4-4.7,0.8-7.1,1.1l-1.5,0.2
		c-2.4,0.3-4.8,0.6-7.3,0.9l-0.8,0.1c-2.2,0.2-4.4,0.4-6.7,0.6c-1.4,2.2-4.1,7.6-6,11.2C2130.9,979.7,2129.1,983,2125,983z
		 M2062.9,937.4c0,0,0.1,0,0.1,0c1.9,0.6,3.9,1.1,5.9,1.7l1.2,0.3c2,0.5,4,1,6.1,1.4l1.1,0.2c2,0.4,4,0.8,6.1,1.2l0.8,0.1
		c2.2,0.4,4.5,0.7,6.8,1.1l1.4,0.2c2.3,0.3,4.7,0.6,7.1,0.8l0.8,0.1c2.2,0.2,4.5,0.4,6.8,0.6l1.3,0.1c3.7,0.2,5.3,3,12,16.2
		c1.4,2.7,3.2,6.3,4.7,9c1.5-2.7,3.3-6.3,4.7-9c6.7-13.2,8.3-16,12-16.2l1.3-0.1c2.3-0.2,4.6-0.4,6.8-0.6l0.8-0.1
		c2.4-0.2,4.7-0.5,7.1-0.8l1.4-0.2c2.3-0.3,4.6-0.7,6.8-1.1l0.7-0.1c2.1-0.4,4.1-0.8,6.1-1.2l1-0.2c2.1-0.4,4.1-0.9,6.1-1.4l1.2-0.3
		c2-0.6,4-1.1,5.9-1.7c0,0,0.1,0,0.1,0c0.6-0.2,1.3-0.3,2-0.3c4.5,0,9.1,3.9,16.1,10.3c1.8,1.6,4.4,4,6.4,5.6c0.1-2.9-0.3-7-0.5-9.8
		c-0.7-9.2-1.2-15.3,2.7-18l0.5-0.4c0.6-0.4,1.3-0.9,1.9-1.4l0.8-0.6c0.8-0.7,1.6-1.3,2.3-2l0.2-0.2c0.6-0.6,1.2-1.2,1.7-1.8
		l0.4-0.5c0.5-0.7,0.9-1.1,1.2-1.6l0.5-0.6c0.4-0.6,0.8-1.3,1.1-1.9c0-0.1,0.1-0.2,0.1-0.3c0.3-0.6,0.6-1.2,0.8-1.9l0.1-0.4
		c0.2-0.7,0.3-1.2,0.4-1.7l0.1-0.6c0.1-0.6,0.2-1.3,0.2-2c0-18.6-40.6-38.5-101.1-38.5c-60.5,0-101.1,19.9-101.1,38.5
		c0,0.7,0.1,1.3,0.2,2l0.1,0.4c0.1,0.7,0.2,1.1,0.4,1.6l0.2,0.6c0.2,0.6,0.5,1.3,0.8,1.9c0,0.1,0.1,0.1,0.1,0.2
		c0.3,0.6,0.7,1.3,1.1,1.9l0.3,0.4c0.5,0.7,0.9,1.2,1.3,1.7l0.5,0.7c0.5,0.6,1.1,1.2,1.7,1.8c0,0,0.2,0.2,0.2,0.2
		c0.7,0.7,1.5,1.4,2.3,2l0.8,0.7c0.6,0.5,1.2,1,1.9,1.4l0.4,0.3c4,2.8,3.5,8.9,2.8,18.1c-0.2,2.8-0.5,6.9-0.5,9.8
		c2-1.6,4.6-3.9,6.4-5.6c7-6.4,11.6-10.3,16.1-10.3C2061.6,937.1,2062.3,937.2,2062.9,937.4z"/>
	<g>
		<path class="st0" d="M2132.8,929h-15.4c-2.6,0-4.7-2.1-4.7-4.7V915c-5.2-3.6-8.2-9.3-8.2-15.5c0-10.7,9.2-19.4,20.6-19.4
			c11.4,0,20.6,8.7,20.6,19.4c0,6.2-3.1,11.9-8.3,15.5v9.3C2137.4,926.9,2135.4,929,2132.8,929z M2122.1,919.7h6v-7.3
			c0-1.8,1-3.4,2.6-4.2c3.5-1.8,5.7-5.1,5.7-8.7c0-5.5-5-10-11.2-10c-6.2,0-11.2,4.5-11.2,10c0,3.6,2.2,6.9,5.7,8.7
			c1.6,0.8,2.6,2.4,2.6,4.2V919.7z"/>
		<path class="st0" d="M2132.2,942.8H2118c-2.6,0-4.7-2.1-4.7-4.7c0-2.6,2.1-4.7,4.7-4.7h14.2c2.6,0,4.7,2.1,4.7,4.7
			C2136.9,940.7,2134.8,942.8,2132.2,942.8z"/>
		<path class="st0" d="M2163.1,904.4h-6.8c-2.6,0-4.7-2.1-4.7-4.7c0-2.6,2.1-4.7,4.7-4.7h6.8c2.6,0,4.7,2.1,4.7,4.7
			C2167.8,902.3,2165.7,904.4,2163.1,904.4z"/>
		<path class="st0" d="M2158.2,922.1c-1,0-1.9-0.3-2.8-0.9l-5.5-4c-2.1-1.5-2.6-4.5-1-6.5c1.5-2.1,4.4-2.6,6.5-1l5.5,4
			c2.1,1.5,2.6,4.5,1,6.6C2161.1,921.4,2159.7,922.1,2158.2,922.1z"/>
		<path class="st0" d="M2152.8,890.7c-1.4,0-2.9-0.7-3.8-1.9c-1.5-2.1-1.1-5,1-6.6l5.5-4c2.1-1.5,5-1.1,6.5,1c1.5,2.1,1.1,5-1,6.5
			l-5.5,4C2154.7,890.4,2153.7,890.7,2152.8,890.7z"/>
		<path class="st0" d="M2093.8,904.4h-6.8c-2.6,0-4.7-2.1-4.7-4.7c0-2.6,2.1-4.7,4.7-4.7h6.8c2.6,0,4.7,2.1,4.7,4.7
			C2098.5,902.3,2096.4,904.4,2093.8,904.4z"/>
		<path class="st0" d="M2091.9,922.1c-1.5,0-2.9-0.7-3.8-1.9c-1.5-2.1-1.1-5,1-6.6l5.5-4c2.1-1.5,5-1.1,6.5,1c1.5,2.1,1.1,5-1,6.5
			l-5.5,4C2093.8,921.8,2092.9,922.1,2091.9,922.1z"/>
		<path class="st0" d="M2097.4,890.7c-0.9,0-1.9-0.3-2.7-0.9l-5.5-4c-2.1-1.5-2.6-4.5-1-6.5c1.5-2.1,4.5-2.6,6.6-1l5.5,4
			c2.1,1.5,2.6,4.5,1,6.6C2100.3,890,2098.8,890.7,2097.4,890.7z"/>
	</g>
</g>
<g>
	<path class="st0" d="M367.1,1002.4h-38.5H290H187.5c-3.3,0-6,2.7-6,6v66.2c0,1.6,0.6,3.1,1.8,4.3c1.1,1.1,2.6,1.8,4.2,1.8h179.5
		c11.4,0,20.3-12.5,20.3-28.6V1031C387.4,1015,378.5,1002.4,367.1,1002.4z M328.5,1014.5c3.9,0,8.3,7.2,8.3,16.5v21.2
		c0,9.3-4.4,16.5-8.3,16.5h-21.8c2.3-4.6,3.6-10.3,3.6-16.5V1031c0-6.2-1.3-11.9-3.6-16.5H328.5z M193.6,1014.5H290
		c3.8,0,8.3,7.2,8.3,16.5v21.2c0,9.3-4.4,16.5-8.3,16.5h0h-96.5V1014.5z M375.4,1052.2c0,9.3-4.5,16.5-8.3,16.5h-21.9
		c2.3-4.6,3.7-10.3,3.7-16.5V1031c0-6.2-1.4-11.9-3.7-16.5h21.9c3.8,0,8.3,7.2,8.3,16.5V1052.2z"/>
	<path class="st0" d="M200.5,1002.4H83.6c-2.2,0-4.2,1.2-5.3,3.1c-1.1,1.9-1,4.3,0.2,6.1c10.3,16.2,10.3,43.6,0,59.8
		c-1.8,2.8-0.9,6.5,1.8,8.3c1,0.6,2.1,0.9,3.2,0.9c0,0,0.1,0,0.2,0h116.8c11.4,0,20.3-12.5,20.3-28.6V1031
		C220.9,1015,211.9,1002.4,200.5,1002.4z M208.8,1052.2c0,9.3-4.5,16.5-8.3,16.5H93.4c2.6-6.5,4.2-13.7,4.7-21.1h86c3.3,0,6-2.7,6-6
		c0-3.3-2.7-6-6-6h-86c-0.6-7.3-2.1-14.6-4.7-21.1h107.1c3.8,0,8.3,7.2,8.3,16.5V1052.2z"/>
	<path class="st0" d="M332.9,975.4c0-10.9,4.2-21.2,12-28.9c2.3-2.3,2.3-6.2,0-8.5c-1.2-1.2-2.7-1.8-4.3-1.8c0,0-0.1,0-0.2,0h-29.5
		v-82.5c0-3.3-2.7-6-6-6H140c-33,0-33,0-34.8,1.8c-2,2-2.3,5.2-0.7,7.6c15,22.6,15,59.3,0,81.8c-1.2,1.8-1.3,4.2-0.3,6.2
		c1,2,3.1,3.2,5.3,3.2h23.8c-3.3,4.7-5.3,10.3-5.3,16.5v21.2c0,15.7,12.8,28.5,28.5,28.5h184.1c2.5,0,4.6-1.4,5.6-3.7
		c0.9-2.3,0.4-4.9-1.3-6.6C337.1,996.5,332.9,986.2,332.9,975.4z M125.4,919.2H278c3.3,0,6-2.7,6-6c0-3.3-2.7-6-6-6H127.3
		c0.6-6.1,0.6-12.2,0-18.3H278c3.3,0,6-2.7,6-6c0-3.3-2.7-6-6-6H125.4c-1.3-6-3.2-11.7-5.7-17.1c35.3,0,151.3,0,179.1,0v76.5H119.7
		C122.2,930.8,124.1,925.1,125.4,919.2z M156.4,1002.4c-9.1,0-16.5-7.4-16.5-16.5v-21.2c0-9.1,7.4-16.5,16.5-16.5h171.9
		c-3.8,6.4-6.3,13.6-7.1,21.1H170.3c-3.3,0-6,2.7-6,6c0,3.3,2.7,6,6,6h150.9c0.8,7.5,3.3,14.7,7.1,21.1H156.4z"/>
</g>
<g>
	<path class="st0" d="M-607-198.1c-1.5,0-2.9-0.7-3.9-1.8l-8.4-9.8l-12.5,3c-1.5,0.4-3,0-4.2-0.8c-1.2-0.9-2-2.3-2.1-3.8l-1-12.8
		l-11.9-4.9c-1.4-0.6-2.5-1.7-2.9-3.1c-0.5-1.4-0.3-3,0.5-4.3l6.7-11l-6.7-10.9c-0.8-1.3-1-2.8-0.5-4.3c0.5-1.4,1.5-2.6,2.9-3.1
		l11.9-4.9l1-12.8c0.1-1.5,0.9-2.9,2.1-3.8c1.2-0.9,2.7-1.2,4.2-0.8l12.5,3l8.4-9.8c1.9-2.3,5.8-2.3,7.8,0l8.3,9.8l12.5-3
		c1.5-0.4,3-0.1,4.2,0.8c1.2,0.9,2,2.3,2.1,3.8l1,12.8l11.9,4.9c1.4,0.6,2.4,1.7,2.9,3.1c0.5,1.4,0.3,3-0.5,4.3l-6.7,10.9l6.7,11
		c0.8,1.3,1,2.8,0.5,4.3c-0.5,1.4-1.5,2.6-2.9,3.1l-11.9,4.9l-1,12.8c-0.1,1.5-0.9,2.9-2.1,3.8c-1.2,0.9-2.8,1.2-4.2,0.8l-12.5-3
		l-8.3,9.8C-604.1-198.8-605.5-198.1-607-198.1z M-617.4-220.5c1.5,0,2.9,0.6,3.9,1.8l6.5,7.6l6.5-7.6c1.2-1.5,3.2-2.1,5.1-1.7
		l9.7,2.3l0.8-10c0.2-1.9,1.4-3.6,3.1-4.3l9.2-3.8l-5.2-8.5c-1-1.6-1-3.7,0-5.4l5.2-8.5l-9.2-3.8c-1.8-0.7-3-2.4-3.1-4.3l-0.8-10
		l-9.7,2.3c-1.9,0.5-3.8-0.2-5.1-1.7l-6.5-7.6l-6.5,7.6c-1.3,1.5-3.2,2.1-5.1,1.7l-9.7-2.3l-0.8,10c-0.2,1.9-1.4,3.6-3.2,4.3
		l-9.2,3.8l5.2,8.5c1,1.6,1,3.7,0,5.4l-5.2,8.5l9.2,3.8c1.8,0.7,3,2.4,3.2,4.3l0.8,10l9.7-2.3C-618.2-220.5-617.8-220.5-617.4-220.5
		z"/>
	<path class="st0" d="M-592.8-209.2v41.8l-10.5-11c-1-1-2.3-1.6-3.7-1.6c-1.4,0-2.8,0.6-3.7,1.6l-10.5,11v-41.8l-10.3,2.4v52.3
		c0,2.1,1.3,4,3.2,4.8c1.9,0.7,4.2,0.3,5.6-1.2l15.6-16.5l15.6,16.5c1,1,2.3,1.6,3.7,1.6c0.7,0,1.3-0.1,1.9-0.4
		c2-0.8,3.2-2.7,3.2-4.8v-52.3L-592.8-209.2z"/>
	<path class="st0" d="M-563.8-368.3h-186.3c-14.8,0-26.8,12-26.8,26.8v123.7c0,14.8,12,26.8,26.8,26.8h118.7v-10.3h-118.7
		c-9.1,0-16.5-7.4-16.5-16.5v-123.7c0-9.1,7.4-16.5,16.5-16.5h186.3c9.1,0,16.5,7.4,16.5,16.5v123.7c0,9.1-7.4,16.5-16.5,16.5h-18.7
		v10.3h18.7c14.8,0,26.8-12,26.8-26.8v-123.7C-537-356.3-549-368.3-563.8-368.3z"/>
	<path class="st0" d="M-558.9-389.1H-755c-23.6,0-42.7,19.2-42.7,42.7v133.5c0,23.6,19.2,42.7,42.7,42.7h123.6v-10.3H-755
		c-17.9,0-32.5-14.6-32.5-32.5v-133.5c0-17.9,14.6-32.5,32.5-32.5h196.1c17.9,0,32.5,14.6,32.5,32.5v133.5
		c0,17.9-14.6,32.5-32.5,32.5h-23.6v10.3h23.6c23.6,0,42.7-19.2,42.7-42.7v-133.5C-516.2-370-535.3-389.1-558.9-389.1z"/>
	<path class="st0" d="M-595.8-328.8h-122.4c-2.8,0-5.1-2.3-5.1-5.1c0-2.8,2.3-5.1,5.1-5.1h122.4c2.8,0,5.1,2.3,5.1,5.1
		C-590.6-331.1-592.9-328.8-595.8-328.8z"/>
	<path class="st0" d="M-573.5-303h-167c-2.8,0-5.1-2.3-5.1-5.1c0-2.8,2.3-5.1,5.1-5.1h167c2.8,0,5.1,2.3,5.1,5.1
		C-568.3-305.3-570.6-303-573.5-303z"/>
	<path class="st0" d="M-657-277.2h-83.5c-2.8,0-5.1-2.3-5.1-5.1c0-2.8,2.3-5.1,5.1-5.1h83.5c2.8,0,5.1,2.3,5.1,5.1
		C-651.8-279.5-654.1-277.2-657-277.2z"/>
	<path class="st0" d="M-690.3-244.1h-50.1c-2.8,0-5.1-2.3-5.1-5.1c0-2.8,2.3-5.1,5.1-5.1h50.1c2.8,0,5.1,2.3,5.1,5.1
		C-685.1-246.4-687.5-244.1-690.3-244.1z"/>
	<path class="st0" d="M-690.3-218.3h-50.1c-2.8,0-5.1-2.3-5.1-5.1c0-2.8,2.3-5.1,5.1-5.1h50.1c2.8,0,5.1,2.3,5.1,5.1
		C-685.1-220.6-687.5-218.3-690.3-218.3z"/>
</g>
<g>
	<path class="st0" d="M-356.5,649.9c-3,0-6-0.2-9-0.7c-2.1-0.3-3.7-1.9-4-4l-2.2-14l-11.5,8.3c-1.7,1.2-4,1.2-5.6,0
		c-4.9-3.5-9.2-7.8-12.7-12.7c-1.2-1.7-1.2-4,0-5.6l8.4-11.5l-14.1-2.2c-2-0.3-3.6-1.9-4-4c-0.5-3-0.8-6-0.8-9c0-3,0.3-6,0.8-9
		c0.3-2,1.9-3.6,4-4l14.1-2.2l-8.4-11.5c-1.2-1.7-1.2-3.9,0-5.6c3.5-4.9,7.8-9.2,12.7-12.7c1.7-1.2,4-1.2,5.6,0l11.5,8.4l2.2-14.1
		c0.3-2,1.9-3.6,4-4c5.9-1,12.1-1,18,0c2,0.3,3.6,1.9,4,4l2.3,14.1l11.5-8.4c1.7-1.2,4-1.2,5.6,0c4.9,3.5,9.2,7.8,12.7,12.7
		c1.2,1.7,1.2,4,0,5.6l-8.4,11.5l14.1,2.2c2,0.3,3.6,1.9,4,4c0.5,3,0.7,6.1,0.7,9c0,3-0.2,6-0.7,9c-0.3,2-1.9,3.6-4,4l-14.1,2.2
		l8.4,11.5c1.2,1.7,1.2,3.9,0,5.6c-3.5,4.9-7.8,9.2-12.7,12.7c-1.7,1.2-3.9,1.2-5.6,0l-11.5-8.3l-2.3,14c-0.3,2-1.9,3.7-4,4
		C-350.5,649.7-353.5,649.9-356.5,649.9z M-360.6,640.1c2.7,0.2,5.4,0.2,8.1,0l2.2-13.7c0.3-1.8,1.5-3.2,3.2-3.8
		c1.3-0.5,2.6-1,3.8-1.6c1.6-0.8,3.5-0.7,5,0.4l11.2,8.2c2.1-1.7,4-3.7,5.7-5.7l-8.1-11.2c-1-1.4-1.2-3.4-0.4-5
		c0.7-1.3,1.2-2.6,1.6-3.8c0.6-1.7,2-2.9,3.8-3.2l13.7-2.2c0.1-1.4,0.2-2.7,0.2-4.1c0-1.3-0.1-2.7-0.2-4l-13.7-2.2
		c-1.8-0.3-3.3-1.5-3.8-3.2c-0.4-1.2-0.9-2.5-1.6-3.8c-0.8-1.6-0.6-3.5,0.4-5l8.1-11.2c-1.7-2.1-3.6-4-5.7-5.7l-11.2,8.1
		c-1.5,1.1-3.4,1.2-5,0.4c-1.3-0.6-2.6-1.1-3.8-1.6c-1.7-0.6-2.9-2-3.2-3.8l-2.2-13.7c-2.7-0.2-5.4-0.2-8.1,0l-2.2,13.7
		c-0.3,1.8-1.5,3.2-3.2,3.8c-1.2,0.4-2.5,0.9-3.8,1.6c-1.6,0.8-3.5,0.6-4.9-0.4l-11.2-8.1c-2.1,1.7-4,3.7-5.7,5.7l8.1,11.2
		c1.1,1.5,1.2,3.4,0.4,5c-0.6,1.3-1.2,2.5-1.6,3.8c-0.6,1.7-2,3-3.8,3.3l-13.7,2.2c-0.1,1.4-0.2,2.7-0.2,4c0,1.4,0.1,2.7,0.2,4.1
		l13.7,2.2c1.8,0.3,3.3,1.5,3.8,3.2c0.4,1.3,0.9,2.5,1.6,3.8c0.8,1.6,0.7,3.5-0.4,5l-8.1,11.2c1.7,2,3.6,4,5.7,5.7l11.2-8.2
		c1.5-1.1,3.4-1.2,5-0.4c1.1,0.6,2.4,1.1,3.8,1.6c1.7,0.6,2.9,2,3.2,3.8L-360.6,640.1z"/>
	<path class="st0" d="M-356.5,617.2c-12.6,0-22.8-10.2-22.8-22.8c0-12.6,10.2-22.8,22.8-22.8c12.5,0,22.8,10.2,22.8,22.8
		C-333.7,607-344,617.2-356.5,617.2z M-356.5,581.3c-7.3,0-13.2,5.9-13.2,13.2s5.9,13.2,13.2,13.2c7.3,0,13.2-5.9,13.2-13.2
		S-349.2,581.3-356.5,581.3z"/>
	<path class="st0" d="M-235.4,511.3h-242.3c-8.4,0-15.3,6.9-15.3,15.3v141.1v9.8c0,8.5,6.9,15.3,15.3,15.3h88l-18.4,32.2H-451
		c-3.5,0-6.4,2.9-6.4,6.4c0,3.5,2.9,6.4,6.4,6.4H-262c3.5,0,6.4-2.8,6.4-6.4c0-3.5-2.9-6.4-6.4-6.4h-43l-18.4-32.2h88
		c8.4,0,15.3-6.9,15.3-15.3v-9.8V526.6C-220.1,518.2-226.9,511.3-235.4,511.3z M-483.3,526.6c0-3.1,2.6-5.7,5.7-5.7h242.3
		c3.2,0,5.7,2.6,5.7,5.7v136.3h-253.7V526.6z M-316,724.9H-397l18.5-32.2h44.2L-316,724.9z M-229.7,677.4c0,3.2-2.6,5.7-5.7,5.7
		h-96.2h-49.7h-96.3c-3.1,0-5.7-2.5-5.7-5.7v-5h253.7V677.4z"/>
	<polygon class="st0" points="-280.9,571.7 -280.9,571.7 -280.9,571.7 	"/>
	<polygon class="st0" points="-247.6,571.7 -247.6,571.7 -247.6,571.7 	"/>
	<polygon class="st0" points="-280.9,571.7 -280.9,571.7 -280.9,571.7 	"/>
	<path class="st0" d="M-280.8,576.5c-2.6,0-4.8-2.2-4.8-4.8c0-2.7,2.1-4.8,4.8-4.8h0c2.7,0,4.8,2.1,4.8,4.8
		C-276,574.4-278.2,576.5-280.8,576.5z"/>
	<path class="st0" d="M-280.9,571.7L-280.9,571.7L-280.9,571.7c0,0.1,0,0.2,0,0.3C-280.9,571.9-280.9,571.8-280.9,571.7z"/>
	<path class="st0" d="M-280.9,576.8c-2.5,0-4.5-1.9-4.8-4.3c0-0.2-0.1-0.6-0.1-0.8c0-2.7,2.2-4.8,4.8-4.8c2.5,0,4.6,1.9,4.8,4.4
		c0,0.1,0,0.3,0,0.4c0,0.1,0,0.2,0,0.3c0,2.5-1.9,4.6-4.5,4.8C-280.7,576.8-280.8,576.8-280.9,576.8z"/>
	<path class="st0" d="M-255.8,579.9h-8.5H-255.8c4.5,0,8.2-3.7,8.2-8.2l0,0C-247.6,576.2-251.3,579.9-255.8,579.9z"/>
	<path class="st0" d="M-255.8,584.7h-8.5c-2.6,0-4.8-2.2-4.8-4.8c0-2.6,2.2-4.8,4.8-4.8h8.5c1.9,0,3.4-1.5,3.4-3.4
		c0-2.7,2.2-4.8,4.8-4.8l0,0c2.7,0,4.8,2.1,4.8,4.8l0,0l0,0l0,0C-242.8,578.9-248.7,584.7-255.8,584.7z"/>
	<path class="st0" d="M-242.9,570.7c0-0.1,0-0.1,0-0.2c-0.1-0.2-0.2-0.5-0.3-0.7c0,0,0,0,0,0l-6.1-13.2l0,0l-10.6-22.8
		c-0.8-1.7-2.5-2.8-4.4-2.8c-1.9,0-3.6,1.1-4.3,2.8l-10.6,22.8l0,0l-6.1,13.2c0,0,0,0,0,0.1c-0.1,0.2-0.2,0.5-0.2,0.7
		c0,0.1-0.1,0.1-0.1,0.2c-0.1,0.3-0.1,0.7-0.1,1l0,95.9c0,2.7,2.2,4.8,4.8,4.8h16.6h16.7c2.7,0,4.8-2.1,4.8-4.8v-95.9
		C-242.8,571.4-242.9,571-242.9,570.7z M-252.9,573.2c-0.1,0.2-0.3,0.4-0.4,0.6c-0.1,0.1-0.2,0.2-0.3,0.4c-0.2,0.2-0.4,0.3-0.7,0.4
		c-0.1,0-0.2,0.1-0.4,0.2c-0.3,0.1-0.7,0.2-1.1,0.2c0,0,0,0-0.1,0h-16.9c0,0,0,0-0.1,0c-0.4,0-0.8-0.1-1.1-0.2
		c-0.1,0-0.2-0.1-0.3-0.2c-0.2-0.1-0.5-0.2-0.7-0.4c-0.1-0.1-0.2-0.2-0.3-0.4c-0.2-0.2-0.3-0.4-0.4-0.6c-0.1-0.1-0.1-0.3-0.2-0.5
		c-0.1-0.1-0.1-0.3-0.1-0.4l3.5-7.5c0.2,0.1,0.4,0.1,0.6,0.2c0.9,0.3,1.8,0.5,2.7,0.7c0.3,0.1,0.6,0.1,1,0.2
		c1.3,0.2,2.6,0.3,3.9,0.3c1.3,0,2.6-0.1,3.9-0.3c0.3-0.1,0.6-0.1,0.9-0.2c0.9-0.2,1.8-0.4,2.7-0.7c0.2-0.1,0.4-0.1,0.6-0.2l3.5,7.5
		c0,0.1,0,0.2-0.1,0.4C-252.7,573-252.8,573.1-252.9,573.2z M-264.3,547.2l4.2,8.9c-2.7,0.7-5.6,0.7-8.3,0L-264.3,547.2z
		 M-276.1,584.3c0.2,0.1,0.4,0.1,0.6,0.1c0.2,0,0.3,0.1,0.5,0.1c0.8,0.1,1.5,0.2,2.3,0.2h3.6v78.1h-7V584.3z M-252.4,662.9h-7v-78.1
		h3.6c0.8,0,1.6-0.1,2.3-0.2c0.2,0,0.3-0.1,0.5-0.1c0.2,0,0.3-0.1,0.5-0.1V662.9z"/>
	<path class="st0" d="M-432,672.4h-33.4c-2.6,0-4.8-2.1-4.8-4.8V541.9c0-6.8,5.5-12.3,12.3-12.3h18.4c6.8,0,12.3,5.5,12.3,12.3
		v125.7C-427.2,670.3-429.3,672.4-432,672.4z M-460.6,662.9h23.8v-12.9h-11.9c-2.7,0-4.8-2.2-4.8-4.8c0-2.6,2.2-4.8,4.8-4.8h11.9
		v-12.9h-11.9c-2.7,0-4.8-2.2-4.8-4.8c0-2.7,2.2-4.8,4.8-4.8h11.9v-12.9h-11.9c-2.7,0-4.8-2.2-4.8-4.8c0-2.6,2.2-4.8,4.8-4.8h11.9
		v-12.9h-11.9c-2.7,0-4.8-2.2-4.8-4.8c0-2.7,2.2-4.8,4.8-4.8h11.9v-12.9h-11.9c-2.7,0-4.8-2.2-4.8-4.8c0-2.6,2.2-4.8,4.8-4.8h11.9
		v-8.2c0-1.5-1.2-2.7-2.7-2.7h-18.4c-1.5,0-2.7,1.2-2.7,2.7V662.9z"/>
</g>
<g>
	<path class="st0" d="M-834.6,111.1h-4.7L-871.8,5.1c1.7-1.1,2.9-3.1,2.9-5.4c0-3.4-2.5-6.2-5.7-6.2h-87.1
		c-2.5-10.2-10.9-17.7-20.9-17.7c-10,0-18.4,7.5-20.9,17.7h-87.1c-3.1,0-5.6,2.8-5.6,6.2c0,2.3,1.2,4.3,2.9,5.4l-32.4,106.1h-4.7
		c-3.1,0-5.7,2.8-5.7,6.2c0,21.9,22,39.7,48.9,39.7s48.9-17.8,48.9-39.7c0-3.4-2.5-6.2-5.7-6.2h-4.7l-32.2-105.2h77.4
		c1.2,4.7,3.6,8.9,6.9,12l-14.5,158.6c-14.8,2.6-27.8,7.8-27.8,17.1v20.9c0,15.3,35.4,19.4,56.2,19.4c20.9,0,56.2-4.1,56.2-19.4
		v-20.9c0-9.3-13-14.4-27.8-17.1l-14.5-158.6c3.3-3.1,5.8-7.3,6.9-12h77.4l-32.2,105.2h-4.7c-3.1,0-5.7,2.8-5.7,6.2
		c0,21.9,22,39.7,48.9,39.7s48.9-17.8,48.9-39.7C-829,113.9-831.5,111.1-834.6,111.1z M-1087.2,144.6c-17.5,0-32.6-9.1-36.6-21h73.2
		C-1054.6,135.5-1069.8,144.6-1087.2,144.6z M-1057.6,111.1h-59.3l29.6-96.9L-1057.6,111.1z M-992.9-0.3c0-2.3,0.6-4.4,1.7-6.2
		c1.9-3.1,5-5.2,8.7-5.2c3.6,0,6.8,2.1,8.7,5.2c1.1,1.8,1.7,3.9,1.7,6.2c0,2.3-0.6,4.4-1.7,6.2c-1.8,3.1-5,5.2-8.7,5.2
		c-3.6,0-6.8-2.1-8.7-5.2C-992.3,4.1-992.9,2-992.9-0.3z M-934.8,214.3c-1.3,3.6-18.8,10.3-47.8,10.3c-28.9,0-46.5-6.7-47.8-10.1
		v-9.8c11.8,6.4,33.3,8.3,47.8,8.3c14.5,0,36-2,47.8-8.3V214.3z M-964.2,190.8c0.3,3.2,2.7,5.6,5.6,5.6c0.2,0,0.4,0,0.6,0
		c3.1-0.3,5.4-3.4,5.1-6.8l-0.3-3.4c10.8,2.2,17.3,5.3,18.4,7.4c-1.9,3.6-19.3,10.1-47.7,10.1c-28.4,0-45.8-6.5-47.7-10.1
		c1.1-2.1,7.6-5.2,18.4-7.4l-0.3,3.4c-0.3,3.4,2,6.5,5.1,6.8c0.2,0,0.4,0,0.6,0c2.9,0,5.3-2.4,5.6-5.6l0.6-6.4
		c5.3-0.6,11.2-0.9,17.8-0.9c6.6,0,12.5,0.4,17.8,0.9L-964.2,190.8z M-965.6,175c-6-0.6-11.9-0.8-16.9-0.8c-5,0-10.9,0.2-16.9,0.8
		l13.9-151.7c1,0.2,2,0.3,3.1,0.3c1,0,2.1-0.1,3.1-0.3L-965.6,175z M-877.9,14.3l29.6,96.9h-59.3L-877.9,14.3z M-877.9,144.6
		c-17.5,0-32.6-9.1-36.6-21h73.2C-845.3,135.5-860.5,144.6-877.9,144.6z"/>
</g>
<g>
	<path class="st0" d="M170.8-399.6l-22.2-87.7l8.9-37.1c0.4-1.6,0-3.2-1-4.4c-1-1.3-2.5-2-4.1-2h-36.7c-1.6,0-3.1,0.7-4.1,2
		c-1,1.2-1.4,2.9-1,4.4l8.9,37.1l-22.1,87.7c-0.5,1.9,0.1,3.8,1.5,5.1l31.6,29.7c1,0.9,2.3,1.4,3.6,1.4c1.3,0,2.6-0.5,3.6-1.4
		l31.6-29.7C170.7-395.8,171.3-397.8,170.8-399.6z M145.8-520.3l-6.7,27.8h-10l-6.7-27.8H145.8z M134.1-375.8L108.3-400l20.7-82
		h10.2l20.7,82L134.1-375.8z"/>
	<path class="st0" d="M232.4-527.7c0,0,0-0.1,0-0.1c0,0,0,0,0-0.1c0-0.1-0.1-0.3-0.2-0.4c-0.1-0.2-0.1-0.5-0.3-0.7
		c0-0.1-0.1-0.2-0.1-0.3c0,0,0,0-0.1-0.1c-0.1-0.2-0.3-0.4-0.4-0.6c-0.1-0.2-0.2-0.4-0.4-0.5c-16.6-16.7-16.6-43.8,0-60.5
		c2.1-2.1,2.1-5.4,0-7.4c-1-1-2.3-1.5-3.7-1.5c-0.1,0-0.2,0-0.2,0H38.5c-15.6,0-28.3,12.7-28.3,28.4v21.7V-370
		c0,15.6,12.7,28.4,28.3,28.4h165.7c15.7,0,28.4-12.7,28.4-28.4v-156.7C232.5-527,232.4-527.4,232.4-527.7
		C232.4-527.7,232.4-527.7,232.4-527.7z M35.7-352.4c-8.6-1.3-15.1-8.7-15.1-17.6v-157.8c4.2,3.4,9.4,5.7,15.1,6.2V-352.4z
		 M38.5-532c-9.8,0-17.8-8-17.8-17.8v-21.7c0-9.8,8-17.9,17.8-17.9h177.9c-2.4,3.7-4.2,7.7-5.6,11.8H41c-2.9,0-5.2,2.3-5.2,5.2
		c0,2.9,2.3,5.2,5.2,5.2h167.4c-0.5,4.3-0.5,8.6,0,12.9H41c-2.9,0-5.2,2.3-5.2,5.3c0,2.9,2.3,5.2,5.2,5.2h169.8
		c1.3,4.1,3.2,8.1,5.6,11.8H41H38.5z M205.6-521.5l-35.9,18.5l-21.4-18.5H205.6z M120-521.5l-21.4,18.5l-36-18.5H120z M222-370
		c0,9.8-8,17.9-17.9,17.9H46.2v-166L96.9-492c1.9,1,4.2,0.7,5.8-0.7l31.4-27.1l31.4,27.1c1,0.8,2.2,1.3,3.4,1.3
		c0.8,0,1.7-0.2,2.4-0.6l50.7-26.1V-370z"/>
</g>
<g>
	<path class="st1" d="M98.1,122c-0.9,0-1.8-0.2-2.6-0.8c-2.2-1.4-2.9-4.4-1.4-6.6l0.1-0.2c1.4-2.2,4.4-2.9,6.6-1.5
		c2.2,1.4,2.9,4.4,1.5,6.6l-0.2,0.3C101.2,121.2,99.6,122,98.1,122z M114.3,102.4c-1.3,0-2.5-0.5-3.4-1.4c-1.8-1.9-1.8-4.8,0.1-6.6
		l0.2-0.2c1.9-1.8,4.9-1.7,6.7,0.2c1.8,1.9,1.7,4.9-0.2,6.7C116.8,102,115.5,102.4,114.3,102.4z M134.5,87.8c-1.7,0-3.3-0.9-4.2-2.5
		c-1.2-2.3-0.4-5.2,1.9-6.5l0.1-0.1c2.3-1.3,5.2-0.6,6.5,1.7c1.3,2.3,0.6,5.2-1.7,6.5c0,0-0.4,0.2-0.4,0.2
		C136.1,87.6,135.3,87.8,134.5,87.8z M157.9,78.5c-2.1,0-4.1-1.4-4.6-3.6c-0.6-2.6,0.9-5.1,3.5-5.8l0.2,0c2.5-0.7,5.2,0.8,5.9,3.3
		c0.7,2.5-0.8,5.2-3.3,5.9c0,0-0.4,0.1-0.4,0.1C158.7,78.4,158.3,78.5,157.9,78.5z"/>
	<path class="st1" d="M241.7,246.1c0,0-0.3,0.2-0.3,0.3c-2,1.8-2.1,4.8-0.3,6.8c0.9,1,2.2,1.5,3.5,1.5c1.2,0,2.3-0.4,3.2-1.3
		l0.1-0.1c2-1.7,2.2-4.7,0.4-6.7C246.7,244.6,243.7,244.4,241.7,246.1z"/>
	<path class="st1" d="M264.1,227c-2.2-1.5-5.2-0.8-6.7,1.4c-1.5,2.2-0.9,5.1,1.2,6.6c0.8,0.6,1.8,0.8,2.7,0.8c1.5,0,3-0.7,3.9-2.1
		c0,0,0.2-0.3,0.2-0.3C267,231.3,266.3,228.5,264.1,227z"/>
	<path class="st1" d="M221.9,259.7c0,0-0.3,0.2-0.3,0.2c-2.3,1.3-3.1,4.1-1.8,6.3c0.8,1.6,2.5,2.5,4.3,2.5c0.8,0,1.5-0.2,2.2-0.5
		l0,0c2.4-1.2,3.3-4.1,2.1-6.4C227.2,259.4,224.3,258.5,221.9,259.7z"/>
	<path class="st1" d="M207.2,173.5c-0.1-0.4-0.2-0.8-0.4-1.2c0-0.1-0.1-0.2-0.1-0.2c-0.2-0.4-0.4-0.7-0.8-1
		c-10.2-10.2-10.2-26.8,0-37c1.9-1.9,1.9-4.9,0-6.7c-1-1-2.3-1.5-3.5-1.4H80.9c-10.8,0-19.7,8.8-19.7,19.6v14v115.9
		c0,10.8,8.8,19.7,19.7,19.7h106.8c10.8,0,19.7-8.8,19.7-19.7v-101C207.3,174.1,207.3,173.8,207.2,173.5
		C207.2,173.5,207.2,173.5,207.2,173.5z M80.9,135.4h112.2c-2.1,3.9-3.4,8.1-4,12.4h-99c-2.6,0-4.8,2.1-4.8,4.8
		c0,2.6,2.1,4.8,4.8,4.8h99c0.6,4.3,1.9,8.5,4,12.4H80.9c-5.6,0-10.1-4.5-10.1-10.1v-14C70.8,140,75.3,135.4,80.9,135.4z
		 M70.8,275.4v-99.1c3,1.8,6.4,2.8,10.1,2.8h4.4v106.3h-4.4C75.3,285.5,70.8,281,70.8,275.4z M187.7,285.5H94.8V179.2h103v96.2
		C197.8,281,193.2,285.5,187.7,285.5z"/>
	<path class="st1" d="M189.1,157.3h-0.5v12.4h4.5C191,165.8,189.6,161.5,189.1,157.3z"/>
	<path class="st1" d="M298.7,107.9c-0.1-0.4-0.2-0.8-0.4-1.2c0-0.1-0.1-0.2-0.1-0.2c-0.2-0.4-0.5-0.7-0.8-1
		c-8.9-8.9-8.9-23.5,0-32.4c1.9-1.9,1.9-4.9,0-6.8c-1-1-2.3-1.4-3.5-1.4H185.1c-10,0-18.1,8.1-18.1,18.1v12.5v30.3h9.5v-14.4
		c2.5,1.4,5.5,2.2,8.5,2.2h3.5v12.2h9.5v-12.2h91.1v85.6c0,4.7-3.8,8.5-8.5,8.5h-73.4v9.5h73.4c10,0,18.1-8.1,18.1-18.1v-90.4
		C298.8,108.6,298.7,108.3,298.7,107.9C298.7,108,298.7,107.9,298.7,107.9z M185.1,104.1c-4.7,0-8.5-3.8-8.5-8.5V83
		c0-4.7,3.8-8.6,8.5-8.6h99.6c-1.6,3.2-2.6,6.6-3.2,10.1h-88.2c-2.6,0-4.8,2.1-4.8,4.8c0,2.6,2.1,4.8,4.8,4.8h88.2
		c0.5,3.5,1.5,6.9,3.2,10H185.1z"/>
	<path class="st1" d="M188.6,147.7h0.5c0.6-4.3,1.9-8.5,4-12.4h-4.5V147.7z"/>
	<path class="st1" d="M169.7,240.6h-46.8c-6.4,0-11.6-5.2-11.6-11.6v-15.7c0-6.4,5.2-11.6,11.6-11.6h46.8c6.4,0,11.6,5.2,11.6,11.6
		V229C181.3,235.4,176.1,240.6,169.7,240.6z M122.9,211.3c-1.1,0-2,0.9-2,2V229c0,1.1,0.9,2,2.1,2h46.8c1.1,0,2-0.9,2-2v-15.7
		c0-1.1-0.9-2-2-2H122.9z"/>
	<path class="st1" d="M270.7,146.2h-54c-2.6,0-4.8-2.2-4.8-4.8c0-2.6,2.1-4.8,4.8-4.8h54c2.6,0,4.8,2.1,4.8,4.8
		C275.5,144,273.3,146.2,270.7,146.2z"/>
	<path class="st1" d="M270.7,168.4h-54c-2.6,0-4.8-2.1-4.8-4.8c0-2.6,2.1-4.8,4.8-4.8h54c2.6,0,4.8,2.1,4.8,4.8
		C275.5,166.3,273.3,168.4,270.7,168.4z"/>
</g>
<g>
	<path class="st1" d="M1397.3,209.1c-9.7-6.8-17.4-0.3-28,8.7c-6.8,5.8-16.2,13.7-30.1,22.4c0,0,0-0.1,0-0.2
		c-0.8-7.4-3.5-12.8-8.2-16.1c-6.5-4.7-14-3.1-14.9-2.9c-30.5,7.3-36.5,5.3-44,2.7c-9.7-3.3-21.7-7.4-73.9,0.8c0,0-0.1,0-0.1,0
		c-0.2,0-0.3,0.1-0.5,0.1c-0.2,0.1-0.3,0.1-0.4,0.1c-0.2,0.1-0.3,0.1-0.4,0.2c-0.1,0.1-0.3,0.1-0.4,0.2c-0.1,0.1-0.2,0.2-0.3,0.3
		c-0.1,0.1-0.2,0.2-0.4,0.3c-0.1,0.1-0.2,0.2-0.3,0.3c-0.1,0.1-0.2,0.2-0.3,0.3c-0.1,0.1-0.2,0.3-0.2,0.4c-0.1,0.1-0.2,0.2-0.2,0.4
		c-0.1,0.1-0.1,0.3-0.1,0.4c-0.1,0.2-0.1,0.3-0.1,0.5c0,0.1,0,0.3-0.1,0.4c0,0.2-0.1,0.3-0.1,0.5c0,0,0,0.1,0,0.1l0.3,69.8
		c0,2.1,1.4,4,3.5,4.6c0.4,0.1,17.3,4.5,42.8,4.5c41.4,0,105.3-11.5,158.1-71.5c0.7-0.7,6.8-7.3,6-15.5
		C1404.7,217.9,1403.1,213.2,1397.3,209.1z M1392,230.2c-73.2,83.1-168.6,68.9-187.9,65l-0.3-61.9c46.3-7.1,56.8-3.5,65.2-0.6
		c10,3.4,17.7,5.1,49.3-2.4c0,0,4.1-0.8,7.2,1.4c2.3,1.7,3.8,4.8,4.3,9.3c0.2,1.7-0.3,3.2-1.7,4.7c-3.8,4.4-16.9,12-62.1,13.8
		c-2.6,0.1-4.7,2.3-4.6,4.9c0.1,2.6,2.2,4.6,4.8,4.6c0.1,0,0.1,0,0.2,0c30.4-1.2,51-5,62.3-11.7h0c23.4-12.4,37.5-24.4,46.8-32.3
		c11.1-9.4,13.1-10.4,16.3-8.1c2.3,1.6,3.5,3.3,3.7,5.1C1395.8,225.3,1393.1,229,1392,230.2z"/>
	<path class="st1" d="M1166.2,313.9H1138c-10.7,0-19.5-8.7-19.5-19.4v-60.8c0-10.7,8.7-19.5,19.5-19.5h28.2
		c10.7,0,19.4,8.7,19.4,19.5v60.8C1185.7,305.2,1176.9,313.9,1166.2,313.9z M1138,223.7c-5.5,0-9.9,4.4-9.9,9.9v60.8
		c0,5.4,4.4,9.9,9.9,9.9h28.2c5.5,0,9.9-4.4,9.9-9.9v-60.8c0-5.5-4.4-9.9-9.9-9.9H1138z"/>
	<path class="st1" d="M1152.1,296.3c-8.9,0-16.1-7.2-16.1-16.1s7.2-16,16.1-16c8.8,0,16,7.2,16,16S1160.9,296.3,1152.1,296.3z
		 M1152.1,273.7c-3.6,0-6.5,2.9-6.5,6.5c0,3.6,2.9,6.5,6.5,6.5s6.5-2.9,6.5-6.5C1158.6,276.6,1155.7,273.7,1152.1,273.7z"/>
	<path class="st1" d="M1343.6,46.1c-41.8,0-60.3,9.8-67.5,15.4c-7.2-5.6-25.7-15.4-67.5-15.4c-2.6,0-4.8,2.1-4.8,4.8v135.6
		c0,2.6,2.1,4.8,4.8,4.8c50.5,0,63.6,15.2,63.7,15.3c0.9,1.2,2.3,1.9,3.8,1.9c0.3,0,0.6-0.1,0.8-0.1c0.1,0,0.2,0,0.3,0
		c0.1,0,0.3,0,0.4-0.1c0.1,0,0.3-0.1,0.4-0.2c0.1-0.1,0.3-0.1,0.4-0.2c0.2-0.1,0.4-0.2,0.6-0.4c0.3-0.2,0.6-0.5,0.8-0.8
		c0.1-0.1,13.2-15.4,63.7-15.4c2.6,0,4.8-2.1,4.8-4.8V50.9C1348.4,48.2,1346.3,46.1,1343.6,46.1z M1213.5,55.7
		c39.4,0.8,54.3,11.1,57.9,14.3v123.9c-9-5.2-26.4-11.6-57.9-12.2V55.7z M1338.9,181.7c-31.5,0.6-48.9,6.9-57.9,12.2V70
		c3.8-3.3,18.7-13.6,57.9-14.3V181.7z"/>
	<path class="st1" d="M1360.5,63.3h-12.1v9.5h7.3v126.5h-63.9c-8.7,3.7-11.8,7.2-11.9,7.3c-0.2,0.3-0.5,0.5-0.8,0.8
		c-0.2,0.1-0.4,0.2-0.6,0.4c-0.1,0.1-0.3,0.1-0.4,0.2c-0.1,0.1-0.3,0.1-0.4,0.2c-0.1,0.1-0.3,0.1-0.4,0.1c-0.1,0-0.2,0-0.3,0
		c-0.2,0.1-0.5,0.1-0.8,0.1c-1.5,0-2.9-0.7-3.8-1.9c0,0-3.1-3.6-11.8-7.2h-63.9V72.9h7.3v-9.5h-12.1c-2.6,0-4.8,2.1-4.8,4.8v136
		c0,2.6,2.1,4.8,4.8,4.8h168.6c2.6,0,4.8-2.1,4.8-4.8v-136C1365.2,65.5,1363.1,63.3,1360.5,63.3z"/>
</g>
</svg>
