<?xml version="1.0" encoding="utf-8"?>
<!-- Generator: Adobe Illustrator 22.1.0, SVG Export Plug-In . SVG Version: 6.00 Build 0)  -->
<svg version="1.1" id="圖層_1" xmlns="http://www.w3.org/2000/svg" xmlns:xlink="http://www.w3.org/1999/xlink" x="0px" y="0px"
	 viewBox="0 0 841.9 161" style="enable-background:new 0 0 841.9 161;" xml:space="preserve">
<style type="text/css">
	.st0{fill:#FFFFFF;}
</style>
<path class="st0" d="M177.9,90.9L177.9,90.9c-1.1,6.1-2.9,10.7-5.4,14.6c-4.6,7.2-11.1,10.8-19.5,10.8c-9.1,0-14.8-0.6-16.9-1.9
	c-0.9-0.5-1.3-4-1.3-10.5V25.4h-10c-3.4,0-6.9-0.1-10.6-0.2c-3.7-0.1-7.5-0.3-11.5-0.5c-0.3,0.3-0.4,1.3-0.4,2.8
	c0,1.8,0.2,2.7,0.6,2.7c0.8,0,1.9,0.2,3.4,0.7c1.5,0.4,2.9,1,4.3,1.6c1.3,0.7,2.1,1.3,2.3,1.9c0.6,2.2,0.9,6.1,0.9,11.7v56.7
	c0,6.5-0.3,10.9-0.9,13.2c-0.2,0.5-1,1-2.2,1.6c-1.3,0.5-2.7,1-4.2,1.3c-1.5,0.3-2.7,0.4-3.4,0.4c-0.4,0-0.6,1-0.6,3
	c0,1.3,0.2,2.1,0.6,2.5l21.9-0.9c1.7-0.1,3.7-0.1,6.1,0c2.4,0.1,5,0.2,7.9,0.4c2.9,0.1,5.3,0.2,7.3,0.2c1.9,0,3.4,0.1,4.4,0.1
	c9.7,0,18.2-1.8,25.5-5.5C178.2,112.7,181.9,98.6,177.9,90.9z"/>
<path class="st0" d="M199.2,55.4c-2.4-5.8-5.8-10.9-10.3-15.4c-4.5-4.5-10-8-16.4-10.6c-6.4-2.6-13.7-3.9-21.8-3.9h-12.5v9.8
	c2.3-0.9,6.6-1.4,13-1.4h0.7c5.8,0,10.7,1.7,14.8,5.2c4,3.5,7.2,8.2,9.4,14.2c2.2,5.9,3.3,12.6,3.3,20c0,2.8-0.1,5-0.2,7.6l0,0
	c0,0,8.4,17.9,0.4,36.6c0.4-0.2,0.7-0.4,1.1-0.6c7.8-4.5,11.6-9.4,15.8-17.1s6.3-16.3,6.3-25.9C202.8,67.4,201.6,61.2,199.2,55.4z"
	/>
<g>
	<path class="st0" d="M213.8,124.5c-0.3-0.3-0.5-1.1-0.5-2.4s0.2-1.9,0.5-1.9c0.7,0,1.5-0.2,2.6-0.5c1.1-0.3,2.1-0.7,3.1-1.2
		c1-0.5,1.5-1,1.6-1.4c0.6-2.3,0.9-5.5,0.9-9.5V89.4c0-4.7-0.7-7.8-2.2-9.4c-0.7-0.8-1.6-1.4-2.7-1.7c-1.1-0.3-2.1-0.6-2.9-0.7
		c-0.8-0.1-1.2-0.3-1.2-0.4c0-2.4,0.2-3.6,0.6-3.6c0.7,0,2.1-0.2,4.1-0.5c2-0.3,4.2-0.7,6.7-1.2c2.5-0.5,4.8-1,7-1.5
		c2.2-0.5,3.9-0.9,5.1-1.2l1.4-0.4c0.4,0,0.8,0.3,1.2,0.8c0.4,0.5,0.6,1,0.6,1.3c-0.4,3.7-0.7,6.5-1,8.6c-0.2,2.1-0.4,3.4-0.4,3.9
		v22.5c0,4.7,0.3,8.5,1,11.4c0.2,0.3,0.7,0.7,1.7,1.2c1,0.5,2,0.9,3.1,1.3c1.1,0.4,1.8,0.6,2.2,0.6c0.2,0,0.4,0.6,0.4,1.9
		c0,1.2,0,2-0.2,2.4c-0.7-0.1-2.1-0.2-4.2-0.3s-4.4-0.3-6.7-0.4c-2.3-0.2-4.2-0.2-5.5-0.2c-1.3,0-3.2,0.1-5.5,0.2
		c-2.3,0.2-4.5,0.3-6.6,0.4C216,124.3,214.5,124.4,213.8,124.5z M229.5,56.3c-2.6,0-4.8-0.9-6.6-2.7c-1.8-1.8-2.7-4-2.7-6.6
		c0-2.6,0.9-4.8,2.7-6.6c1.8-1.8,4-2.7,6.6-2.7c2.6,0,4.8,0.9,6.6,2.7c1.8,1.8,2.7,4,2.7,6.6c0,2.6-0.9,4.8-2.7,6.6
		C234.3,55.4,232.1,56.3,229.5,56.3z"/>
	<path class="st0" d="M254.5,124.5c-0.3-0.3-0.5-1.2-0.5-2.6c0-1.3,0.2-2,0.5-2c0.7,0,1.6-0.2,2.9-0.6c1.2-0.4,2.4-0.8,3.5-1.3
		c1.1-0.5,1.7-0.9,1.7-1.2c0.6-2.3,0.9-5.5,0.9-9.5V90.1c0-4.7-0.7-7.8-2.2-9.4c-0.7-0.8-1.6-1.4-2.7-1.7c-1.1-0.3-2.1-0.6-2.9-0.7
		c-0.8-0.1-1.2-0.3-1.2-0.4c0-2.9,0.2-4.4,0.6-4.4c2.2,0,5.2-0.5,9.1-1.4c3.9-1,8-1.9,12.3-2.8l2.9-0.6c0.4,0,0.8,0.3,1.2,0.8
		c0.4,0.5,0.6,1,0.6,1.3c-0.1,0.5-0.2,1.5-0.3,3c-0.1,1.5-0.2,2.3-0.3,2.5c4.2-5.4,8.9-8.1,14.1-8.1c3.7,0,7.3,1.5,10.7,4.6
		c0,4.3-0.5,7.5-1.6,9.6c-1,2.1-2.9,3.1-5.7,3.1c-1.7,0-3.6-1-5.7-2.9c-2.2-1.9-4.1-2.9-5.7-2.9c-1.7,0-3,0.6-4,1.9
		c-1,1.3-1.7,2.9-2.2,4.9c-0.5,2-0.7,4.1-0.7,6.2v12.6c0,5.4,0.3,9.2,0.9,11.2c0.2,0.3,0.7,0.7,1.7,1.2s2.1,0.9,3.2,1.3
		c1.2,0.4,2,0.6,2.4,0.6c0.2,0,0.3,0.3,0.4,1c0.1,0.7,0.1,1.4,0.1,2.1s-0.1,1.2-0.2,1.5c-0.7-0.1-2.1-0.2-4.2-0.3
		c-2.2-0.1-4.4-0.3-6.8-0.4c-2.4-0.2-4.2-0.2-5.6-0.2c-1,0-2.4,0-4.1,0.1c-1.7,0.1-3.5,0.2-5.3,0.3c-1.8,0.1-3.5,0.2-4.9,0.4
		C256,124.4,255,124.5,254.5,124.5z"/>
	<path class="st0" d="M338.8,124.9c-5.1,0-9.8-1.3-14.1-3.9c-4.3-2.6-7.7-6-10.2-10.4c-2.5-4.3-3.8-9.1-3.8-14.2
		c0-5.3,1.1-10.1,3.4-14.4c2.3-4.2,5.5-7.6,9.6-10.1c4.1-2.5,8.8-3.7,14.1-3.7c5.2,0,9.7,1.2,13.4,3.7c3.7,2.5,6.5,5.5,8.5,9.1
		c2,3.6,2.9,7.3,2.9,10.9c0,1.9-0.4,3.2-1.2,3.7c-0.8,0.6-2.4,0.9-4.7,0.9h-28.2c-0.5,0-0.7,0.3-0.7,0.9c0,3,0.6,5.8,1.7,8.5
		c1.1,2.7,2.8,4.8,5,6.5c2.2,1.7,4.9,2.5,8.1,2.5c2.8,0,5.5-0.4,7.9-1.2c1.7-0.5,3-1,3.9-1.4c0.9-0.4,1.8-0.9,2.6-1.4
		c0.8-0.5,1.7-1.2,2.8-2.1c0.7,0.3,1.1,1.1,1.1,2.4c0,1.1-0.2,1.9-0.5,2.5c-0.5,1.3-1.8,2.9-3.9,4.6c-2.1,1.7-4.7,3.3-7.7,4.6
		C345.5,124.2,342.3,124.9,338.8,124.9z M328.6,89.6h15.9c1.2,0,1.7-0.8,1.7-2.4c0-3.2-0.9-6-2.6-8.5c-1.7-2.5-3.9-3.7-6.6-3.7
		c-2.4,0-4.3,0.9-5.7,2.6c-1.4,1.7-2.3,3.6-2.9,5.7c-0.5,2.1-0.8,3.8-0.8,5.1C327.8,89.2,328.1,89.6,328.6,89.6z"/>
	<path class="st0" d="M397.9,124.9c-5.3,0-10.1-1.3-14.4-3.9c-4.2-2.6-7.6-6.1-10.1-10.5c-2.5-4.4-3.7-9.3-3.7-14.7
		c0-5.2,1.3-9.8,4-14c2.7-4.2,6.3-7.5,10.8-9.9c4.5-2.5,9.6-3.7,15.1-3.7c4.2,0,8.2,0.7,11.7,2.2c3.6,1.5,6.2,3.2,7.7,5.2
		c0,7.7-2.2,11.5-6.7,11.5c-3.2,0-5.7-2.1-7.4-6.2c-0.7-1.9-1.7-3.4-2.8-4.3c-1.1-1-2.7-1.4-4.7-1.4c-6.7,0-10,6.2-10,18.7
		c0,14.1,4.7,21.1,14.1,21.1c2.8,0,5.5-0.4,7.9-1.2c1.7-0.5,3-1,3.9-1.4c0.9-0.4,1.8-0.9,2.6-1.4c0.8-0.5,1.7-1.2,2.8-2.1
		c0.7,0.3,1.1,1.1,1.1,2.4c0,1.1-0.2,1.9-0.5,2.5c-0.5,1.3-1.8,2.9-3.9,4.7c-2.1,1.8-4.6,3.3-7.7,4.6
		C404.7,124.2,401.4,124.9,397.9,124.9z"/>
	<path class="st0" d="M450.6,124.9c-4.6,0-8.5-1.4-11.8-4.3c-3.3-2.9-4.9-7.5-4.9-13.9V77.8h-8.1c-0.7,0-1-1.3-1-3.9
		c0-0.6,0.1-1,0.3-1.4c2.3-1.2,4.4-2.3,6.3-3.4s3.5-2.2,4.9-3.3c3.7-2.9,6.3-5.1,8-6.6c1.7-1.5,2.5-2.3,2.6-2.4
		c0.7,0,1.4,0.1,2.1,0.4c0.7,0.3,1.1,0.6,1.1,0.9v12.2h13.5c0.7,0,1,0.4,1,1.2c0,2.5-0.4,4.5-1.2,6.1h-13.2v29.6
		c0,6.3,2.2,9.5,6.7,9.5c2.3,0,4-0.3,4.9-0.9c1-0.6,1.6-0.9,1.9-0.9c0.3,0,0.7,0.4,1.1,1.2c0.4,0.8,0.6,1.5,0.6,1.9
		c0,0.7-0.8,1.5-2.4,2.6c-1.6,1.1-3.6,2-5.9,2.9C454.8,124.5,452.6,124.9,450.6,124.9z"/>
	<path class="st0" d="M498.4,124.5c-0.3-0.3-0.5-1-0.5-2.1c0-1.7,0.2-2.5,0.5-2.5c0.7,0,1.6-0.1,2.9-0.4c1.2-0.2,2.4-0.6,3.5-1.1
		c1.1-0.5,1.7-0.9,1.9-1.3c0.5-1.9,0.7-5.6,0.7-11V58.4c0-5.1-0.3-8.2-1-9.4c-0.2-0.5-0.9-1-1.9-1.4c-1-0.5-2.1-0.9-3.2-1.2
		c-1.1-0.3-2-0.5-2.6-0.5c-0.3,0-0.5-0.7-0.5-2.1c0-1.5,0.1-2.3,0.2-2.5l18.1,0.7c0.8,0.1,2.7,0,5.6-0.1c2.9-0.2,6.9-0.4,11.9-0.6
		c0.3,0.7,0.4,1.5,0.4,2.2c0,1.6-0.2,2.4-0.5,2.4c-0.5,0-1.4,0.2-2.6,0.5c-1.2,0.3-2.4,0.7-3.6,1.2c-1.1,0.5-1.8,0.9-1.9,1.3
		c-0.3,1.1-0.6,2.5-0.7,4.2c-0.1,1.7-0.2,3.6-0.2,5.8v47.4c0,4,0.3,7,1,9c0.3,1.3,3.2,2,8.5,2h3.2c5.2,0,9.8-1.1,14-3.2
		c1.4-0.7,3-2.2,4.8-4.2c1.8-2.1,3.2-4.4,4.2-7c0.2-0.5,0.7-0.7,1.7-0.7c2,0,3.2,0.2,3.7,0.7c-4.2,11.5-6.4,18.7-6.7,21.5
		c-2.3,0-5.4,0-9.1-0.1c-3.7,0-8.1-0.1-13.2-0.2c-5.1-0.1-9.3-0.2-12.7-0.2c-3.4-0.1-6-0.1-7.8,0L498.4,124.5z"/>
	<path class="st0" d="M573.4,124.5c-0.3-0.3-0.5-1.1-0.5-2.4s0.2-1.9,0.5-1.9c0.7,0,1.5-0.2,2.6-0.5c1.1-0.3,2.1-0.7,3.1-1.2
		c1-0.5,1.5-1,1.6-1.4c0.6-2.3,0.9-5.5,0.9-9.5V89.4c0-4.7-0.7-7.8-2.2-9.4c-0.7-0.8-1.6-1.4-2.7-1.7c-1.1-0.3-2.1-0.6-2.9-0.7
		c-0.8-0.1-1.2-0.3-1.2-0.4c0-2.4,0.2-3.6,0.6-3.6c0.7,0,2.1-0.2,4.1-0.5c2-0.3,4.2-0.7,6.7-1.2c2.5-0.5,4.8-1,7-1.5
		c2.2-0.5,3.9-0.9,5.1-1.2l1.4-0.4c0.4,0,0.8,0.3,1.2,0.8c0.4,0.5,0.6,1,0.6,1.3c-0.4,3.7-0.7,6.5-1,8.6c-0.2,2.1-0.4,3.4-0.4,3.9
		v22.5c0,4.7,0.3,8.5,1,11.4c0.2,0.3,0.7,0.7,1.7,1.2c1,0.5,2,0.9,3.1,1.3c1.1,0.4,1.8,0.6,2.2,0.6c0.3,0,0.4,0.6,0.4,1.9
		c0,1.2,0,2-0.2,2.4c-0.7-0.1-2.1-0.2-4.2-0.3c-2.1-0.1-4.4-0.3-6.7-0.4c-2.3-0.2-4.2-0.2-5.5-0.2c-1.3,0-3.2,0.1-5.5,0.2
		c-2.3,0.2-4.5,0.3-6.6,0.4C575.5,124.3,574.1,124.4,573.4,124.5z M589.1,56.3c-2.6,0-4.8-0.9-6.6-2.7c-1.8-1.8-2.7-4-2.7-6.6
		c0-2.6,0.9-4.8,2.7-6.6c1.8-1.8,4-2.7,6.6-2.7c2.6,0,4.8,0.9,6.6,2.7c1.8,1.8,2.7,4,2.7,6.6c0,2.6-0.9,4.8-2.7,6.6
		C593.9,55.4,591.7,56.3,589.1,56.3z"/>
	<path class="st0" d="M613.2,124.5c-0.3-0.3-0.5-1.2-0.5-2.6c0-1.3,0.2-2,0.5-2c0.7,0,1.6-0.2,2.8-0.6c1.2-0.4,2.4-0.8,3.5-1.3
		s1.7-0.9,1.8-1.2c0.6-2.3,0.9-5.5,0.9-9.5V90.1c0-4.7-0.7-7.8-2.2-9.4c-0.7-0.8-1.6-1.4-2.7-1.7c-1.1-0.3-2.1-0.6-2.9-0.7
		c-0.8-0.1-1.2-0.3-1.2-0.4c0-2.9,0.2-4.4,0.6-4.4c2.2,0,5.2-0.5,9.2-1.4c4-1,8.5-2,13.6-3.1l0.6-0.1c0.1-0.1,0.3-0.1,0.5-0.1
		l0.3-0.1c0.4,0,0.9,0.3,1.3,0.8c0.5,0.5,0.6,1,0.6,1.3l-0.5,3.9c0,0.4,0,0.7,0.1,0.7c0.2,0,0.5-0.2,0.9-0.6
		c4.6-4.3,10.4-6.5,17.4-6.5c4.8,0,8.8,2,11.8,6.1c3,4.1,4.6,10.3,4.6,18.6v12.4c0,5.5,0.3,9.3,0.9,11.4c0.2,0.3,0.8,0.7,1.9,1.2
		c1.1,0.5,2.2,0.9,3.4,1.3c1.2,0.4,2.1,0.6,2.6,0.6c0.2,0,0.3,0.3,0.4,1c0.1,0.7,0.1,1.4,0.1,2.1s-0.1,1.2-0.2,1.5
		c-0.5,0-1.5-0.1-2.9-0.2c-1.4-0.1-3.1-0.2-4.9-0.4c-1.9-0.1-3.6-0.2-5.3-0.3c-1.7-0.1-3-0.1-4-0.1c-1.3,0-3.2,0.1-5.6,0.2
		c-2.4,0.2-4.6,0.3-6.8,0.4c-2.2,0.1-3.6,0.2-4.2,0.3c-0.3-0.3-0.5-1.2-0.5-2.6c0-1.3,0.2-2,0.5-2c0.7,0,1.6-0.2,2.7-0.6
		c1.1-0.4,2.2-0.8,3.2-1.3c1-0.5,1.6-0.9,1.7-1.2c0.6-2.3,0.9-5.5,0.9-9.5V96c0-6.2-0.9-10.6-2.6-13.2c-1.7-2.6-4.4-3.9-8.2-3.9
		c-2.6,0-4.7,0.5-6.2,1.4c-1.6,1-2.4,2.3-2.4,4.1v21c0,5.5,0.3,9.3,0.9,11.4c0.2,0.3,0.7,0.7,1.7,1.2s2.1,0.9,3.2,1.3
		c1.2,0.4,2,0.6,2.4,0.6c0.2,0,0.3,0.3,0.4,1c0.1,0.7,0.1,1.4,0.1,2.1s-0.1,1.2-0.2,1.5c-0.7-0.1-2.1-0.2-4.2-0.3
		c-2.2-0.1-4.4-0.3-6.8-0.4c-2.4-0.2-4.2-0.2-5.6-0.2c-1,0-2.4,0-4.1,0.1c-1.7,0.1-3.5,0.2-5.3,0.3c-1.8,0.1-3.5,0.2-4.9,0.4
		C614.7,124.4,613.7,124.5,613.2,124.5z"/>
	<path class="st0" d="M715.9,124.9c-5.1,0-9.8-1.3-14.1-3.9c-4.3-2.6-7.7-6-10.2-10.4c-2.5-4.3-3.8-9.1-3.8-14.2
		c0-5.3,1.1-10.1,3.4-14.4c2.3-4.2,5.5-7.6,9.6-10.1c4.1-2.5,8.8-3.7,14.1-3.7c5.2,0,9.7,1.2,13.4,3.7c3.7,2.5,6.5,5.5,8.5,9.1
		c2,3.6,2.9,7.3,2.9,10.9c0,1.9-0.4,3.2-1.2,3.7c-0.8,0.6-2.4,0.9-4.7,0.9h-28.2c-0.5,0-0.7,0.3-0.7,0.9c0,3,0.6,5.8,1.7,8.5
		c1.1,2.7,2.8,4.8,5,6.5c2.2,1.7,4.9,2.5,8.1,2.5c2.8,0,5.5-0.4,7.9-1.2c1.7-0.5,3-1,3.9-1.4c0.9-0.4,1.8-0.9,2.6-1.4
		c0.8-0.5,1.7-1.2,2.8-2.1c0.7,0.3,1.1,1.1,1.1,2.4c0,1.1-0.2,1.9-0.5,2.5c-0.5,1.3-1.8,2.9-3.9,4.6s-4.7,3.3-7.7,4.6
		C722.6,124.2,719.4,124.9,715.9,124.9z M705.7,89.6h15.9c1.2,0,1.7-0.8,1.7-2.4c0-3.2-0.9-6-2.6-8.5c-1.7-2.5-3.9-3.7-6.6-3.7
		c-2.4,0-4.3,0.9-5.7,2.6c-1.4,1.7-2.3,3.6-2.9,5.7c-0.5,2.1-0.8,3.8-0.8,5.1C704.9,89.2,705.2,89.6,705.7,89.6z"/>
</g>
</svg>
