<?xml version="1.0" encoding="utf-8"?>
<!-- Generator: Adobe Illustrator 22.1.0, SVG Export Plug-In . SVG Version: 6.00 Build 0)  -->
<svg version="1.1" id="Layer_1" xmlns="http://www.w3.org/2000/svg" xmlns:xlink="http://www.w3.org/1999/xlink" x="0px" y="0px"
	 viewBox="0 0 801.8 180" style="enable-background:new 0 0 801.8 180;" xml:space="preserve">
<style type="text/css">
	.st0{fill:#FFFFFF;}
	.st1{fill:#FDB719;}
</style>
<path class="st0" d="M95.5,82.9c11.7-6.2,18.5-18.4,18.5-34.4C114,21.5,95,0,59.5,0H0v177.8h68.3c34.8,0,57.8-20,57.8-51.3
	C126,106.8,115.2,90.7,95.5,82.9z M28.5,26.8h29c18.8,0,28,9.3,28,24c0,15-9.3,24-28,24h-29V26.8z M64,151H28.5V99.5H64
	c23.8,0,33,9.3,33,25.8S87.8,151,64,151z"/>
<path class="st0" d="M762,81.8V54c-3.5-1.5-8.5-2.5-14-2.5c-13.8,0-27.2,9.5-32.3,21.6V52.8h-27.5v125h27.5v-69.3
	c0-17.8,12.5-30.5,29.8-30.5C752,78,757,79,762,81.8z"/>
<path class="st1" d="M794,139.5h-4.8c-7.8,0-12.3-5.3-12.3-12.5v-5.5c0-4.5-3-7.5-7.5-7.5s-7.5,3-7.5,7.5v5.5
	c0,7.3-4.5,12.5-12.3,12.5H745c-4.8,0-7.8,2.5-7.8,6.8c0,4.5,3,7,7.8,7h4.8c7.8,0,12.3,5.3,12.3,12.5v5.3c0,4.8,3,7.8,7.5,7.8
	s7.5-3,7.5-7.8v-5.3c0-7.3,4.5-12.5,12.3-12.5h4.8c4.8,0,7.8-2.5,7.8-7C801.8,142,798.8,139.5,794,139.5z"/>
<path class="st0" d="M605.8,50.5c-37.5,0-64.5,27-64.5,64.8c0,37.8,26.5,64.8,65.5,64.8c26.3,0,46-9.8,58-23.5l-15.3-18.3
	C637,149.8,624,155,607.3,155c-22,0-36-12.4-38.4-33.3h96.9c0.8-5,0.8-6.8,0.8-9.8C666.5,76.3,643,50.5,605.8,50.5z M604.8,73.5
	c18,0,31,10.4,34.1,26.8h-68.6C574.5,83.1,586.7,73.5,604.8,73.5z"/>
<path class="st0" d="M208.3,50.5c-37.5,0-64.5,27-64.5,64.8c0,37.8,26.5,64.8,65.5,64.8c26.3,0,46-9.8,58-23.5L252,138.3
	c-12.5,11.5-25.5,16.8-42.3,16.8c-22,0-36-12.4-38.4-33.3h96.9c0.8-5,0.8-6.8,0.8-9.8C269,76.3,245.5,50.5,208.3,50.5z M207.3,73.5
	c18,0,31,10.4,34.1,26.8h-68.6C177,83.1,189.2,73.5,207.3,73.5z"/>
<polygon class="st0" points="537.3,52.8 503,52.8 457,98.8 457,0 429.5,0 429.5,177.8 457,177.8 457,118.5 509.3,177.8 545.3,177.8 
	481.9,107.9 "/>
<path class="st0" d="M353,155c-20.3,0-36.3-14.5-36.3-39.8c0-25.3,16-39.8,36.3-39.8c15.8,0,27.8,7,36.3,21.3L409.8,83
	c-12-20.3-32-32.5-56.8-32.5c-35.3,0-64.8,27-64.8,64.8c0,37.8,29.5,64.8,64.8,64.8c26.3,0,46-12.5,57-33.3L390.5,133
	C380,149,369.5,155,353,155z"/>
</svg>
